<svg id="Capa_1" enable-background="new 0 0 512 512" height="512" viewBox="0 0 512 512" width="512" xmlns="http://www.w3.org/2000/svg"><g><circle cx="256" cy="256" fill="#46cc8d" r="256"/><path d="m302.935 4.308c78.84 39.253 133.017 120.638 133.017 214.689 0 132.382-107.317 239.699-239.699 239.699-54.348 0-104.462-18.098-144.67-48.582 46.729 61.883 120.898 101.886 204.417 101.886 141.385 0 256-114.615 256-256 0-125.351-90.099-229.645-209.065-251.692z" fill="#00c27a"/><circle cx="256" cy="256" fill="#b9eacf" r="219.625"/><circle cx="256" cy="256" fill="#f3f0f3" r="171.082"/><circle cx="257.087" cy="253.877" fill="#f3f0f3" r="171.082"/><g fill="#91deb6"><path d="m396.448 87.157c24.96 37.825 39.503 83.131 39.503 131.84 0 132.382-107.317 239.699-239.699 239.699-9.812 0-19.482-.604-28.986-1.75 27.136 12.001 57.153 18.679 88.733 18.679 121.296 0 219.625-98.329 219.625-219.625.001-67.877-30.798-128.556-79.176-168.843z"/><path d="m214.453 337.871-56.4-56.4c-5.314-5.314-5.314-13.93 0-19.244l14.215-14.215c5.314-5.314 13.93-5.314 19.244 0l22.941 22.941c5.314 5.314 13.93 5.314 19.244 0l91.808-91.809c5.314-5.314 13.93-5.314 19.244 0l14.215 14.215c5.314 5.314 5.314 13.93 0 19.244l-125.267 125.268c-5.314 5.314-13.93 5.314-19.244 0z"/></g></g></svg>