<svg fill="none" height="1000" viewBox="0 0 1001 1000" width="1001" xmlns="http://www.w3.org/2000/svg" xmlns:xlink="http://www.w3.org/1999/xlink"><filter id="filter0_f_91_4425" color-interpolation-filters="sRGB" filterUnits="userSpaceOnUse" height="521.224" width="972.852" x="13.723" y="387.234"><feFlood flood-opacity="0" result="BackgroundImageFix"/><feBlend in="SourceGraphic" in2="BackgroundImageFix" mode="normal" result="shape"/><feGaussianBlur result="effect1_foregroundBlur_91_4425" stdDeviation="110"/></filter><filter id="filter1_f_91_4425" color-interpolation-filters="sRGB" filterUnits="userSpaceOnUse" height="796.407" width="783.566" x="125.406" y="140.023"><feFlood flood-opacity="0" result="BackgroundImageFix"/><feBlend in="SourceGraphic" in2="BackgroundImageFix" mode="normal" result="shape"/><feGaussianBlur result="effect1_foregroundBlur_91_4425" stdDeviation="90"/></filter><radialGradient id="paint0_radial_91_4425" cx="0" cy="0" gradientTransform="matrix(-215.464 -96.937 58.719 -130.515 524.939 697.778)" gradientUnits="userSpaceOnUse" r="1"><stop offset=".223958" stop-color="#32c1f7"/><stop offset=".881152" stop-color="#022d9a"/></radialGradient><radialGradient id="paint1_radial_91_4425" cx="0" cy="0" gradientTransform="matrix(425.058 -283.586 618.009 926.315 418.024 611.758)" gradientUnits="userSpaceOnUse" r="1"><stop offset=".0110439" stop-color="#32c1f7"/><stop offset=".991286" stop-color="#237cd5"/></radialGradient><radialGradient id="paint2_radial_91_4425" cx="0" cy="0" gradientTransform="matrix(-252.249 804.779 -391.681 -122.768 666.619 161.501)" gradientUnits="userSpaceOnUse" r="1"><stop offset=".0677083" stop-color="#defdff"/><stop offset="1" stop-color="#74e6ff" stop-opacity="0"/></radialGradient><g filter="url(#filter0_f_91_4425)" opacity=".65"><path d="m233.723 607.234h532.85v81.224h-532.85z" fill="url(#paint0_radial_91_4425)"/></g><g clip-rule="evenodd" fill-rule="evenodd"><path d="m263.934 161.542c-55.229 0-100 44.772-100 100v100c0 55.228 44.771 100 100 100h100c55.228 0 100-44.772 100-100v-100c0-55.228-44.772-100-100-100zm379.147 0c-55.229 0-100 44.772-100 100v100c0 55.228 44.771 100 100 100h100c55.228 0 100-44.772 100-100v-100c0-55.228-44.772-100-100-100zm-479.147 476.915c0-55.228 44.771-100 100-100h100c55.228 0 100 44.772 100 100v100c0 55.229-44.772 100-100 100h-100c-55.229 0-100-44.771-100-100zm479.147-100c-55.229 0-100 44.772-100 100v100c0 55.229 44.771 100 100 100h100c55.228 0 100-44.771 100-100v-100c0-55.228-44.772-100-100-100z" fill="#30b4f0"/><path d="m263.934 161.542c-55.229 0-100 44.772-100 100v100c0 55.228 44.771 100 100 100h100c55.228 0 100-44.772 100-100v-100c0-55.228-44.772-100-100-100zm379.147 0c-55.229 0-100 44.772-100 100v100c0 55.228 44.771 100 100 100h100c55.228 0 100-44.772 100-100v-100c0-55.228-44.772-100-100-100zm-479.147 476.915c0-55.228 44.771-100 100-100h100c55.228 0 100 44.772 100 100v100c0 55.229-44.772 100-100 100h-100c-55.229 0-100-44.771-100-100zm479.147-100c-55.229 0-100 44.772-100 100v100c0 55.229 44.771 100 100 100h100c55.228 0 100-44.771 100-100v-100c0-55.228-44.772-100-100-100z" fill="url(#paint1_radial_91_4425)"/><path d="m263.934 175.542c-47.497 0-86 38.503-86 86v100c0 47.496 38.503 86 86 86h100c47.496 0 86-38.504 86-86v-100c0-47.496-38.504-86-86-86zm379.147 0c-47.497 0-86 38.504-86 86v100c0 47.496 38.503 86 86 86h100c47.496 0 86-38.504 86-86v-100c0-47.496-38.504-86-86-86zm-379.147 376.915c-47.497 0-86 38.504-86 86v100c0 47.497 38.503 86 86 86h100c47.496 0 86-38.503 86-86v-100c0-47.496-38.504-86-86-86zm379.147 0c-47.497 0-86 38.504-86 86v100c0 47.497 38.503 86 86 86h100c47.496 0 86-38.503 86-86v-100c0-47.496-38.504-86-86-86zm-479.147-290.915c0-55.228 44.771-100 100-100h100c55.228 0 100 44.772 100 100v100c0 55.228-44.772 100-100 100h-100c-55.229 0-100-44.772-100-100zm379.147 0c0-55.228 44.771-100 100-100h100c55.228 0 100 44.772 100 100v100c0 55.228-44.772 100-100 100h-100c-55.229 0-100-44.772-100-100zm-279.147 276.915c-55.229 0-100 44.772-100 100v100c0 55.229 44.771 100 100 100h100c55.228 0 100-44.771 100-100v-100c0-55.228-44.772-100-100-100zm279.147 100c0-55.228 44.771-100 100-100h100c55.228 0 100 44.772 100 100v100c0 55.229-44.772 100-100 100h-100c-55.229 0-100-44.771-100-100z" fill="url(#paint2_radial_91_4425)" opacity=".5"/></g><g filter="url(#filter1_f_91_4425)" opacity=".7" mix-blend-mode="overlay"><path clip-rule="evenodd" d="m463.935 340.971c-69.086 24.06-131.88 62.153-147.724 77.24-6.687 6.367-10.323 22.05-10.805 43.331h58.529c55.229 0 100-44.771 100-100zm-.701 409.393c-9.308-2.716-18.567-6.22-27.716-10.611-65.945-31.645-105.923-123.377-121.99-201.295h50.407c55.229 0 100 44.771 100 100v100c0 4.028-.238 8.002-.701 11.906zm261.328-211.906c8.767 67.34 4.162 127.674-11.094 142.201-21.626 20.592-90.574 66.712-168.775 75.772-1.058-5.831-1.61-11.838-1.61-17.973v-100c0-55.229 44.771-100 100-100zm-181.479-216.791c41.354-4.91 79.329.568 104.784 24.762 27.728 26.355 47.759 68.938 60.977 115.113h-65.761c-55.229 0-100-44.771-100-100z" fill="#a4e9ff" fill-rule="evenodd"/></g></svg>