<svg height="512" viewBox="0 0 128 128" width="512" xmlns="http://www.w3.org/2000/svg"><g><g><path d="m87.218 44.661a94.294 94.294 0 0 1 -1.271-15.714 21.947 21.947 0 0 0 -43.894 0 94.294 94.294 0 0 1 -1.271 15.714c-30.455 13.8-26.4 46.521-26.4 46.521a49.117 49.117 0 0 1 20.064-20.875 53.058 53.058 0 0 0 -.568 19.127 31.534 31.534 0 0 0 14.509 22.537 28.631 28.631 0 0 0 31.218 0 31.534 31.534 0 0 0 14.513-22.537 53.081 53.081 0 0 0 -.568-19.127 49.117 49.117 0 0 1 20.061 20.875s4.062-32.718-26.393-46.521z" fill="#4d5e80"/><path d="m84.809 68.928c-11.092-18.159-2.758-26.482-5.84-39.981-2.1-9.216-11.717-9.622-14.969-2.1-3.252-7.525-12.864-7.119-14.969 2.1-3.082 13.5 5.252 21.822-5.84 39.981a45.015 45.015 0 0 0 -6.265 30.414 32.215 32.215 0 0 0 11.468 12.628 28.631 28.631 0 0 0 31.218 0 32.215 32.215 0 0 0 11.465-12.627 45.015 45.015 0 0 0 -6.268-30.415z" fill="#e6f8fc"/><g fill="#f9773e"><g><path d="m29.294 121s5.615-10.677 16.773-10.677 11.933 10.677 11.933 10.677z"/><path d="m98.706 121s-5.615-10.677-16.773-10.677-11.933 10.677-11.933 10.677z"/></g><path d="m64 39.172a13.745 13.745 0 0 1 8.878 3.156l-8.878 5.282-8.878-5.282a13.741 13.741 0 0 1 8.878-3.156z"/></g></g><g fill="#4d5e80"><circle cx="57" cy="31.07" r="2.632"/><circle cx="71" cy="31.07" r="2.632"/></g></g></svg>