<svg id="Capa_1" enable-background="new 0 0 512 512" height="512" viewBox="0 0 512 512" width="512" xmlns="http://www.w3.org/2000/svg"><g><path d="m512 208v96h-37.17c-5.74 26.28-16.08 50.85-30.16 72.79l26.29 26.29-67.88 67.88-26.29-26.29c-21.94 14.08-46.51 24.42-72.79 30.16v37.17h-96v-37.17c-26.28-5.74-50.85-16.08-72.79-30.16l-26.29 26.29-67.88-67.88 26.29-26.29c-14.08-21.94-24.42-46.51-30.16-72.79h-37.17v-96h37.17c5.74-26.28 16.08-50.85 30.16-72.79l-26.29-26.29 67.88-67.88 26.29 26.29c21.94-14.08 46.51-24.42 72.79-30.16v-37.17h96v37.17c26.28 5.74 50.85 16.08 72.79 30.16l26.29-26.29 67.88 67.88-26.29 26.29c14.08 21.94 24.42 46.51 30.16 72.79z" fill="#4e5f7f"/><path d="m512 208v96h-37.17c-5.74 26.28-16.08 50.85-30.16 72.79l26.29 26.29-67.88 67.88-26.29-26.29c-21.94 14.08-46.51 24.42-72.79 30.16v37.17h-48v-512h48v37.17c26.28 5.74 50.85 16.08 72.79 30.16l26.29-26.29 67.88 67.88-26.29 26.29c14.08 21.94 24.42 46.51 30.16 72.79z" fill="#3e4665"/><path d="m406.63 256c0 83.19-67.44 150.63-150.63 150.63s-150.62-67.44-150.62-150.63 67.43-150.62 150.62-150.62 150.63 67.43 150.63 150.62z" fill="#ecf2ff"/><path d="m406.63 256c0 83.19-67.44 150.63-150.63 150.63v-301.25c83.19 0 150.63 67.43 150.63 150.62z" fill="#dae6fe"/><path d="m256 90.38c-91.33 0-165.62 74.29-165.62 165.62s74.29 165.62 165.62 165.62 165.62-74.29 165.62-165.62-74.29-165.62-165.62-165.62zm0 301.24c-74.78 0-135.62-60.84-135.62-135.62s60.84-135.62 135.62-135.62 135.62 60.84 135.62 135.62-60.84 135.62-135.62 135.62z" fill="#dae6fe"/><path d="m421.62 256c0 91.33-74.29 165.62-165.62 165.62v-30c74.78 0 135.62-60.84 135.62-135.62s-60.84-135.62-135.62-135.62v-30c91.33 0 165.62 74.29 165.62 165.62z" fill="#c0d7fe"/><path d="m317.041 316.202h-43.657v-30h43.657c4.187 0 7.593-3.406 7.593-7.593 0-4.188-3.406-7.594-7.593-7.594h-15.048c-20.738 0-37.609-16.871-37.609-37.608 0-10.052 3.916-19.5 11.026-26.604 7.103-7.097 16.542-11.005 26.581-11.005h.033l43.62.031-.021 30-43.622-.031c-.002 0-.005 0-.007 0-2.742 0-4.547 1.395-5.379 2.227-.833.832-2.231 2.639-2.231 5.383 0 4.195 3.414 7.608 7.609 7.608h15.048c20.729 0 37.593 16.864 37.593 37.594 0 20.728-16.864 37.592-37.593 37.592z" fill="#009a86"/><path d="m202.491 316.237c-24.882 0-45.125-20.243-45.125-45.125v-30.225c0-24.882 20.243-45.125 45.125-45.125s45.125 20.243 45.125 45.125v30.225c0 24.882-20.243 45.125-45.125 45.125zm0-90.474c-8.34 0-15.125 6.785-15.125 15.125v30.225c0 8.34 6.785 15.125 15.125 15.125s15.125-6.785 15.125-15.125v-30.225c0-8.34-6.785-15.125-15.125-15.125z" fill="#00ce6d"/></g></svg>