<svg height="512pt" viewBox="-34 0 512 512" width="512pt" xmlns="http://www.w3.org/2000/svg"><path d="m308.398438 50.058594-86.699219-50.058594-60 77.945312 60 77.941407 86.699219 50.058593 60-77.945312zm0 0" fill="#ffb820"/><path d="m308.398438 50.058594v255.996094h67.5l67.5-77.941407v-100.113281zm0 0" fill="#9255e3"/><path d="m443.398438 384v-155.886719l-221.699219 128 30 77.941407h105.003906zm0 0" fill="#2b1d73"/><path d="m221.699219 356.113281-30 77.941407 30 77.945312 135.003906-77.945312zm0 0" fill="#3857bc"/><path d="m135 306.054688h-60l60 155.886718 86.699219 50.058594v-155.886719zm0 0" fill="#3a6fd8"/><path d="m67.5 205.945312-67.5 77.941407v100.113281l135 77.941406v-255.996094zm0 0" fill="#28abfa"/><path d="m86.699219 77.945312v77.941407h135v-155.886719zm0 0" fill="#ffd06a"/><path d="m86.699219 77.945312-86.699219 50.054688v155.886719l221.699219-128zm0 0" fill="#94e368"/></svg>