<svg clip-rule="evenodd" fill-rule="evenodd" height="173.397mm" image-rendering="optimizeQuality" shape-rendering="geometricPrecision" text-rendering="geometricPrecision" viewBox="0 0 173.397 173.397" width="173.397mm" xmlns="http://www.w3.org/2000/svg"><g id="Layer_x0020_1"><g id="_276538232"><path id="_278370440" d="m136.402 162.443h-125.558v-151.488h125.558z" fill="#e4eaf8"/><g><path id="_224312704" d="m94.0398 62.1879.6475 2.2434c.8135.445 1.8429.1621 2.2989-.6318l7.123-15.7206 7.1231 15.7206c.456.7939 1.4853 1.0768 2.2989.6318l.6474-2.2434-8.5537-18.2026c-.1456-.2878-.3784-.5373-.6867-.7065-.814-.4468-1.8452-.165-2.303.6294z" fill="#f4af19" fill-rule="nonzero"/><path id="_276541400" d="m33.0679 62.1879.6474 2.2434c.8136.445 1.8429.1621 2.2989-.6318l7.1231-15.7206 7.123 15.7206c.456.7939 1.4854 1.0768 2.2989.6318l.6475-2.2434-8.5537-18.2026c-.1456-.2878-.3784-.5373-.6867-.7065-.814-.4468-1.8452-.165-2.303.6294z" fill="#f4af19" fill-rule="nonzero"/><path id="_276541112" d="m45.8309 43.9555 2.0598-5.7769c2.4105.2879 4.9317-.6241 7.2175-1.2706 5.221-1.4769 8.479-2.7528 12.257-2.0487l1.6911 2.2303-1.6911 4.1548c-3.2702-1.1109-5.632.0674-10.5372 1.455-3.8193 1.0802-6.9915 2.1184-10.9971 1.2561z" fill="#f4af19" fill-rule="nonzero"/><path id="_276541040" d="m101.416 43.9555-2.0598-5.7769c-2.4105.2879-4.9317-.6241-7.2175-1.2706-5.221-1.4769-8.4147-2.8559-12.1927-2.1518l-1.6911 2.7461 1.6911 3.639c3.2703-1.1109 5.5677.1705 10.4728 1.5581 3.8194 1.0802 6.9916 2.1184 10.9972 1.2561z" fill="#f4af19" fill-rule="nonzero"/><g fill="#be694f"><path id="_276540368" d="m79.9456 62.8634h-12.6447v-31.1287l6.2775-2.3723 6.3672 2.3723z"/><path id="_276540320" d="m79.9456 83.9688h-12.6447v-13.8904h12.6447z"/><ellipse id="_276540872" cx="104.109" cy="39.803" rx="5.035" ry="4.914"/><path id="_276540344" d="m114.179 62.1879h-20.1388v.9017c0 5.5382 4.5311 10.0693 10.0693 10.0693h.0002c5.5381 0 10.0693-4.5311 10.0693-10.0693z"/><ellipse id="_276540776" cx="43.137" cy="39.803" rx="5.035" ry="4.914"/><path id="_276540632" d="m33.0679 62.1879h20.1388v.9017c0 5.5382-4.5311 10.0693-10.0694 10.0693h-.0001c-5.5381 0-10.0693-4.5311-10.0693-10.0693z"/></g><path id="_276539864" d="m79.946 31.7347h-12.6452s.2059-4.9973 6.3229-9.7879c6.1164 4.7906 6.3223 9.7879 6.3223 9.7879z" fill="#f4af19"/><path id="_276539960" d="m67.3009 71.7287h12.6447c1.2371-1.4155 1.9844-3.251 1.9844-5.2574s-.7468-3.8426-1.9844-5.2582h-12.6447c-1.2376 1.4156-1.9844 3.2518-1.9844 5.2582s.7472 3.8419 1.9844 5.2574z" fill="#f4af19"/><path id="_276539768" d="m88.2633 82.3186h-29.2801c-2.6599 0-4.8363 1.9857-4.8363 4.4125v6.1078h38.9527v-6.1078c0-2.4269-2.1762-4.4125-4.8363-4.4125z" fill="#f4af19"/></g><path id="_276539504" d="m89.9175 144.027c-.0877.9278.5935 1.7512 1.5213 1.8389s1.7512-.5935 1.8389-1.5213c.0015-.0159.5321-5.5896 1.0344-4.9387 5.5764 7.2258 7.4183 5.3519 9.0462 3.6958.0389-.0395.0744-.0754.5434.4475.5946.663 1.224 1.1035 1.8661 1.3484 1.0364.3953 2.0499.3031 2.9867-.1793.7828-.4032 1.4735-1.0807 2.0321-1.9594.5081-.7994.9241-1.7934 1.2073-2.9092.7098.9598 1.6081 2.0645 2.77 3.1207 4.8914 4.4466 9.8516.8403 9.8659.8301.7598-.5406.9374-1.595.3968-2.3548s-1.595-.9374-2.3548-.3968c-.0079.0056-2.7748 2.019-5.6325-.5789-1.364-1.24-2.3534-2.6481-3.0643-3.6601-.8608-1.2253-1.452-2.067-2.5027-2.1983-1.4656-.1833-2.2235.7196-2.5342 3.205-.1588 1.2714-.523 2.3652-1.0091 3.1299-.5102.8025-.8335 1.1122-1.5137.3537-2.8726-3.2032-4.1059-1.949-5.4648-.5665-.3544.3605-.7555.7685-3.966-3.3916-5.7497-7.4504-7.0632 6.6446-7.067 6.6849z" fill="#e04141" fill-rule="nonzero"/><path id="_276540104" d="m21.9719 149.757c-.9352 0-1.6934.7582-1.6934 1.6934s.7582 1.6934 1.6934 1.6934h53.8011c.9352 0 1.6934-.7582 1.6934-1.6934s-.7582-1.6934-1.6934-1.6934zm68.0019 0c-.9352 0-1.6934.7582-1.6934 1.6934s.7582 1.6934 1.6934 1.6934h35.3009c.9352 0 1.6934-.7582 1.6934-1.6934s-.7582-1.6934-1.6934-1.6934zm-68.0019-14.9007c-.9352 0-1.6934.7582-1.6934 1.6934s.7582 1.6934 1.6934 1.6934h53.8011c.9352 0 1.6934-.7582 1.6934-1.6934s-.7582-1.6934-1.6934-1.6934zm0-14.9006c-.9352 0-1.6934.7582-1.6934 1.6934s.7582 1.6934 1.6934 1.6934h70.9717c.9352 0 1.6934-.7582 1.6934-1.6934s-.7582-1.6934-1.6934-1.6934zm0-14.9007c-.9352 0-1.6934.7582-1.6934 1.6934s.7582 1.6934 1.6934 1.6934h68.7548c.9352 0 1.6934-.7582 1.6934-1.6934s-.7582-1.6934-1.6934-1.6934z" fill="#2ca2fb" fill-rule="nonzero"/><g><path id="_276539240" d="m139.19 112.214-6.4721-.4028-1.5591 5.0396 14.8367 28.3616 8.2653.4021 2.0729-6.371c-5.7144-9.0095-11.4285-18.0197-17.1437-27.0295z" fill="#f4af19"/><g fill="#be694f"><path id="_276538784" d="m125.878 119.899-9.11-9.652-3.804-12.7165 18.592-10.7345 9.813 8.0344 3.102 14.3346z"/><path id="_276539168" d="m149.804 102.491-6.7715-7.8449-3.03-9.1317 5.0918-2.9398c.7748-.4473 1.775-.1791 2.2223.5956l8.1746 14.1588c.4473.7747.1792 1.7751-.5954 2.2223z"/><path id="_276539408" d="m117.432 121.181-.664-10.9344-9.1375-6.0423-5.0918 2.9397c-.7748.4474-1.0427 1.4477-.5954 2.2224l8.1746 14.1588c.4473.7747 1.4477 1.0427 2.2223.5955z"/><path id="_276539192" d="m150.594 154.002c1.6267 3.1096 5.6777 4.0906 8.7173 2.3359 2.9995-1.7319 4.235-5.7229 2.3358-8.7174l-5.3133-8.3774-10.3382 5.9689z"/><rect id="_276538256" height="9.737" rx="6.013" transform="matrix(.59 -.34 .411 .712 133.351 128.665)" width="25.4"/></g><path id="_276538016" d="m144.471 109.165-12.9145-22.3687c-.6659-1.1532-.2671-2.6415.8862-3.3073l.0001-.0001c2.6361-1.5219 6.0379-.6104 7.5599 2.0256l9.8015 16.9769c1.522 2.636.6105 6.0378-2.0257 7.5598-1.1533.6659-2.6416.2671-3.3075-.8862z" fill="#f4af19"/><path id="_276538304" d="m125.878 119.899-12.9146-22.3687c-.6658-1.1532-2.1541-1.552-3.3074-.8861-2.6361 1.522-3.5477 4.9238-2.0257 7.5598l9.8016 16.9769c1.5219 2.636 4.9237 3.5475 7.5598 2.0256l.0001-.0001c1.1533-.6658 1.5521-2.1541.8862-3.3074z" fill="#f4af19"/></g></g></g></svg>