<svg enable-background="new 0 0 64 64" height="512" viewBox="0 0 64 64" width="512" xmlns="http://www.w3.org/2000/svg"><g id="Icons"><g><g><path d="m40 4h-26l-10 10v42c0 2.209 1.791 4 4 4h32c2.209 0 4-1.791 4-4v-48c0-2.209-1.791-4-4-4z" fill="#f0f0f0"/></g><g><g><path d="m39 46h-30c-.552 0-1-.448-1-1 0-.552.448-1 1-1h30c.552 0 1 .448 1 1 0 .552-.448 1-1 1z" fill="#d2d2d2"/></g><g><path d="m39 50h-30c-.552 0-1-.448-1-1 0-.552.448-1 1-1h30c.552 0 1 .448 1 1 0 .552-.448 1-1 1z" fill="#d2d2d2"/></g><g><path d="m19 56h-10c-.552 0-1-.448-1-1 0-.552.448-1 1-1h10c.552 0 1 .448 1 1 0 .552-.448 1-1 1z" fill="#d2d2d2"/></g><g><path d="m39 56h-10c-.552 0-1-.448-1-1 0-.552.448-1 1-1h10c.552 0 1 .448 1 1 0 .552-.448 1-1 1z" fill="#d2d2d2"/></g></g><g><path d="m4 14h6c2.209 0 4-1.791 4-4v-6z" fill="#d2d2d2"/></g><g><g><path d="m34 19c0-5.523-4.477-10-10-10s-10 4.477-10 10c0 3.277 1.583 6.176 4.018 8h-.018v9.586c0 .891 1.077 1.337 1.707.707l4.293-4.293 4.293 4.293c.63.63 1.707.184 1.707-.707v-9.586h-.018c2.435-1.824 4.018-4.723 4.018-8z" fill="#d2d2d2"/></g><g><path d="m30 26h-12v9.586c0 .891 1.077 1.337 1.707.707l4.293-4.293 4.293 4.293c.63.63 1.707.184 1.707-.707z" fill="#c80a50"/></g><g><g><path d="m18 26.986c1.673 1.259 3.746 2.014 6 2.014s4.327-.755 6-2.014v-.986h-12z" fill="#a00028"/></g><g><circle cx="24" cy="18" fill="#fab400" r="10"/></g><path d="m26.728 17.651-4.97-1.242c-.446-.112-.758-.511-.758-.971v-.438c0-.552.449-1 1-1h4c.551 0 1 .448 1 1 0 .553.448 1 1 1s1-.447 1-1c0-1.654-1.346-3-3-3h-1v-1c0-.553-.448-1-1-1s-1 .447-1 1v1h-1c-1.654 0-3 1.346-3 3v.438c0 1.379.935 2.576 2.272 2.91l4.97 1.242c.446.113.758.512.758.972v.438c0 .552-.449 1-1 1h-4c-.551 0-1-.448-1-1 0-.553-.448-1-1-1s-1 .447-1 1c0 1.654 1.346 3 3 3h1v1c0 .553.448 1 1 1s1-.447 1-1v-1h1c1.654 0 3-1.346 3-3v-.438c0-1.379-.935-2.577-2.272-2.911z" fill="#be7800"/></g></g><g><path d="m28 39c0 8.837 7.163 16 16 16v-32c-8.837 0-16 7.163-16 16z" fill="#d2d2d2"/></g><g><circle cx="44" cy="38" fill="#0a5078" r="16"/></g><g><g><path d="m39 40.5c-.204 0-.396-.126-.47-.329l-3.53-9.708-3.53 9.708c-.094.26-.38.394-.641.299-.259-.094-.394-.381-.299-.641l4-11c.143-.395.797-.395.939 0l4 11c.095.26-.039.547-.299.641-.056.02-.113.03-.17.03z" fill="#f0f0f0"/></g><g><path d="m57 40.5c-.204 0-.396-.126-.47-.329l-3.53-9.708-3.53 9.708c-.094.26-.38.394-.641.299-.26-.094-.394-.381-.299-.641l4-11c.143-.395.797-.395.939 0l4 11c.095.26-.039.547-.299.641-.056.02-.113.03-.17.03z" fill="#f0f0f0"/></g><g><path d="m43 30h2v18h-2z" fill="#fab400"/></g><g><path d="m53 28h-18c-.552 0-1 .448-1 1 0 .552.448 1 1 1h18c.552 0 1-.448 1-1 0-.552-.448-1-1-1z" fill="#fab400"/></g><g><circle cx="44" cy="29" fill="#00a0c8" r="3"/></g><g><path d="m36 44h-2c-2.209 0-4-1.791-4-4 0-1.105.895-2 2-2h6c1.105 0 2 .895 2 2 0 2.209-1.791 4-4 4z" fill="#fab400"/></g><g><path d="m54 44h-2c-2.209 0-4-1.791-4-4 0-1.105.895-2 2-2h6c1.105 0 2 .895 2 2 0 2.209-1.791 4-4 4z" fill="#fab400"/></g><g><path d="m49 50h-10c-.552 0-1-.448-1-1 0-.552.448-1 1-1h10c.552 0 1 .448 1 1 0 .552-.448 1-1 1z" fill="#fab400"/></g></g></g></g></svg>