<svg id="Layer_1" height="512" viewBox="0 0 128 128" width="512" xmlns="http://www.w3.org/2000/svg"><g><g><g><g><g><g><path d="m64 104.793c-17.478-8.224-37.379-9.219-55.443-2.984-3.59 1.239-7.34-1.349-7.34-5.146v-63.419c0-2.795 1.685-5.341 4.285-6.369 18.853-7.455 40.029-6.837 58.498 1.854z" fill="#ff6f69"/></g></g></g></g><g><g><g><g><path d="m119.443 101.809c-18.064-6.235-37.966-5.241-55.444 2.984v-76.064c18.469-8.691 39.645-9.309 58.499-1.853 2.599 1.028 4.285 3.573 4.285 6.369v63.419c0 3.796-3.75 6.384-7.34 5.145z" fill="#ff6f69"/></g></g></g></g><g><g><g><g><path d="m64 100.271c-17.478-8.224-37.379-9.219-55.443-2.984-3.59 1.239-7.34-1.349-7.34-5.146v-63.419c0-2.795 1.685-5.341 4.285-6.369 18.853-7.454 40.029-6.837 58.498 1.854z" fill="#c9b77d"/></g></g></g></g><g><g><g><g><path d="m119.443 97.287c-18.064-6.235-37.966-5.241-55.444 2.984v-76.064c18.469-8.691 39.645-9.309 58.499-1.853 2.599 1.028 4.285 3.573 4.285 6.369v63.419c0 3.797-3.75 6.384-7.34 5.145z" fill="#c9b77d"/></g></g></g></g><g><g><g><g><path d="m64 92.781c-17.478-8.224-37.379-9.219-55.443-2.984-3.59 1.239-7.34-1.349-7.34-5.146v-63.419c0-2.795 1.685-5.341 4.285-6.369 18.853-7.455 40.029-6.837 58.498 1.854z" fill="#ffeead"/></g></g></g><g><g><g><g><path d="m54.181 24.864c-14.056-4.301-29.089-4.301-43.145 0-.772.236-1.4-.194-1.4-.973 0-.065 0-.129 0-.194 0-.779.628-1.624 1.4-1.86 14.056-4.301 29.089-4.301 43.145 0 .772.236 1.399 1.081 1.4 1.86v.194c-.001.779-.629 1.209-1.4.973z" fill="#b28559"/></g></g></g><g><g><g><path d="m54.181 34.066c-14.056-4.301-29.089-4.301-43.145 0-.772.236-1.4-.193-1.4-.973 0-.065 0-.129 0-.194 0-.779.628-1.624 1.4-1.86 14.056-4.301 29.089-4.301 43.145 0 .772.236 1.399 1.081 1.4 1.86v.194c-.001.78-.629 1.209-1.4.973z" fill="#b28559"/></g></g></g><g><g><g><path d="m54.181 43.269c-14.056-4.301-29.089-4.301-43.145 0-.772.236-1.4-.193-1.4-.973 0-.065 0-.129 0-.194 0-.779.628-1.624 1.4-1.86 14.056-4.301 29.089-4.301 43.145 0 .772.236 1.399 1.081 1.4 1.86v.194c-.001.779-.629 1.209-1.4.973z" fill="#b28559"/></g></g></g><g><g><g><path d="m54.181 52.472c-14.056-4.301-29.089-4.301-43.145 0-.772.236-1.4-.194-1.4-.973 0-.065 0-.129 0-.194 0-.779.628-1.624 1.4-1.86 14.056-4.301 29.089-4.301 43.145 0 .772.236 1.399 1.081 1.4 1.86v.194c-.001.779-.629 1.209-1.4.973z" fill="#b28559"/></g></g></g><g><g><g><path d="m54.181 61.674c-14.056-4.301-29.089-4.301-43.145 0-.772.236-1.4-.194-1.4-.973 0-.065 0-.129 0-.194 0-.779.628-1.624 1.4-1.86 14.056-4.301 29.089-4.301 43.145 0 .772.236 1.399 1.081 1.4 1.86v.194c-.001.78-.629 1.209-1.4.973z" fill="#b28559"/></g></g></g><g><g><g><path d="m54.181 70.877c-14.056-4.301-29.089-4.301-43.145 0-.772.236-1.4-.194-1.4-.973 0-.065 0-.129 0-.194 0-.779.628-1.624 1.4-1.86 14.056-4.301 29.089-4.301 43.145 0 .772.236 1.399 1.081 1.4 1.86v.194c-.001.779-.629 1.209-1.4.973z" fill="#b28559"/></g></g></g><g><g><g><path d="m54.181 80.079c-14.056-4.301-29.089-4.301-43.145 0-.772.236-1.4-.194-1.4-.973 0-.065 0-.129 0-.194 0-.779.628-1.624 1.4-1.86 14.056-4.301 29.089-4.301 43.145 0 .772.236 1.399 1.081 1.4 1.86v.194c-.001.78-.629 1.209-1.4.973z" fill="#b28559"/></g></g></g></g></g><g><g><g><g><path d="m119.443 89.797c-18.064-6.235-37.965-5.24-55.443 2.984v-76.064c18.469-8.691 39.645-9.309 58.499-1.853 2.599 1.028 4.285 3.573 4.285 6.369v63.419c-.001 3.797-3.751 6.384-7.341 5.145z" fill="#ffeead"/></g></g></g><g><g><g><g><path d="m116.964 24.864c-14.056-4.301-29.089-4.301-43.145 0-.772.236-1.4-.194-1.4-.973 0-.065 0-.129 0-.194 0-.779.628-1.624 1.4-1.86 14.056-4.301 29.089-4.301 43.145 0 .772.236 1.399 1.081 1.4 1.86v.194c-.001.779-.628 1.209-1.4.973z" fill="#b28559"/></g></g></g><g><g><g><path d="m116.964 34.066c-14.056-4.301-29.089-4.301-43.145 0-.772.236-1.4-.193-1.4-.973 0-.065 0-.129 0-.194 0-.779.628-1.624 1.4-1.86 14.056-4.301 29.089-4.301 43.145 0 .772.236 1.399 1.081 1.4 1.86v.194c-.001.78-.628 1.209-1.4.973z" fill="#b28559"/></g></g></g><g><g><g><path d="m116.964 43.269c-14.056-4.301-29.089-4.301-43.145 0-.772.236-1.4-.193-1.4-.973 0-.065 0-.129 0-.194 0-.779.628-1.624 1.4-1.86 14.056-4.301 29.089-4.301 43.145 0 .772.236 1.399 1.081 1.4 1.86v.194c-.001.779-.628 1.209-1.4.973z" fill="#b28559"/></g></g></g><g><g><g><path d="m116.964 52.472c-14.056-4.301-29.089-4.301-43.145 0-.772.236-1.4-.194-1.4-.973 0-.065 0-.129 0-.194 0-.779.628-1.624 1.4-1.86 14.056-4.301 29.089-4.301 43.145 0 .772.236 1.399 1.081 1.4 1.86v.194c-.001.779-.628 1.209-1.4.973z" fill="#b28559"/></g></g></g><g><g><g><path d="m116.964 61.674c-14.056-4.301-29.089-4.301-43.145 0-.772.236-1.4-.194-1.4-.973 0-.065 0-.129 0-.194 0-.779.628-1.624 1.4-1.86 14.056-4.301 29.089-4.301 43.145 0 .772.236 1.399 1.081 1.4 1.86v.194c-.001.78-.628 1.209-1.4.973z" fill="#b28559"/></g></g></g><g><g><g><path d="m116.964 70.877c-14.056-4.301-29.089-4.301-43.145 0-.772.236-1.4-.194-1.4-.973 0-.065 0-.129 0-.194 0-.779.628-1.624 1.4-1.86 14.056-4.301 29.089-4.301 43.145 0 .772.236 1.399 1.081 1.4 1.86v.194c-.001.779-.628 1.209-1.4.973z" fill="#b28559"/></g></g></g><g><g><g><path d="m116.964 80.079c-14.056-4.301-29.089-4.301-43.145 0-.772.236-1.4-.194-1.4-.973 0-.065 0-.129 0-.194 0-.779.628-1.624 1.4-1.86 14.056-4.301 29.089-4.301 43.145 0 .772.236 1.399 1.081 1.4 1.86v.194c-.001.78-.628 1.209-1.4.973z" fill="#b28559"/></g></g></g></g></g></g><g><g><g><g><path d="m65.261 21.179c-1.568-.527-3.156-.974-4.77-1.277 1.603.649 3.195 1.336 4.77 2.076z" fill="#ffeead"/></g></g></g><g><g><g><path d="m65.261 21.978c-1.575-.74-3.167-1.428-4.77-2.076-6.812-1.281-13.92-.567-20.399 2.129 4.237.684 8.44 1.644 12.576 2.909.99.302 1.795 1.385 1.795 2.383v.249c0 .999-.805 1.549-1.795 1.246-6.045-1.848-12.233-3.062-18.466-3.671-1.997 1.316-3.893 2.85-5.649 4.607-.916.917-1.764 1.875-2.56 2.862 8.996.094 17.982 1.458 26.676 4.116.99.302 1.795 1.386 1.795 2.384v.248c0 .999-.805 1.549-1.795 1.247-9.562-2.924-19.476-4.28-29.369-4.103-1.552 2.558-2.78 5.255-3.631 8.049 11.092-.626 22.268.686 33.001 3.968.99.302 1.795 1.385 1.795 2.384v.248c0 .998-.805 1.549-1.795 1.246-11.042-3.376-22.554-4.674-33.96-3.914-.484 2.623-.645 5.287-.539 7.944 11.582-.838 23.283.455 34.499 3.884.99.303 1.795 1.386 1.795 2.384v.249c0 .998-.805 1.549-1.795 1.246-11.098-3.393-22.67-4.689-34.133-3.905.397 2.654 1.069 5.272 2.064 7.799 10.786-.502 21.637.83 32.068 4.019.99.302 1.795 1.385 1.795 2.384v.248c0 .999-.805 1.549-1.795 1.247-9.862-3.016-20.099-4.369-30.3-4.086 1.527 2.836 3.475 5.501 5.825 7.924 8.259.279 16.491 1.633 24.476 4.075.99.302 1.795 1.386 1.795 2.384v.248c0 .999-.805 1.549-1.795 1.247-6.413-1.961-12.986-3.211-19.604-3.776 9.479 6.793 21.505 8.393 32.197 4.8v-66.826z" fill="#ffeead"/></g></g></g><g><g><g><path d="m54.463 27.572c0-.083 0-.166 0-.249 0-.998-.805-2.081-1.795-2.383-4.135-1.265-8.339-2.225-12.576-2.909-2.034.847-4.01 1.878-5.89 3.117 6.233.609 12.42 1.822 18.466 3.671.989.302 1.794-.248 1.795-1.247z" fill="#b28559"/></g></g></g><g><g><g><path d="m52.667 40.611c.99.302 1.795-.248 1.795-1.247 0-.083 0-.166 0-.248 0-.998-.805-2.082-1.795-2.384-8.694-2.658-17.68-4.021-26.676-4.116-1.004 1.245-1.882 2.554-2.694 3.892 9.894-.177 19.809 1.18 29.37 4.103z" fill="#b28559"/></g></g></g><g><g><g><path d="m52.667 52.404c.99.303 1.795-.248 1.795-1.246 0-.083 0-.166 0-.248 0-.998-.805-2.082-1.795-2.384-10.732-3.282-21.909-4.593-33.001-3.968-.395 1.296-.715 2.607-.959 3.932 11.407-.76 22.919.538 33.96 3.914z" fill="#b28559"/></g></g></g><g><g><g><path d="m52.667 64.197c.99.303 1.795-.248 1.795-1.246 0-.083 0-.166 0-.249 0-.998-.805-2.081-1.795-2.384-11.216-3.429-22.916-4.722-34.499-3.884.052 1.292.175 2.578.366 3.859 11.464-.786 23.036.51 34.133 3.904z" fill="#b28559"/></g></g></g><g><g><g><path d="m52.667 75.99c.99.302 1.795-.248 1.795-1.247 0-.083 0-.166 0-.248 0-.998-.805-2.082-1.795-2.384-10.432-3.19-21.283-4.521-32.068-4.019.511 1.298 1.099 2.57 1.768 3.813 10.202-.285 20.439 1.069 30.3 4.085z" fill="#b28559"/></g></g></g><g><g><g><path d="m54.463 86.535c0-.083 0-.166 0-.248 0-.998-.805-2.081-1.795-2.384-7.985-2.442-16.216-3.796-24.476-4.075.138.142.256.297.397.438 1.404 1.401 2.914 2.621 4.475 3.74 6.618.565 13.19 1.815 19.604 3.776.989.302 1.794-.248 1.795-1.247z" fill="#b28559"/></g></g></g><g><g><g><path d="m66.276 21.533c-.337-.124-.675-.24-1.015-.354v.799c.336-.157.678-.292 1.015-.445z" fill="#ffeead"/></g></g></g><g><g><g><path d="m65.261 21.979v66.828c5.071-1.704 9.845-4.538 13.882-8.576 1.814-1.815 3.38-3.782 4.722-5.852-2.016.474-4.021 1.003-6.01 1.612-.99.302-1.795-.248-1.795-1.247 0-.083 0-.166 0-.248 0-.998.805-2.082 1.795-2.384 2.775-.848 5.582-1.55 8.407-2.137 1.257-2.717 2.184-5.546 2.721-8.442-3.746.664-7.464 1.545-11.128 2.665-.99.302-1.795-.248-1.795-1.246 0-.083 0-.166 0-.249 0-.998.805-2.081 1.795-2.384 3.823-1.169 7.705-2.074 11.617-2.748.189-2.623.078-5.257-.31-7.862-3.807.668-7.585 1.558-11.308 2.696-.99.303-1.795-.248-1.795-1.246 0-.083 0-.166 0-.248 0-.998.805-2.082 1.795-2.384 3.474-1.062 6.995-1.915 10.544-2.568-.658-2.523-1.572-4.991-2.791-7.349-2.604.561-5.193 1.22-7.754 2.003-.99.302-1.795-.248-1.795-1.247 0-.083 0-.166 0-.248 0-.998.805-2.082 1.795-2.384 1.9-.581 3.815-1.086 5.74-1.545-1.29-1.93-2.782-3.766-4.488-5.469-.34-.34-.709-.632-1.059-.955-.064.019-.128.035-.192.055-.99.303-1.795-.248-1.795-1.246 0-.083 0-.166 0-.249 0-.086.037-.173.049-.26-3.023-2.411-6.348-4.241-9.833-5.53-.336.151-.678.286-1.014.444z" fill="#ffeead"/></g></g></g><g><g><g><path d="m65.261 21.978c0-.266 0-.533 0-.799z" fill="#ffeead"/></g></g></g><g><g><g><path d="m65.261 21.979v-.001z" fill="#ffeead"/></g></g></g><g><g><g><path d="m65.261 21.978v.001z" fill="#ffeead"/></g></g></g><g><g><g><path d="m65.261 21.979v66.828c0-22.276 0-44.552 0-66.828z" fill="#ffeead"/></g></g></g><g><g><g><path d="m76.06 27.572c0 .999.805 1.549 1.795 1.246.064-.02.128-.036.192-.055-.636-.586-1.272-1.169-1.939-1.701-.012.087-.049.174-.049.26.001.084.001.167.001.25z" fill="#99734a"/></g></g></g><g><g><g><path d="m76.06 39.116v.248c0 .999.805 1.549 1.795 1.247 2.561-.783 5.149-1.442 7.754-2.003-.604-1.169-1.272-2.311-2.014-3.421-1.924.459-3.84.964-5.74 1.545-.99.303-1.795 1.386-1.795 2.384z" fill="#99734a"/></g></g></g><g><g><g><path d="m76.06 50.909v.248c0 .998.805 1.549 1.795 1.246 3.722-1.138 7.5-2.028 11.308-2.696-.188-1.261-.44-2.512-.763-3.751-3.549.653-7.07 1.505-10.544 2.568-.991.303-1.796 1.387-1.796 2.385z" fill="#b28559"/></g></g></g><g><g><g><path d="m76.06 62.701v.249c0 .998.805 1.549 1.795 1.246 3.664-1.12 7.381-2.001 11.128-2.665.243-1.312.394-2.634.49-3.961-3.912.673-7.794 1.579-11.617 2.748-.991.302-1.796 1.385-1.796 2.383z" fill="#b28559"/></g></g></g><g><g><g><path d="m76.06 74.494v.248c0 .999.805 1.549 1.795 1.247 1.988-.608 3.994-1.138 6.01-1.612.92-1.418 1.7-2.897 2.397-4.405-2.825.587-5.632 1.289-8.407 2.137-.99.304-1.795 1.387-1.795 2.385z" fill="#99734a"/></g></g></g></g><g><g><g><g><path d="m93.305 86.599-9.727-9.708c-1.026 1.358-2.149 2.667-3.386 3.905-1.238 1.24-2.547 2.366-3.906 3.396l9.728 9.709c1.588 1.586 4.185 1.584 5.771-.004l1.524-1.527c1.586-1.589 1.584-4.185-.004-5.771z" fill="#96ceb4"/></g></g></g><g><g><g><g><g><path d="m115.763 106.038-18.185-18.159c-2.632-2.629-6.937-2.626-9.565.007l-.72.721c-2.629 2.632-2.625 6.937.007 9.565l18.185 18.159c2.632 2.629 6.937 2.625 9.565-.007l.72-.721c2.628-2.632 2.625-6.937-.007-9.565z" fill="#ff6f69"/></g></g></g></g></g><g><g><g><g><g><path d="m96.179 83.541c-1.637-1.635-4.315-1.633-5.95.004l-7.274 7.284c-1.635 1.637-1.633 4.315.004 5.95s4.315 1.633 5.95-.004l7.274-7.284c1.635-1.638 1.633-4.315-.004-5.95z" fill="#e05858"/></g></g></g></g></g><g><g><g><g><g><path d="m80.154 28.15c-14.548-14.527-38.118-14.51-52.646.038-14.527 14.548-14.51 38.118.038 52.646 14.548 14.527 38.118 14.51 52.646-.038s14.51-38.119-.038-52.646zm-5.087 47.528c-11.701 11.718-30.686 11.732-42.404.031s-11.732-30.686-.031-42.404 30.686-11.732 42.404-.031c11.719 11.701 11.732 30.687.031 42.404z" fill="#96ceb4"/></g></g></g><g><g><g><path d="m80.192 80.796c-1.238 1.24-2.545 2.365-3.903 3.393l2.145 2.141c1.357-1.028 2.664-2.153 3.901-3.392s2.361-2.548 3.387-3.908l-2.145-2.14c-1.026 1.359-2.149 2.667-3.385 3.906z" fill="#71a58a"/></g></g></g><g><g><g><path d="m73.543 34.77c-10.892-10.876-28.539-10.864-39.415.028s-10.863 28.539.029 39.415 28.539 10.864 39.415-.028 10.863-28.539-.029-39.415zm-1.361 38.028c-10.11 10.125-26.514 10.137-36.639.026-10.125-10.11-10.136-26.514-.026-36.639s26.514-10.137 36.639-.026c10.125 10.11 10.137 26.514.026 36.639z" fill="#c9b77d"/></g></g></g><g><g><g><path d="m75.037 33.274c-11.718-11.701-30.703-11.688-42.404.031-11.701 11.718-11.687 30.703.031 42.404s30.703 11.687 42.404-.031 11.687-30.703-.031-42.404zm-1.464 40.912c-10.877 10.893-28.525 10.905-39.417.028-10.893-10.877-10.906-28.524-.029-39.417s28.524-10.905 39.417-.028 10.906 28.524.029 39.417z" fill="#fff"/></g></g></g></g></g></g></g></svg>