<svg clip-rule="evenodd" fill-rule="evenodd" height="512" image-rendering="optimizeQuality" shape-rendering="geometricPrecision" text-rendering="geometricPrecision" viewBox="0 0 512 512" width="512" xmlns="http://www.w3.org/2000/svg" xmlns:xodm="http://www.corel.com/coreldraw/odm/2003"><g id="Layer_x0020_1"><g id="_2023805710160"><path d="m356.76 504.53h-349.64c-3.87 0-7-3.14-7-7v-444.57c0-3.86 3.13-6.99 7-6.99h349.64c3.86 0 7 3.13 7 6.99v444.57c0 3.86-3.14 7-7 7z" fill="#fda23a"/><path d="m326.8 475.94h-289.72c-3.87 0-7-3.13-7-7v-387.39c0-3.86 3.13-6.99 7-6.99h289.72c3.86 0 7 3.13 7 6.99v114.24c0 1.22-.33 2.43-.94 3.49l-72.68 125.9-11.42 92.81 73.71-58.19c2.1-1.66 4.97-1.98 7.38-.81 2.42 1.17 3.95 3.62 3.95 6.3v103.65c0 3.87-3.14 7-7 7z" fill="#d6e7ec"/><path d="m30.08 315.69v-186.66h202.32c3.86 0 7 3.13 7 7v172.66c0 3.87-3.14 7-7 7z" fill="#ecf2f3"/><path d="m201.47 315.69h-133.47v-46.43c0-25.6 20.83-46.43 46.43-46.43h40.6c25.61 0 46.44 20.83 46.44 46.43z" fill="#76cef5"/><path d="m263.2 108.92h-162.52c-6.35 0-11.51-5.16-11.51-11.5v-54.59c0-6.35 5.16-11.51 11.51-11.51h162.52c6.34 0 11.5 5.16 11.5 11.5v54.6c0 6.34-5.16 11.5-11.5 11.5z" fill="#9cb0b8"/><path d="m200.92 77.12h-37.97c-3.86 0-6.99-3.14-6.99-7s3.13-7 6.99-7h37.97c3.87 0 7 3.14 7 7s-3.13 7-7 7z" fill="#fff"/><g fill="#9cb0b8"><path d="m231.65 357.45h-156.67c-3.87 0-7-3.13-7-7 0-3.86 3.13-6.99 7-6.99h156.67c3.87 0 7 3.13 7 6.99 0 3.87-3.13 7-7 7z"/><path d="m218.69 399.24h-146.24c-3.86 0-7-3.14-7-7 0-3.87 3.14-7 7-7h146.24c3.87 0 7 3.13 7 7 0 3.86-3.13 7-7 7z"/><path d="m259.75 441.02h-187.3c-3.86 0-7-3.13-7-7 0-3.86 3.14-6.99 7-6.99h187.3c3.87 0 7 3.13 7 6.99 0 3.87-3.13 7-7 7z"/></g><path d="m134.73 207.46c-15.88 0-28.8-12.91-28.8-28.8 0-15.88 12.92-28.8 28.8-28.8s28.8 12.92 28.8 28.8c0 15.89-12.92 28.8-28.8 28.8z" fill="#ffb88a"/><path d="m239.73 441.02c-1.17 0-2.35-.3-3.42-.9-2.48-1.39-3.86-4.14-3.52-6.95l13.67-111.11c.28-2.33 1.72-4.36 3.82-5.41s4.59-.97 6.62.2l73.4 42.38c2.01 1.16 3.31 3.24 3.48 5.55.17 2.32-.82 4.56-2.65 6l-87.06 68.74c-1.26.99-2.79 1.5-4.34 1.5z" fill="#ffcfcf"/><path d="m472.42 120.05c-1.18 0-2.39-.3-3.49-.94l-73.4-42.38c-3.34-1.93-4.49-6.21-2.56-9.55l32.45-56.21c.93-1.61 2.46-2.78 4.25-3.26s3.7-.23 5.31.7l73.4 42.38c3.35 1.93 4.49 6.21 2.56 9.55l-32.45 56.21c-1.3 2.24-3.65 3.5-6.07 3.5z" fill="#c2d0da"/><path d="m247.34 319.41 145.63-252.23 85.52 49.37-145.63 252.24z" fill="#fb6470"/></g></g></svg>