<svg id="Layer_1" enable-background="new 0 0 500 500" viewBox="0 0 500 500" xmlns="http://www.w3.org/2000/svg"><g clip-rule="evenodd" fill-rule="evenodd"><path d="m466 349.86v70.859c0 3.479-2.821 6.3-6.3 6.3s-6.3-2.821-6.3-6.3v-70.859h-406.8v70.859c0 3.479-2.821 6.3-6.3 6.3s-6.3-2.821-6.3-6.3v-212.608c0-11.02 9.016-20.035 20.035-20.035h391.929c11.02 0 20.035 9.016 20.035 20.035v141.749z" fill="#d6b4a8"/><path d="m385.095 267.157h40.181c5.14 0 9.345 4.205 9.345 9.345v17.846c0 5.14-4.205 9.345-9.345 9.345h-71.893c-5.14 0-9.345-4.205-9.345-9.345v-8.383l-25.456 20.367c-3.6 2.88-4.493 7.91-2.107 11.854l19.169 31.674h-29.341l-16.307-26.945c-14.226-23.508-17.984-36.985 1.966-54.085l53.599-45.941-14.878-21.963h-72.595c-7.421 0-13.587-5.643-14.422-12.85h163.268l.075 15.034 18.588 3.083.711 22.878c.163 5.234-2.087 9.809-6.331 12.876zm-312.512 0h1.487c-4.817-9.442-6.264-30.416-6.264-37.477v-41.604h75.591v40.8c0 23.663 63.329 54.004 54.697 77.683l-15.783 43.302h-35.323l12.279-33.687c1.436-3.94-.382-7.64-3.345-10.607l-4.732-4.737c-1.702 1.762-4.086 2.863-6.715 2.863h-71.892c-5.14 0-9.345-4.205-9.345-9.345v-17.846c0-5.14 4.205-9.345 9.345-9.345zm76.6-79.081 16.69 13.249h51.424c7.557 0 13.813-5.852 14.462-13.249z" fill="#c89d8d"/><path d="m181.746 171.819 35.282-70.564h54.883l-35.282 70.564z" fill="#ccc"/><path d="m181.746 171.819 11.41-22.82.085.138h42.506c3.938 0 7.521 1.589 10.144 4.157l-9.262 18.525z" fill="#b3b3b3"/><path d="m397.771 284.772v121.328l49.582 37.51c2.772 2.093 3.323 6.038 1.23 8.81s-6.038 3.323-8.81 1.23l-48.302-36.542-48.302 36.542c-2.772 2.093-6.717 1.542-8.81-1.23s-1.542-6.717 1.23-8.81l49.582-37.51v-121.328z" fill="#685e68"/><path d="m114.829 284.772v121.328l49.582 37.51c2.772 2.093 3.323 6.038 1.23 8.81s-6.038 3.323-8.81 1.23l-48.302-36.542-48.302 36.542c-2.772 2.093-6.717 1.542-8.81-1.23s-1.542-6.717 1.23-8.81l49.582-37.51v-121.328z" fill="#685e68"/><path d="m72.583 258.607h71.893c5.14 0 9.345 4.205 9.345 9.345v17.846c0 5.14-4.205 9.345-9.345 9.345h-71.893c-5.14 0-9.345-4.205-9.345-9.345v-17.846c0-5.14 4.205-9.345 9.345-9.345z" fill="#ffbf31"/><path d="m72.583 258.607h71.893c.92 0 1.811.135 2.652.386.347 1.801.168 16.62.168 19.604 0 5.14-4.205 9.345-9.345 9.345h-71.893c-.92 0-1.811-.135-2.652-.386-.347-1.801-.168-16.62-.168-19.604 0-5.14 4.205-9.345 9.345-9.345z" fill="#ffe177"/><path d="m187.392 159.037h42.506c7.985 0 14.519 6.534 14.519 14.52 0 7.985-6.534 14.519-14.519 14.519h-51.424l-22.476-17.842v45.392c0 23.663 63.329 54.004 54.698 77.683l-24.409 66.965c-2.974 8.158-12.053 12.387-20.212 9.413l-1.555-.567c-8.158-2.974-12.388-12.053-9.414-20.212l16.762-45.985c1.436-3.94-.382-7.64-3.345-10.607l-29.614-29.644c-3.238-1.997-6.885-3.534-11.41-4.084l-35.403.018c-9.22.004-11.689-32.954-11.689-42.176v-81.96c0-15.081 12.3-27.381 27.381-27.381h33.363c7.152 0 14.797 1.173 18.563 7.252z" fill="#19cfba"/><ellipse cx="122.811" cy="72.044" fill="#f0b16e" rx="26.964" ry="26.964" transform="matrix(.145 -.989 .989 .145 33.683 183.08)"/><path d="m116.061 98.156c-11.625-2.997-20.214-13.551-20.214-26.112s8.589-23.116 20.214-26.112c11.625 2.996 20.214 13.551 20.214 26.112 0 12.56-8.589 23.115-20.214 26.112z" fill="#fcd4a9"/><path d="m355.524 258.607h71.893c5.14 0 9.345 4.205 9.345 9.345v17.846c0 5.14-4.205 9.345-9.345 9.345h-71.893c-5.14 0-9.345-4.205-9.345-9.345v-17.846c0-5.14 4.206-9.345 9.345-9.345z" fill="#ffbf31"/><path d="m355.524 258.607h71.893c.685 0 1.354.076 1.998.217.385 1.021.597 2.126.597 3.278v17.845c0 5.14-4.205 9.345-9.345 9.345h-71.893c-.685 0-1.354-.076-1.998-.217-.385-1.021-.597-2.126-.597-3.278v-17.846c0-5.139 4.206-9.344 9.345-9.344z" fill="#ffe177"/><ellipse cx="381.308" cy="72.044" fill="#f0b16e" rx="26.964" ry="26.964" transform="matrix(.999 -.056 .056 .999 -3.41 21.268)"/><path d="m374.558 45.931c-11.625 2.996-20.214 13.551-20.214 26.112s8.589 23.116 20.214 26.112c11.625-2.996 20.214-13.551 20.214-26.112 0-12.56-8.589-23.115-20.214-26.112z" fill="#fcd4a9"/><path d="m418.913 228.663c5.303-4.169 7.818-11.06 6.701-18.152l-.342-88.822c-.037-7.545-5.033-14.599-12.966-14.599h-46.521c-9.484 0-18.358 6.709-23.049 14.692l-21.894 37.256h-44.15c-7.986 0-14.519 6.533-14.519 14.519 0 7.985 6.534 14.519 14.519 14.519h64.045l16.805-19.187.734 58.553-53.19 49.221c-10.143 8.115-12.662 22.289-5.936 33.402l31.273 51.675c4.726 7.808 14.98 10.33 22.788 5.605s10.33-14.979 5.605-22.787l-23.736-39.221c-2.387-3.944-1.493-8.974 2.107-11.854 27.181-21.748 54.389-43.331 81.726-64.82z" fill="#88c8fe"/></g></svg>