<svg height="480pt" viewBox="0 0 480 480" width="480pt" xmlns="http://www.w3.org/2000/svg"><path d="m16 192h320v152h-320zm0 0" fill="#999"/><path d="m16 192h296v152h-296zm0 0" fill="#b3b3b3"/><path d="m0 336h352v32h-352zm0 0" fill="#534741"/><path d="m0 336h328v32h-328zm0 0" fill="#736357"/><path d="m48 224h32v80h-32zm0 0" fill="#54bce8"/><path d="m48 224h16v80h-16zm0 0" fill="#7fcdee"/><path d="m144 288h64v48h-64zm0 0" fill="#998675"/><path d="m144 288h40v48h-40zm0 0" fill="#c7b299"/><path d="m144 256h64v32h-64zm0 0" fill="#2b8838"/><path d="m144 256h40v32h-40zm0 0" fill="#39b54a"/><path d="m160 416h160v32h-160zm0 0" fill="#754c24"/><path d="m160 416h136v32h-136zm0 0" fill="#8c6239"/><path d="m144 448h192v32h-192zm0 0" fill="#8c6239"/><path d="m144 448h168v32h-168zm0 0" fill="#a67c52"/><path d="m368 272h112v64h-112zm0 0" fill="#42210b"/><path d="m368 272h32v64h-32zm0 0" fill="#a67c52"/><path d="m272 288h96v32h-96" fill="#a67c52"/><path d="m272 288h72v32h-72zm0 0" fill="#c69c6d"/><path d="m240 192h32v144h-32zm0 0" fill="#4d4d4d"/><path d="m240 192h16v144h-16zm0 0" fill="#666"/><path d="m208 256h64v96h-64zm0 0" fill="#754c24"/><path d="m208 256h40v96h-40zm0 0" fill="#8c6239"/><path d="m192 352h96v32h-96zm0 0" fill="#8c6239"/><path d="m192 352h72v32h-72zm0 0" fill="#a67c52"/><path d="m192 224h96v32h-96zm0 0" fill="#8c6239"/><path d="m192 224h72v32h-72zm0 0" fill="#a67c52"/><path d="m80 192h32v144h-32zm0 0" fill="#4d4d4d"/><path d="m80 192h16v144h-16zm0 0" fill="#666"/><path d="m0 160h352v32h-352zm0 0" fill="#534741"/><path d="m0 160h328v32h-328zm0 0" fill="#736357"/><path d="m64 128h224v32h-224zm0 0" fill="#998675"/><path d="m64 128h200v32h-200zm0 0" fill="#c7b299"/><path d="m48 128 128-128 128 128zm0 0" fill="#155874"/><path d="m48 128h224l-112-112zm0 0" fill="#447990"/><path d="m200 72c0 13.253906-10.746094 24-24 24s-24-10.746094-24-24 10.746094-24 24-24 24 10.746094 24 24zm0 0" fill="#911d22"/><path d="m184 72c0-12.441406-7.164062-22.527344-16-22.527344s-16 10.085938-16 22.527344 7.164062 22.527344 16 22.527344 16-10.085938 16-22.527344zm0 0" fill="#c1272d"/></svg>