<svg id="Capa_1" enable-background="new 0 0 512 512" height="512" viewBox="0 0 512 512" width="512" xmlns="http://www.w3.org/2000/svg"><g><g><g><path d="m391.469 30.905v320.716c-211.938-17.777-302.726-133.389-256.392-351.621h225.486c17.07 0 30.906 13.835 30.906 30.905z" fill="#fff8e6"/><path d="m391.469 351.621v129.473c0 17.069-13.837 30.905-30.905 30.905h-257.546c-19.63-50.453-54.547-84.16-103.018-103.017v-378.077c0-17.068 13.837-30.905 30.905-30.905h104.172c1.432 179.622 88.441 298.289 256.392 351.621z" fill="#fff1cf"/></g><path d="m103.018 512v-72.113c0-17.069-13.837-30.905-30.905-30.905h-72.113z" fill="#ffd9a0"/><g><g fill="#7fb0e4"><path d="m309.054 265.272h-226.64c-4.267 0-7.726-3.459-7.726-7.726 0-4.268 3.459-7.726 7.726-7.726h226.64c4.267 0 7.726 3.459 7.726 7.726.001 4.267-3.459 7.726-7.726 7.726z"/><path d="m309.054 306.479h-226.64c-4.267 0-7.726-3.459-7.726-7.726s3.459-7.726 7.726-7.726h226.64c4.267 0 7.726 3.459 7.726 7.726s-3.459 7.726-7.726 7.726z"/><path d="m257.545 347.686h-175.131c-4.267 0-7.726-3.459-7.726-7.726s3.459-7.726 7.726-7.726h175.131c4.267 0 7.726 3.459 7.726 7.726s-3.459 7.726-7.726 7.726z"/></g><path d="m223.929 224.064c4.267 0 7.726-3.459 7.726-7.726s-3.459-7.726-7.726-7.726h-33.096c-3.207 5.436-.183 10.6 10.653 15.453h22.443z" fill="#93bce8"/><path d="m74.688 216.338c0 4.268 3.459 7.726 7.726 7.726h119.072c-3.704-5.035-7.255-10.186-10.653-15.453h-108.419c-4.267.001-7.726 3.459-7.726 7.727z" fill="#7fb0e4"/></g><g><g><path d="m195.734 138.71c15.299 0 28.924 10.385 37.493-7.331 8.693-17.971-10.776-44.637-37.493-44.637s-46.186 26.666-37.493 44.637c8.569 17.716 22.194 7.331 37.493 7.331z" fill="#666667"/></g><path d="m142.892 100.262c-2.156 0-4.3-.897-5.828-2.651-2.34-2.685-5.718-4.225-9.267-4.225s-6.927 1.54-9.267 4.225c-2.803 3.218-7.684 3.551-10.901.749-3.217-2.803-3.552-7.683-.749-10.9 5.275-6.054 12.899-9.527 20.917-9.527s15.642 3.473 20.917 9.527c2.803 3.217 2.468 8.098-.749 10.9-1.463 1.276-3.272 1.902-5.073 1.902z" fill="#666667"/><path d="m278.767 100.262c-2.156 0-4.3-.897-5.828-2.651-2.34-2.685-5.718-4.225-9.267-4.225s-6.927 1.54-9.268 4.226c-2.804 3.215-7.686 3.55-10.901.748-3.217-2.804-3.552-7.684-.749-10.901 5.276-6.054 12.9-9.526 20.917-9.526 8.018 0 15.642 3.473 20.917 9.527 2.803 3.217 2.468 8.098-.749 10.9-1.463 1.276-3.272 1.902-5.072 1.902z" fill="#666667"/><g fill="#ffa1ac"><ellipse cx="113.777" cy="124.853" rx="30.241" ry="24.082"/><ellipse cx="277.692" cy="124.853" rx="30.241" ry="24.082"/></g></g></g><g><g><path d="m503.254 61.522-37.035 37.035c-32.604 7.454-46.33-7.523-33.893-51.252l28.176-28.186c11.765-11.754 30.823-11.754 42.577 0l.175.175c11.661 11.663 11.661 30.567 0 42.228z" fill="#97a4b2"/><path d="m466.219 98.557-74.894 74.904-10.725-23.94-15.308-35.191 67.023-67.024h.01c.001 28.954 11.982 46.008 33.894 51.251z" fill="#8697a6"/></g><g><path d="m423.273 172.308-57.976-57.976-75.982 75.982c-19.294 64.317 6.717 92.644 69.704 89.955l64.254-64.254c12.069-12.07 12.069-31.638 0-43.707z" fill="#c2eafb"/><path d="m289.315 190.313-135.665 135.665c-8.682 8.682-6.775 23.234 3.851 29.386 47.216 27.336 106.91 19.513 145.488-19.065l56.03-56.03c-45.386-12.778-69.05-43.167-69.704-89.956z" fill="#a8e1f6"/></g></g></g></svg>