<svg clip-rule="evenodd" fill-rule="evenodd" height="1.707in" image-rendering="optimizeQuality" shape-rendering="geometricPrecision" text-rendering="geometricPrecision" viewBox="0 0 1707 1707" width="1.707in" xmlns="http://www.w3.org/2000/svg"><g id="Layer_x0020_1"><rect fill="#e6f7fe" height="1707" rx="85" ry="87" width="1654" x="26"/><path d="m26 87v288h1654v-288c0-48-38-87-85-87h-1483c-47 0-86 39-86 87z" fill="#615df9"/><rect fill="#a8a8ff" height="132" rx="211" ry="66" width="423" x="1070" y="121"/><path d="m1018 375-211-375h-695c-47 0-86 39-86 87v288z" fill="#3342ae"/><rect fill="#f948b4" height="132" rx="19" width="129" x="178" y="121"/><rect fill="#fecd0a" height="132" rx="19" width="129" x="404" y="121"/><rect fill="#39df74" height="132" rx="19" width="129" x="631" y="121"/><path d="m26 375h1654.18v52.988h-1654.18z" fill="#cfdefe"/><path d="m769 1296h138v267h-138z" fill="#ffdd40"/><path d="m970 1053h138v510h-138z" fill="#4fabf7"/><path d="m1170 928h138v635h-138z" fill="#e80054"/><path d="m1371 1112h138v451h-138z" fill="#ffb334"/><g fill="#1c2e7a" fill-rule="nonzero"><path d="m967 597c-9 0-16-7-16-16s7-17 16-17h493c10 0 17 8 17 17s-7 16-17 16z"/><path d="m1214 757c-9 0-17-7-17-17 0-9 8-16 17-16h246c10 0 17 7 17 16 0 10-7 17-17 17z"/><path d="m637 1286c10 0 17 8 17 17s-7 17-17 17h-423c-9 0-17-8-17-17s8-17 17-17z"/><path d="m426 1446c9 0 16 8 16 17s-7 16-16 16h-212c-9 0-17-7-17-16s8-17 17-17z"/></g><g id="_345256752"><path d="m274 1006c-60-51-98-128-98-213 0-150 116-272 263-281l18 281z" fill="#e80054"/><path d="m439 512 18 281h281c0-156-126-282-281-282-6 0-12 1-18 1z" fill="#4fabf7"/><path d="m457 793-183 213c49 42 113 68 183 68 155 0 281-126 281-281z" fill="#ffdd40"/></g></g></svg>