<svg id="Layer_1" enable-background="new 0 0 512 512" height="512" viewBox="0 0 512 512" width="512" xmlns="http://www.w3.org/2000/svg"><g><g><path d="m64 472h240c17.673 0 32-14.327 32-32v-368c0-17.673-14.327-32-32-32h-192l-80 72v328c0 17.673 14.327 32 32 32z" fill="#d7e6f0"/></g><g><path d="m112 40v40c0 17.673-14.327 32-32 32h-48z" fill="#a5c3dc"/></g><g><g><path d="m273.373 262.627 38.627-38.627h96v176c0 17.673-14.327 32-32 32v16h-112v-162.745c0-8.487 3.371-16.627 9.373-22.628z" fill="#f0915a"/></g><g><path d="m264 448h112c8.837 0 16 7.163 16 16v8h-144v-8c0-8.837 7.163-16 16-16z" fill="#555a6e"/></g><g><path d="m264 448h56v24h-72v-8c0-8.837 7.163-16 16-16z" fill="#463c4b"/></g><g><g><path d="m464 392h-152c-8.837 0-16-7.163-16-16v-256c0-8.837 7.163-16 16-16h152c8.837 0 16 7.163 16 16v256c0 8.837-7.163 16-16 16z" fill="#289bc3"/></g><g><path d="m440 392h-128c-8.837 0-16-7.163-16-16v-256c0-8.837 7.163-16 16-16h128c8.837 0 16 7.163 16 16v256c0 8.837-7.163 16-16 16z" fill="#00d2d2"/></g><g><path d="m416 368h-80c-8.837 0-16-7.163-16-16v-192c0-8.837 7.163-16 16-16h80c8.837 0 16 7.163 16 16v192c0 8.837-7.163 16-16 16z" fill="#463c4b"/></g><g><path d="m388 128h-24c-2.209 0-4-1.791-4-4 0-2.209 1.791-4 4-4h24c2.209 0 4 1.791 4 4 0 2.209-1.791 4-4 4z" fill="#463c4b"/></g></g><g><path d="m308.686 283.313c6.248-6.248 16.379-6.248 22.627 0l.726.726c12.497 12.497 12.497 32.758 0 45.255l-12.039 12.039v34.667c0 30.928-25.072 56-56 56v-104z" fill="#fab991"/></g><g><path d="m306.667 285.333 2.02 2.02c6.248 6.248 6.248 16.379 0 22.627l-1.696 1.696c-3.124 3.124-8.19 3.124-11.314 0l-7.677-7.676z" fill="#f0915a"/></g></g><g><g><circle cx="176" cy="184" fill="#289bc3" r="104"/></g><g><path d="m152 184h48c22.091 0 40 17.909 40 40v41.978c-17.648 13.797-39.863 22.022-64 22.022s-46.352-8.225-64-22.022v-41.978c0-22.091 17.909-40 40-40z" fill="#00d2d2"/></g><g><path d="m176 224c13.255 0 24-10.745 24-24v-16h-48v16c0 13.255 10.745 24 24 24z" fill="#d7e6f0"/></g><g><circle cx="176" cy="136" fill="#fab991" r="40"/></g></g><g><circle cx="88" cy="336" fill="#00d2d2" r="16"/></g><g><path d="m248 352h-112c-8.837 0-16-7.163-16-16 0-8.837 7.163-16 16-16h112c8.837 0 16 7.163 16 16 0 8.837-7.163 16-16 16z" fill="#a5c3dc"/></g><g><circle cx="88" cy="400" fill="#00d2d2" r="16"/></g><g><path d="m248 416h-112c-8.837 0-16-7.163-16-16 0-8.837 7.163-16 16-16h112c8.837 0 16 7.163 16 16 0 8.837-7.163 16-16 16z" fill="#a5c3dc"/></g><g><path d="m376 292c-24.262 0-44-19.738-44-44s19.738-44 44-44 44 19.738 44 44-19.738 44-44 44zm0-80c-19.851 0-36 16.149-36 36s16.149 36 36 36 36-16.149 36-36-16.149-36-36-36z" fill="#e64178"/></g><g><circle cx="376" cy="248" fill="#e64178" r="24"/></g></g></svg>