<svg id="Capa_1" enable-background="new 0 0 512 512" height="512" viewBox="0 0 512 512" width="512" xmlns="http://www.w3.org/2000/svg"><g><path d="m446.463 167h-190.463-190.463l-65.537 52.866 22.927 48.173 233.073 183.961 230.944-182.272 25.056-49.862z" fill="#d5e8fe"/><path d="m512 219.866-65.537-52.866h-190.463v285l230.944-182.272z" fill="#b5dbff"/><path d="m256 0h-196v452h196 196v-452z" fill="#fed843"/><path d="m256 0h196v452h-196z" fill="#fabe2c"/><g><path d="m338.5 184.958h29.999v54.083h-29.999z" fill="#d5e8fe" transform="matrix(.555 -.832 .832 .555 -18.981 388.533)"/><path d="m326.458 107h54.083v29.999h-54.083z" fill="#edf5ff" transform="matrix(.832 -.555 .555 .832 -8.303 216.576)"/><path d="m211 272h-30v-90l30 30z" fill="#32393f"/><path d="m211 122-15 30v15 15l15 30 90 30v-75-75z" fill="#edf5ff"/><path d="m211 212 90 30v-75h-105v15z" fill="#d5e8fe"/><path d="m166 122c-24.853 0-45 20.147-45 45s20.147 45 45 45h45v-45-45z" fill="#ff6c6c"/><path d="m166 212h45v-45h-90c0 24.853 20.147 45 45 45z" fill="#e63950"/></g><path d="m256 422-256-202.134v274.287l25.206 17.847h230.794 230.794l25.206-17.847v-274.287z" fill="#edf5ff"/><path d="m512 494.153v-274.287l-256 202.134v90h230.794z" fill="#d5e8fe"/><path d="m79.38 425.354-79.38 68.799v17.847h25.206l73.1-63.354z" fill="#d5e8fe"/><path d="m512 494.153-79.38-68.799-18.926 23.292 73.1 63.354h25.206z" fill="#b5dbff"/></g></svg>