<svg id="Layer_1" enable-background="new 0 0 512 512" viewBox="0 0 512 512" xmlns="http://www.w3.org/2000/svg"><g><g clip-rule="evenodd" fill-rule="evenodd"><path d="m146.02 395.45h288.57c12.76 0 23.22 10.43 23.22 23.22 0 12.76-10.46 23.19-23.22 23.19h-288.57c2.21-15.48 2.21-30.93 0-46.41z" fill="#9196aa"/><path d="m63.47 346.64c-20.83 45.98-20.83 98.82 0 144.79h71.97c19.64-45.98 19.64-98.82 0-144.79z" fill="#cdd2e1"/><path d="m49.59 337.65c0-6.52 5.33-11.85 11.85-11.85h75.51c6.49 0 11.82 5.33 11.82 11.85s-5.33 11.82-11.82 11.82h-75.52c-6.52 0-11.84-5.3-11.84-11.82z" fill="#9196aa"/><path d="m162.57 249.01h187.83v-64.15c0-35.29-28.88-64.18-64.18-64.18l-18.57 8.42 11.14 19.33h-22.31-22.31l11.14-19.33-18.57-8.42c-35.29 0-64.18 28.88-64.18 64.18v64.15z" fill="#615260"/></g><path d="m194.78 197.25c0-4.59 3.74-8.33 8.33-8.33 4.62 0 8.33 3.74 8.33 8.33v51.76h-16.67v-51.76z" fill="#cdd2e1"/><path d="m301.53 197.25c0-4.59 3.71-8.33 8.33-8.33 4.59 0 8.33 3.74 8.33 8.33v51.76h-16.67v-51.76z" fill="#cdd2e1"/><path clip-rule="evenodd" d="m48.82 331.36h187.79v-64.18c0-35.29-28.86-64.18-64.18-64.18l-18.57 8.42 11.17 19.33h-22.31-22.34l11.17-19.33-18.55-8.41c-35.29 0-64.18 28.88-64.18 64.18z" fill="#f4a14e" fill-rule="evenodd"/><path clip-rule="evenodd" d="m142.73 82.82c26.45 0 47.88 21.46 47.88 47.88 0 26.45-21.43 47.91-47.88 47.91s-47.91-21.46-47.91-47.91c.01-26.42 21.46-47.88 47.91-47.88z" fill="#f4a14e" fill-rule="evenodd"/><path d="m81.02 279.57c0-4.59 3.74-8.31 8.33-8.31s8.33 3.71 8.33 8.31v51.79h-16.66z" fill="#cdd2e1"/><path d="m187.75 279.57c0-4.59 3.74-8.31 8.33-8.31 4.62 0 8.33 3.71 8.33 8.31v51.79h-16.67v-51.79z" fill="#cdd2e1"/><path clip-rule="evenodd" d="m276.36 331.36h187.79v-64.18c0-35.29-28.88-64.18-64.18-64.18l-18.57 8.42 11.17 19.33h-22.34-22.31l11.17-19.33-18.6-8.42c-35.29 0-64.15 28.88-64.15 64.18v64.18z" fill="#f4a14e" fill-rule="evenodd"/><path clip-rule="evenodd" d="m370.24 82.82c26.45 0 47.91 21.46 47.91 47.88 0 26.45-21.46 47.91-47.91 47.91s-47.88-21.46-47.88-47.91c0-26.42 21.43-47.88 47.88-47.88z" fill="#f4a14e" fill-rule="evenodd"/><path d="m308.56 279.57c0-4.59 3.71-8.31 8.33-8.31 4.59 0 8.33 3.71 8.33 8.31v51.79h-16.67v-51.79z" fill="#cdd2e1"/><path d="m415.28 279.57c0-4.59 3.74-8.31 8.33-8.31s8.33 3.71 8.33 8.31v51.79h-16.67v-51.79z" fill="#cdd2e1"/><path clip-rule="evenodd" d="m256.49.5c26.45 0 47.88 21.43 47.88 47.88s-21.43 47.88-47.88 47.88-47.88-21.43-47.88-47.88 21.43-47.88 47.88-47.88z" fill="#615260" fill-rule="evenodd"/><path clip-rule="evenodd" d="m50.55 499.65c0 6.52 5.33 11.85 11.85 11.85h75.51c6.52 0 11.82-5.33 11.82-11.85s-5.3-11.82-11.82-11.82h-75.51c-6.52 0-11.85 5.3-11.85 11.82z" fill="#9196aa" fill-rule="evenodd"/></g></svg>