<svg clip-rule="evenodd" fill-rule="evenodd" height="512" image-rendering="optimizeQuality" shape-rendering="geometricPrecision" text-rendering="geometricPrecision" viewBox="0 0 7111 7111" width="512" xmlns="http://www.w3.org/2000/svg"><g id="Layer_x0020_1"><g id="_489028256"><path d="m4913 4710c-16 0-34-4-50-11-61 123-155 268-186 299-30 29-59 37-96 37-30 0-66-15-89-37l-664-664c-51-52-51-133 0-185 34-33 176-167 287-244 3-29 15-58 38-80 52-52 133-52 184 0l672 664c51 51 51 132 0 184-30 22-67 37-96 37z" fill="#025850"/><path d=""/><path d="m2449 4887c-627 0-1254-236-1733-715-465-465-716-1077-716-1727 0-649 251-1268 716-1726 464-464 1077-715 1733-715 649 0 1261 258 1726 715 952 952 952 2501 0 3453-479 472-1099 715-1726 715z" fill="#026d63"/><path d=""/><path d="m6388 7107c-103 0-199-36-280-110l-1623-1623c-155-162-148-406 0-561l332-332c148-147 398-155 561 0l1615 1623c74 74 118 177 118 281 0 103-44 206-118 280l-324 332c-74 74-178 110-281 110z" fill="#026d63"/><path d="m5917 6806-230-230 3-3 886-885 1-2 230 231-1 1-885 886zm-1001-1001-229-230c2-2 4-5 7-7l884-885 231 231-885 884c-2 2-5 5-8 7z" fill="#ffd300"/><path d="m1232 1228c-664 671-664 1756 0 2427 671 671 1756 671 2427 0 324-324 501-752 501-1210 0-457-177-892-501-1217-671-664-1756-664-2427 0z" fill="#98ffff"/><g id="_420505312"><g><path d="m2450 3956c-573 0-1039-464-1039-1036v-985c0-25 19-44 44-44 24 0 44 19 44 44v985c0 523 427 950 953 950 420 0 796-282 914-687 7-23 29-37 54-30 22 7 37 30 29 54-130 440-540 749-999 749zm994-1056c-24 0-44-20-44-44v-884c0-526-427-953-950-953-384 0-737 238-885 594-10 22-34 32-56 25-22-10-32-35-25-57 162-393 538-648 963-648 572 0 1037 466 1037 1039v884c2 24-18 44-40 44z" fill="#ff4141"/></g><g><path d="m2450 3745c-386 0-725-273-809-646-4-22 10-47 32-52 22-4 47 10 52 32 74 337 378 580 725 580 407 0 739-332 739-739v-946c0-408-332-742-739-742-408 0-740 332-740 740v778c0 25-19 44-44 44s-44-19-44-44v-776c0-454 371-825 825-825 457-3 828 368 828 825v946c0 454-371 825-825 825z" fill="#ff4141"/></g><g><path d="m2450 3531c-339 0-615-275-615-611v-946c0-339 276-614 615-614 331 0 606 270 611 602 0 24-19 44-42 44-22 0-44-20-44-42-5-285-240-516-525-516-293 0-529 236-529 529v945c0 290 236 526 529 526 289 0 525-236 525-526v-624c0-24 20-44 44-44 25 0 45 20 45 44v622c-3 336-278 611-614 611z" fill="#ff4141"/></g><g><path d="m2450 3320c-221 0-403-179-403-400v-440c0-24 19-44 44-44s44 20 44 44v440c0 174 143 314 317 314s314-140 314-314v-44c0-25 20-45 45-45 24 0 44 20 44 45v44c-5 221-184 400-405 400zm356-737c-25 0-44-19-44-44v-565c0-174-140-317-315-317-174 0-317 143-317 317v172c0 25-19 44-44 44s-39-22-39-44v-172c0-221 179-403 403-403 221 0 400 180 400 403v565c0 25-20 44-44 44z" fill="#ff4141"/></g><g><path d="m2450 3106c-69 0-133-39-167-100-13-22-3-47 17-59 22-13 46-3 59 17 19 34 51 54 91 54 56 0 103-47 103-103v-693c0-24 19-44 44-44s44 20 44 44v698c-2 103-88 186-191 186zm-148-412c-24 0-44-20-44-44v-676c0-106 86-189 189-189 59 0 113 27 150 76 15 20 10 47-10 61-20 15-47 10-61-7-20-24-49-42-81-42-57 0-104 47-104 104v677c5 20-14 40-39 40z" fill="#ff4141"/></g></g></g></g></svg>