<svg id="Layer_1" enable-background="new 0 0 75 75" height="512" viewBox="0 0 75 75" width="512" xmlns="http://www.w3.org/2000/svg"><g id="Files"><g><g><path d="m56.8324013 11.5680971-.5800781 56.8599892c-.0750961-.1012268-9.6191864-12.4297676-9.7597656-12.5999794-.6246872-.8059464-.6998749-1.8583031-.7202148-2.8699951-.2365265-15.25877-.5068703-30.9690609-.7299805-45.289978 0-.0500488 0-.1000366.0100098-.1400146.0700684-.8400269.9802246-1.3699951 1.7700195-.9700317z" fill="#6f6ecf"/></g><g><path d="m68.9308548 10.8675222-8.9291382-4.011641c-.8520927-.3828239-1.8134995.2484345-1.8009338 1.1824889l.0509911 3.7905283c1.0602188.9220743 8.5112495 2.7279482 10.6245537-.2589512.1307143-.1847486.2346572-.5654144.0545272-.702425z" fill="#3f3e8a"/></g><g><path d="m56.2442207 12.5599451-.5579567 54.9233465c-.0065117.6411667.5414619 1.1480865 1.1801796 1.0917587l11.4578514-1.0104141c.55867-.049263.987709-.5162048.9896164-1.0770416l.1860809-54.703495c.0021515-.6310406-.5326462-1.1307583-1.1620941-1.0858717l-11.0859756.790556c-.5635757.0401906-1.0019607.5061845-1.0077019 1.0711612z" fill="#595ab7"/></g><g><circle cx="63.05" cy="54.916" fill="#f6f3fe" r="3.508"/></g><g><g><path d="m59.0112038 19.6587696-.3321724 24.0679455c-.0101395.734642.6887093 1.3196602 1.5125542 1.2661819l5.7943077-.3761063c.7347336-.0476952 1.3043594-.5904121 1.3073883-1.245636l.1108398-23.9843597c.0033417-.7237129-.680809-1.2997284-1.4930878-1.2570934l-5.5729752.2925243c-.7385177.038765-1.3177757.5785962-1.3268546 1.2365437z" fill="#dcd9ea"/></g><g><g><g><path d="m61.0604286 23.2942924c-.0185547-.2753906.1894531-.5141602.4658203-.5327148l3.4218712-.2304688c.2617188-.0092773.5136719.1894531.5322266.465332.0185547.2753906-.1894531.5141602-.4658203.5327148l-3.4218712.2304688c-.2972756.0135136-.5148964-.2048701-.5322266-.465332z" fill="#c6bfe0"/></g></g><g><g><path d="m61.1004677 27.5291557c-.0185547-.2753906.1894531-.5141602.4658203-.5327148l3.4208946-.230957c.2451172-.0092773.5136719.1894531.5322266.465332.0185547.2753906-.1894531.5141602-.4658203.5327148l-3.4208946.230957c-.2972756.0135136-.5148964-.2048702-.5322266-.465332z" fill="#c6bfe0"/></g></g><g><g><path d="m61.2518349 31.7635307c-.0185547-.2753906.1894531-.5141602.4658203-.5327148l3.4208946-.2304688c.2529297-.0097656.5146484.1894531.5322266.465332.0185547.2753906-.1894531.5141602-.4658203.5327148l-3.4208946.2304688c-.2972756.0135117-.5148965-.2048683-.5322266-.465332z" fill="#c6bfe0"/></g></g><g><g><path d="m61.4022255 35.9979057c-.0185547-.2753906.1894531-.5141602.4658203-.5327148l3.4208946-.2304688c.2607422-.0092773.5136719.1894531.5322266.465332.0185547.2753906-.1894531.5141602-.4658203.5327148l-3.4208946.2304688c-.2972756.0135117-.5148964-.2048683-.5322266-.465332z" fill="#c6bfe0"/></g></g><g><g><path d="m61.4422646 40.232769c-.0185547-.2753906.1894531-.5141602.4658203-.5327148l3.4208946-.230957c.2441406-.0092773.5136719.1894531.5322266.465332.0185547.2753906-.1894531.5141602-.4658203.5327148l-3.4208946.230957c-.2972756.0135117-.5148965-.2048683-.5322266-.465332z" fill="#c6bfe0"/></g></g></g></g><g><path d="m63.0418091 58.4235687c-2.1177177 0-3.746479-1.8868484-3.4697266-3.9599609.2197266 1.7299805 1.6899414 3.0599976 3.4697266 3.0599976 1.7900391 0 3.2602539-1.3300171 3.4802246-3.0599976.2750931 2.0861091-1.3609161 3.9599609-3.4802246 3.9599609z" fill="#dcd9ea"/></g><g><path d="m51.3924599 13.23808v48.9100342c-.9539223-1.2281303-4.7800636-6.1749077-4.8999023-6.3200073-.6246872-.8059464-.6998749-1.8583031-.7202148-2.8699951-.2365265-15.25877-.5068703-30.9690609-.7299805-45.289978 0-.0500488 0-.1000366.0100098-.1400146.9433289.5623441 5.0823326 2.2344604 5.7700195 3.059998.6830215.7309164.5700683 1.8198446.5700683 2.6499628z" fill="#3f3e8a"/></g><g><path d="m36.7825966 11.5680971-.5800781 56.8599892c-.0624046-.0841217-9.6759262-12.4981689-9.7600098-12.5999794-.6247826-.8060646-.7001343-1.859272-.7199707-2.8699951-.1193981-7.5147934-.7510719-45.3562393-.7099609-45.5.1098633-.7999878 1-1.289978 1.7597656-.9000244z" fill="#fde77a"/></g><g><path d="m48.880249 10.8675222-8.9291344-4.011641c-.8520927-.3828239-1.8134995.2484345-1.8009338 1.1824889l.0509911 3.7905283c3.5220031 3.063098 12.7049713.5795622 10.6790771-.9613762z" fill="#ef9f27"/></g><g><path d="m36.1936188 12.5599451-.5579567 54.9233475c-.0065117.6411667.5414619 1.1480865 1.1801796 1.0917587l11.4578514-1.0104141c.55867-.049263.987709-.5162048.9896202-1.0770416l.1860771-54.703495c.0021477-.6310406-.53265-1.1307583-1.1620941-1.0858717l-11.0859756.790556c-.5635758.0401896-1.0019608.5061835-1.0077019 1.0711602z" fill="#f8c73b"/></g><g><circle cx="42.999" cy="54.916" fill="#f6f3fe" r="3.508"/></g><g><g><path d="m38.9606018 19.6587696-.3321724 24.0679455c-.0101395.734642.6887093 1.3196602 1.5125542 1.2661819l5.7943077-.3761063c.7347374-.0476952 1.3043594-.5904121 1.3073883-1.245636l.1108398-23.9843597c.0033455-.7237129-.680809-1.2997284-1.4930878-1.2570934l-5.5729752.2925243c-.7385176.038765-1.3177756.5785962-1.3268546 1.2365437z" fill="#dcd9ea"/></g><g><g><g><path d="m41.0106239 23.2942924c-.0185547-.2753906.1894531-.5141602.4658203-.5327148l3.4208984-.2304688c.2636719-.0092773.5136719.1894531.5322266.465332.0185547.2753906-.1894531.5141602-.4658203.5327148l-3.4208984.2304688c-.2972755.0135136-.5148964-.2048701-.5322266-.465332z" fill="#c6bfe0"/></g></g><g><g><path d="m41.0496864 27.5291557c-.0185547-.2753906.1894531-.5141602.4658203-.5327148l3.4208984-.230957c.2470703-.0092773.5136719.1894531.5322266.465332.0185547.2753906-.1894531.5141602-.4658203.5327148l-3.4208984.230957c-.2972755.0135136-.5148964-.2048702-.5322266-.465332z" fill="#c6bfe0"/></g></g><g><g><path d="m41.2010536 31.7635307c-.0185547-.2753906.1894531-.5141602.4658203-.5327148l3.4208984-.2304688c.2548828-.0097656.5146484.1894531.5322266.465332.0185547.2753906-.1894531.5141602-.4658203.5327148l-3.4208984.2304688c-.2972756.0135117-.5148964-.2048683-.5322266-.465332z" fill="#c6bfe0"/></g></g><g><g><path d="m41.3514442 35.9979057c-.0185547-.2753906.1894531-.5141602.4658203-.5327148l3.421875-.2304688c.2626953-.0092773.5136719.1894531.5322266.465332.0185547.2753906-.1894531.5141602-.4658203.5327148l-3.421875.2304688c-.2972755.0135117-.5148964-.2048683-.5322266-.465332z" fill="#c6bfe0"/></g></g><g><g><path d="m41.3914833 40.232769c-.0185547-.2753906.1894531-.5141602.4658203-.5327148l3.4208984-.230957c.2460938-.0092773.5136719.1894531.5322266.465332.0185547.2753906-.1894531.5141602-.4658203.5327148l-3.4208984.230957c-.2972756.0135117-.5148964-.2048683-.5322266-.465332z" fill="#c6bfe0"/></g></g></g></g><g><path d="m42.9912071 58.4235687c-2.1177177 0-3.746479-1.8868484-3.4697266-3.9599609.2197266 1.7299805 1.6899414 3.0599976 3.4697266 3.0599976 1.7900391 0 3.2602539-1.3300171 3.4802246-3.0599976.2750893 2.0861091-1.3609161 3.9599609-3.4802246 3.9599609z" fill="#dcd9ea"/></g><g><path d="m31.4525185 13.2343245v49.0538025c-.4645653-.5807076-4.8205395-6.2306099-5.0100098-6.460022-.6247826-.8060646-.7001343-1.859272-.7199707-2.8699951-.1193981-7.5147934-.7510719-45.3562393-.7099609-45.5-.0614204.2147861 5.0325031 2.1319723 5.8705025 3.126647.6699046.7951536.5694389 1.672945.5694389 2.6495676z" fill="#fab041"/></g><g><g><path d="m17.2916813 11.5641489-.587595 56.8609924c-.0767021-.1023026-9.5789175-12.3787384-9.7598686-12.5960121-.6241641-.8062401-.6908908-1.8921585-.7154679-2.8743477-.0006052-.0296373-.7002092-43.1014671-.7282553-45.2869548-.0255747-.9197536.9456405-1.533001 1.7758827-1.1114083z" fill="#f56357"/></g><g><path d="m29.38661 10.8675222-8.9291363-4.011641c-.8520908-.3828239-1.8135014.2484345-1.8009357 1.1824889l.0509949 3.7905283c2.4567718 2.1366644 13.2647476 1.0053406 10.6790771-.9613762z" fill="#e11a17"/></g><g><path d="m16.6999798 12.5599451-.5579567 54.9233475c-.0065136.6411667.54146 1.1480865 1.1801777 1.0917587l11.4578514-1.0104141c.55867-.049263.987711-.5162048.9896183-1.0770416l.1860809-54.703495c.0021458-.6310406-.53265-1.1307583-1.162096-1.0858717l-11.0859756.790556c-.5635739.0401896-1.0019608.5061835-1.0077 1.0711602z" fill="#f34036"/></g><g><circle cx="23.505" cy="54.916" fill="#f6f3fe" r="3.508"/></g><g><path d="m23.5023232 58.4280815c-2.1177177 0-3.746479-1.8868484-3.4697266-3.9599609.2197266 1.7299805 1.6899414 3.0599976 3.4697266 3.0599976 1.7900391 0 3.2602539-1.3300171 3.4802246-3.0599976.2750911 2.0861091-1.3609143 3.9599609-3.4802246 3.9599609z" fill="#dcd9ea"/></g><g><g><path d="m19.4669609 19.6587696-.3321743 24.0679455c-.0101376.734642.6887112 1.3196602 1.5125561 1.2661819l5.7943077-.3761063c.7347355-.0476952 1.3043594-.5904121 1.3073883-1.245636l.1108398-23.9843597c.0033455-.7237129-.680809-1.2997284-1.4930878-1.2570934l-5.5729733.2925243c-.7385195.038765-1.3177756.5785962-1.3268565 1.2365437z" fill="#dcd9ea"/></g><g><g><g><path d="m22.0145302 23.760601c-.2607422 0-.4804688-.2021484-.4980469-.4663086-.0185547-.2753906.1894531-.5141602.4658203-.5327148l3.4208984-.2304688c.2539063-.0092773.5146484.1894531.5322266.465332.0185547.2753906-.1894531.5141602-.4658203.5327148l-3.4208984.2304688c-.0107422.0004884-.022461.0009766-.0341797.0009766z" fill="#c6bfe0"/></g></g><g><g><path d="m22.0535927 27.9954643c-.2607422 0-.4804688-.2021484-.4980469-.4663086-.0185547-.2753906.1894531-.5141602.4658203-.5327148l3.421875-.230957c.2597656-.0092773.5136719.1894531.5322266.465332.0185547.2753906-.1894531.5141602-.4658203.5327148l-3.421875.230957c-.0107422.0004883-.022461.0009766-.0341797.0009766z" fill="#c6bfe0"/></g></g><g><g><path d="m22.2049599 32.2298393c-.2607422 0-.4804688-.2021484-.4980469-.4663086-.0185547-.2753906.1894531-.5141602.4658203-.5327148l3.4208984-.2304688c.2451172-.0097656.5136719.1894531.5322266.465332.0185547.2753906-.1894531.5141602-.4658203.5327148l-3.4208984.2304688c-.0107422.0004883-.022461.0009766-.0341797.0009766z" fill="#c6bfe0"/></g></g><g><g><path d="m22.3563271 36.4642143c-.2607422 0-.4804688-.2021484-.4980469-.4663086-.0185547-.2753906.1894531-.5141602.4658203-.5327148l3.4208984-.2304688c.2529297-.0092773.5146484.1894531.5322266.465332.0185547.2753906-.1894531.5141602-.4658203.5327148l-3.4208984.2304688c-.0107422.0004883-.022461.0009766-.0341797.0009766z" fill="#c6bfe0"/></g></g><g><g><path d="m22.3963661 40.6990776c-.2607422 0-.4804688-.2021484-.4980469-.4663086-.0185547-.2753906.1894531-.5141602.4658203-.5327148l3.4208984-.230957c.2578125-.0092773.5136719.1894531.5322266.465332.0185547.2753906-.1894531.5141602-.4658203.5327148l-3.4208984.230957c-.0107422.0004883-.0224609.0009766-.0341797.0009766z" fill="#c6bfe0"/></g></g></g></g><g opacity=".41"><path d="m8.0018682 45.7364616c.6689987-2.1992073 3.212657-2.7375717 4.6873779-.8285179.6017866.779026.854681 1.7793808.9115124 2.7621307.1011496 1.7490997-.943614 4.3733902-3.1441317 3.5566101-1.9357862-.7185172-3.0242809-3.6179961-2.4547586-5.4902229z" fill="#fff"/></g><g opacity=".41"><path d="m8.1149139 38.7350311c.4055824-1.3332748 1.9476824-1.6596603 2.8417368-.5022888.3648348.4722824.5181532 1.0787506.5526075 1.6745453.0613213 1.0604019-.5720692 2.6513824-1.9061394 2.156208-1.1735763-.4356041-1.8334793-2.1934204-1.4882049-3.3284645z" fill="#fff"/></g></g></g></g></svg>