<svg height="512" viewBox="0 0 128 128" width="512" xmlns="http://www.w3.org/2000/svg"><g><g fill="#b56a5a"><path d="m49.291 39.539a2.394 2.394 0 0 0 -2.3 2.481v3.006a5.332 5.332 0 0 0 5.115 5.526h3.212v-11.013z"/><path d="m98.5 39.539a2.4 2.4 0 0 1 2.3 2.481v3.006a5.332 5.332 0 0 1 -5.116 5.526h-3.212v-11.013z"/></g><path d="m107.577 98.358a23.832 23.832 0 0 0 -23.793-22.467h-19.774a23.833 23.833 0 0 0 -23.794 22.467l-1.058 16.084h69.477z" fill="#4b4d4e"/><path d="m53.774 97.909h40.245v16.534h-40.245z" fill="#3a3d3e"/><path d="m61.042 76.078 12.855 21.831 12.854-21.831z" fill="#e1e1ef"/><g fill="#3a3d3e"><path d="m55.381 77.508a23.777 23.777 0 0 0 -3.357 1.614v35.32h3.5v-36.242a1.76 1.76 0 0 0 -.143-.692z"/><path d="m92.413 77.508a1.742 1.742 0 0 0 -.143.693v36.241h3.5v-35.32a23.777 23.777 0 0 0 -3.357-1.614z"/></g><g fill="#3a3d3e"><path d="m46.9 97.69a1.751 1.751 0 0 0 -1.75 1.75v15h3.5v-15a1.75 1.75 0 0 0 -1.75-1.75z"/><path d="m100.9 97.69a1.751 1.751 0 0 0 -1.75 1.75v15h3.5v-15a1.75 1.75 0 0 0 -1.75-1.75z"/></g><path d="m66.689 60.275v15.616s3.227 4.588 7.208 4.588 7.203-4.588 7.203-4.588v-15.616z" fill="#b56a5a"/><path d="m53.247 34.833v15.719c0 11.2 8.707 20.734 19.9 21.131a20.649 20.649 0 0 0 21.4-20.636v-16.214a18.031 18.031 0 0 0 -18.032-18.033h-5.237a18.031 18.031 0 0 0 -18.031 18.033z" fill="#bd7768"/><g fill="#3a3d3e"><g><path d="m64.6 42.787a1.859 1.859 0 0 0 -1.859 1.859v2.631a1.859 1.859 0 1 0 3.718 0v-2.631a1.859 1.859 0 0 0 -1.859-1.859z"/><path d="m83.192 42.787a1.858 1.858 0 0 0 -1.858 1.859v2.631a1.859 1.859 0 1 0 3.717 0v-2.631a1.859 1.859 0 0 0 -1.859-1.859z"/></g><path d="m73.893 63.3c-.1 0-.2 0-.306-.005a8.814 8.814 0 0 1 -7.938-5.967 1.75 1.75 0 0 1 3.311-1.135 5.294 5.294 0 0 0 4.751 3.6 5.353 5.353 0 0 0 5.183-3.593 1.75 1.75 0 0 1 3.32 1.109 8.822 8.822 0 0 1 -8.321 5.991z"/><path d="m92.472 35.33c-6.207 0-4.209-2.051-7.421-7.493-17.747 0-31.8 3.338-31.712 11.7h-3.615v-6.311c0-11.656 9.556-19.668 21.107-19.668 6.811 0 18.515.829 18.515 5.872 8.322.67 8.723 6.766 8.723 13.8v6.313h-3.523z"/></g><path d="m61.042 76.078 5.647-3.777 7.208 8.178-6.317 6.701z" fill="#f2f2ff"/><path d="m86.751 76.078-5.647-3.777-7.207 8.178 6.317 6.701z" fill="#f2f2ff"/><g fill="#4b4d4e"><path d="m82.423 97.909h3.5v16.534h-3.5z"/><path d="m72.146 97.909h3.5v16.534h-3.5z"/><path d="m61.87 97.909h3.5v16.534h-3.5z"/></g><path d="m43.9 107.515h-21.322a3 3 0 0 0 -3 3v3.927h27.322v-3.927a3 3 0 0 0 -3-3z" fill="#bd7768"/><path d="m38.9 100.588h-11.327a3.144 3.144 0 0 0 -3.144 3.144v3.783h17.617v-3.783a3.145 3.145 0 0 0 -3.146-3.144z" fill="#b56a5a"/><g><path d="m29.79 74.63h5.872a0 0 0 0 1 0 0v17a2.936 2.936 0 0 1 -2.936 2.936 2.936 2.936 0 0 1 -2.936-2.936v-17a0 0 0 0 1 0 0z" fill="#b56a5a"/><path d="m29.79 69.396h5.872v5.234h-5.872z" fill="#3a3d3e"/><g><path d="m25.046 56.395h15.362v13.001h-15.362z" fill="#b56a5a"/><g fill="#bd7768"><path d="m19.365 54.136h5.681v17.519h-5.681z" transform="matrix(-1 0 0 -1 44.41 125.791)"/><path d="m40.407 54.136h5.681v17.519h-5.681z" transform="matrix(-1 0 0 -1 86.496 125.791)"/></g></g></g></g></svg>