<svg id="Flat" height="512" viewBox="0 0 64 64" width="512" xmlns="http://www.w3.org/2000/svg"><path d="m3 21h58a0 0 0 0 1 0 0v38a2 2 0 0 1 -2 2h-54a2 2 0 0 1 -2-2v-38a0 0 0 0 1 0 0z" fill="#fafaff"/><path d="m6 21h55a0 0 0 0 1 0 0v38a2 2 0 0 1 -2 2h-51a2 2 0 0 1 -2-2v-38a0 0 0 0 1 0 0z" fill="#f3f3ff"/><path d="m3 21h58v2.5h-58z" fill="#f3f3ff"/><path d="m6 21h55v2.5h-55z" fill="#e6e6ff"/><rect fill="#fb7d8c" height="12" rx="2" width="62" x="1" y="9"/><path d="m6 11.5a2 2 0 0 0 -2 2v7.5h57a2 2 0 0 0 2-2v-7.5z" fill="#fa5a69"/><g fill="#5a5a63"><path d="m32 2.25a2.752 2.752 0 0 0 -2.75 2.75v4h1.5v-4a1.25 1.25 0 0 1 2.5 0v8a1.252 1.252 0 0 1 -1.25 1.25.75.75 0 0 0 0 1.5 2.752 2.752 0 0 0 2.75-2.75v-8a2.752 2.752 0 0 0 -2.75-2.75z"/><path d="m56 2.25a2.752 2.752 0 0 0 -2.75 2.75v4h1.5v-4a1.25 1.25 0 0 1 2.5 0v8a1.252 1.252 0 0 1 -1.25 1.25.75.75 0 0 0 0 1.5 2.752 2.752 0 0 0 2.75-2.75v-8a2.752 2.752 0 0 0 -2.75-2.75z"/><path d="m44 2.25a2.752 2.752 0 0 0 -2.75 2.75v4h1.5v-4a1.25 1.25 0 0 1 2.5 0v8a1.252 1.252 0 0 1 -1.25 1.25.75.75 0 0 0 0 1.5 2.752 2.752 0 0 0 2.75-2.75v-8a2.752 2.752 0 0 0 -2.75-2.75z"/><path d="m8 2.25a2.752 2.752 0 0 0 -2.75 2.75v4h1.5v-4a1.25 1.25 0 0 1 2.5 0v8a1.252 1.252 0 0 1 -1.25 1.25.75.75 0 0 0 0 1.5 2.752 2.752 0 0 0 2.75-2.75v-8a2.752 2.752 0 0 0 -2.75-2.75z"/><path d="m20 2.25a2.752 2.752 0 0 0 -2.75 2.75v4h1.5v-4a1.25 1.25 0 0 1 2.5 0v8a1.252 1.252 0 0 1 -1.25 1.25.75.75 0 0 0 0 1.5 2.752 2.752 0 0 0 2.75-2.75v-8a2.752 2.752 0 0 0 -2.75-2.75z"/></g><path d="m28 53h8a3 3 0 0 1 3 3v1a0 0 0 0 1 0 0h-14a0 0 0 0 1 0 0v-1a3 3 0 0 1 3-3z" fill="#fff096"/><path d="m30 55a2.99 2.99 0 0 0 -2.816 2h11.816v-1a2.983 2.983 0 0 0 -.14-.86 2.983 2.983 0 0 0 -.86-.14z" fill="#ffe66e"/><path d="m48.655 41.636-5-9a.778.778 0 0 0 -1.31 0l-5 9a.735.735 0 0 0 -.095.364 5.75 5.75 0 0 0 11.5 0 .735.735 0 0 0 -.095-.364zm-5.655-7.092 4.142 7.456h-8.284z" fill="#ffe66e"/><path d="m15.25 42a5.75 5.75 0 0 0 11.5 0 .735.735 0 0 0 -.095-.364l-5-9a.778.778 0 0 0 -1.31 0l-5 9a.735.735 0 0 0 -.095.364zm9.892 0h-8.284l4.142-7.456z" fill="#ffe66e"/><rect fill="#cb9478" height="32" rx="1.5" transform="matrix(0 -1 1 0 .5 63.5)" width="3" x="30.5" y="15.5"/><path d="m48 31.5h-28.5a1.5 1.5 0 0 0 -1.5 1.5h28.5a1.5 1.5 0 0 0 1.5-1.5z" fill="#be866f"/><path d="m32 25a1.5 1.5 0 0 1 1.5 1.5v26.5a0 0 0 0 1 0 0h-3a0 0 0 0 1 0 0v-26.5a1.5 1.5 0 0 1 1.5-1.5z" fill="#cb9478"/><path d="m32 27.5v25.5h1.5v-26.5a1.483 1.483 0 0 0 -.089-.491 1.5 1.5 0 0 0 -1.411 1.491z" fill="#be866f"/><circle cx="32" cy="31.5" fill="#fff096" r="3"/><path d="m30.5 32.5a2.972 2.972 0 0 0 .671 1.869 2.951 2.951 0 0 0 .829.131 2.984 2.984 0 0 0 2.329-4.869 2.951 2.951 0 0 0 -.829-.131 3 3 0 0 0 -3 3z" fill="#ffe66e"/></svg>