<svg id="Layer_1" enable-background="new 0 0 52 52" height="512" viewBox="0 0 52 52" width="512" xmlns="http://www.w3.org/2000/svg"><g id="_x38_0"><g><g><g><g><path d="m50 33.386116v12.5217361h-28.4298763v-12.5217361c0-3.1476746 2.1656647-5.8756561 5.2293167-6.6059132.101511-.0240917 9.5303822-2.2618942 8.947916-2.1236534l.0419044-.0084019.050312.0084019c.1015091.0240936 9.5301781 2.2623177 8.9478111 2.1236534 3.0469514.7302571 5.2126161 3.4582387 5.2126161 6.6059132z" fill="#5b5e8b"/></g></g><g><g><path d="m35.427 39.59h.716v6.318h-.716z" fill="#312e4b"/></g></g><g><g><path d="m36.8867912 24.9065266c-.1002541.0237923-8.431324 2.0009804-7.8997135 1.874815-3.067894.7329197-5.2324238 3.4598675-5.2324238 6.6044312v12.5216942h-2.181591v-12.5216943c0-3.1445637 2.1645298-5.8715115 5.2238941-6.6044312.1015167-.0240726 9.5304279-2.2600632 8.9479389-2.1219311l.0425987-.0085297.0511284.0085297z" fill="#312e4b"/></g></g><g><g><path d="m40.9094543 25.8568554-2.1739616 6.7990017-2.9462318-2.0900955-2.946228 2.0900955-2.1823654-6.7905998 5.086689-1.2087078h.0922165c.1024207.0242481 5.4081 1.2803802 5.0698813 1.2003059z" fill="#deddff"/></g></g><g><g><g><path d="m39.3023338 23.9075909v2.6752758c0 1.8479366-1.5031357 3.3441696-3.3372269 3.3441696-1.7990265 0-3.3441696-1.4427471-3.3441696-3.3441696v-2.6752758z" fill="#ffaf93"/></g></g><g><g><path d="m34.6412086 28.9272327.0207062.0207062c.4895287.4895267 1.1170082.827383 1.8340912.9308262-1.8382874.3675671-3.8750687-1.1054611-3.8750687-3.2958984v-1.6203403c.9584351.6274395 2.1099129.9929008 3.3441696.9929008.3033447 0 .5998726-.0207043.8894577-.0620747-1.3376579-.1930408-2.5305061-.8205223-3.44067-1.7306442-.1241074-.1241512-.2482567-.2551174-.3585587-.3930283h6.2469978v2.2546825c-1.1850128.6292915-2.5280151.8922729-3.6751251.8205242-1.1101073-.0551318-1.7651557 1.2962895-.986 2.082346z" fill="#ee8778"/></g></g><g><g><path d="m42.0837059 12.6181097v7.2173624c0 3.3808231-2.7406998 6.1215229-6.1215248 6.1215229h-.0000114c-3.380825 0-6.1215229-2.7406998-6.1215229-6.1215229v-7.2173624z" fill="#ffaf93"/></g></g><g><g><path d="m42.0810966 12.615139v7.2173996c0 .1930828-.0069046.3861256-.0276108.5723076-.0206604.2689209-.0689316.5308971-.1310081.7929173-.613636 2.7304916-3.0476418 4.7576637-5.9573708 4.7576637-1.6893196 0-3.2200623-.6826115-4.3301697-1.7927189-1.1101074-1.1101513-1.7927208-2.640852-1.7927208-4.3301697v-7.2173996z" fill="#ffaf93"/></g></g><g><g><path d="m43.3891373 10.8329363v7.6994886h-1.3050003v-5.9159965h-12.240923v5.9159965h-1.3397827v-7.6994886z" fill="#8b4f4f"/></g></g><g><g><path d="m44.236824 18.261591c0 1.2000675-.9624901 2.162487-2.162487 2.162487v-4.3130817c1.199997-.0000001 2.162487.9624195 2.162487 2.1505947z" fill="#ffaf93"/></g></g><g><g><path d="m42.651329 16.1976604c-.1846275-.0507526-.3755226-.0866508-.5769806-.0866508v4.3130836c.201458 0 .3923531-.0359402.5769806-.0867367z" fill="#ee8778"/></g></g><g><g><path d="m31.6211338 11.9839029v7.8486357c0 1.496233.5378399 2.8684025 1.4342022 3.9371414.110302.1379108.2344513.268877.3585587.3930283.9101639.9101219 2.1030121 1.5376034 3.44067 1.7306442-.2895851.0413704-.586113.0620747-.8894577.0620747-1.2342567 0-2.3857346-.3654613-3.3441696-.9929008-.3585625-.2344532-.6826115-.4964314-.9860001-.799818-1.1101074-1.1101513-1.7927208-2.640852-1.7927208-4.3301697v.5929718c-1.199789 0-2.1650848-.9652958-2.1650848-2.1650429 0-.6826553.3171501-1.2894306.8205242-1.6893196.3723221-.2896252.8342857-.4620037 1.3445606-.4620037v-4.1252413h1.7789173z" fill="#ee8778"/></g></g><g><g><g><path d="m36.4463768 19.0109367v.8741379c0 .2967529-.2402534.5370007-.5370026.5370007s-.5370026-.2402477-.5370026-.5370007v-.8741379c0-.2967491.2402534-.5370007.5370026-.5370007.2997513.0000001.5370026.2440225.5370026.5370007z" fill="#ee8778"/></g></g></g><g><g><path d="m34.0445671 21.5279789c.1915703.8809338.9748344 1.5410633 1.9131584 1.5410538.9383354-.0000095 1.7215881-.6601543 1.9131584-1.5410919z" fill="#ee8778"/></g></g><g><g><path d="m34.2287598 16.8597393c-.123558-.5681744-.6287422-.9939423-1.2339363-.9939423-.6052017 0-1.1103802.4257679-1.2339382.9939423z" fill="#312e4b"/></g></g><g><g><path d="m40.162384 16.8597393c-.123558-.5681744-.6287422-.9939423-1.2339363-.9939423-.6052017 0-1.1103783.4257679-1.2339363.9939423z" fill="#312e4b"/></g></g><g><g><g><path d="m43.3891373 10.5110407v1.5312099c-3.3320656 5.9942675-14.8857059 0-14.8857059 0v-1.1223354c0-1.1048651.4089279-2.1837111 1.2093143-2.940608 4.1672859-3.9759116 9.309021-.4350004 9.309021-.4350004s2.6709099-1.1222825 3.9237137 1.0962095c.3218994.5655222.4436569 1.2180233.4436569 1.8705244z" fill="#ab604b"/></g></g></g><g><g><g><path d="m31.6637173 6.6631541c-.6585026.295877-1.3161011.710434-1.9509716 1.316153-.8003864.756897-1.2093143 1.835743-1.2093143 2.940608v1.1223354s1.3046303.6754408 3.1602859 1.3461018z" fill="#8b4f4f"/></g></g></g></g></g><g><g><path d="m40.9094543 25.8560963 2.3432694 5.5434017h-2.3432694l1.4339409 2.3432655-6.5576515 8.1140022z" fill="#312e4b"/></g></g><g><g><path d="m30.6620331 25.8560963-2.3432675 5.5434017h2.3432675l-1.433939 2.3432655 6.5576496 8.1140022z" fill="#312e4b"/></g></g><g><g><path d="m38.7354927 32.6558571-2.9462318 9.1995659-2.9462281-9.1995659 2.9462281-2.0900955z" fill="#c6c6f7"/></g></g><g><g><path d="m36.4775085 32.874054.4617005 5.3804512-1.1499481 3.6009178-1.1499443-3.6009178.4617004-5.3804512-.6883469-1.3345833 1.3765908-.9737091 1.3681945.9737091z" fill="#e83d62"/></g></g><g><g><path d="m48.1882744 37.459816v1.2867584c0 .1619148-.1278496.2897644-.2812347.2897644h-5.905632c-.153389 0-.2812386-.1278496-.2812386-.2897644v-1.2867584c0-.1619148.1278496-.2897644.2812386-.2897644h5.905632c.1533851 0 .2812347.1278496.2812347.2897644z" fill="#312e4b"/></g></g></g><g><g><g><path d="m28.2829285 43.6840935c-.2093697 1.2632751-1.2993603 2.2233734-2.6203976 2.2233734h-21.0353503c-1.3210378 0-2.4110711-.9600983-2.6203978-2.2233734-.0360849-.2237816.1371572-.4331055.3681614-.4331055h25.5398235c.2310033 0 .4042459.2093239.3681608.4331055z" fill="#deddff"/></g></g><g><g><path d="m8.0712175 45.9074669h-3.4444694c-1.3229384 0-2.4134932-.959465-2.6220527-2.2228279-.0357541-.2264519.1370513-.4350128.3694713-.4350128h3.444433c-.2264547 0-.39926.2085609-.3635058.4350128.2085595 1.2633629 1.2991142 2.2228279 2.6161236 2.2228279z" fill="#c6c6f7"/></g></g><g><g><path d="m26.7177277 28.1071625v15.1424637h-8.4621563c0 .7389412-.6018543 1.3408318-1.3408337 1.3408318h-3.5338354c-.7449074 0-1.3408337-.6018906-1.3408337-1.3408318h-8.4680848v-15.1424637c0-.7925911.6435738-1.4421673 1.4421306-1.4421673h20.2614822c.7985211 0 1.4421311.6495762 1.4421311 1.4421673z" fill="#65b9ff"/></g></g><g><g><path d="m26.7177277 41.3605499v1.8890762h-8.4621563c0 .7389412-.6018543 1.3408318-1.3408337 1.3408318h-3.5338354c-.7449074 0-1.3408337-.6018906-1.3408337-1.3408318h-8.4680848v-15.1424636c0-.7925911.6435738-1.4421673 1.4421306-1.4421673h1.8771815c-.7985568 0-1.4421673.6495762-1.4421673 1.4421673v8.9666862c0 2.3674774 1.9192228 4.2867012 4.2867036 4.2867012z" fill="#3e7fff"/></g></g><g><g><path d="m5.4484944 40.6962967v-11.4760532c0-.3744106.3035192-.6779308.6779294-.6779308h18.0370407c.3744106 0 .6779308.3035202.6779308.6779308v11.4760532c0 .3744087-.3035202.6779289-.6779308.6779289h-18.0370407c-.3744101 0-.6779294-.3035202-.6779294-.6779289z" fill="#deddff"/></g></g><g><g><path d="m7.7375002 41.3724442h-1.6090074c-.3754363 0-.6793642-.3038902-.6793642-.6734009v-11.4775009c0-.3754368.3039279-.6793652.6793642-.6793652h1.6090074c-.3694711 0-.673399.3039284-.673399.6793652v11.4775009c0 .3695106.3039279.6734009.673399.6734009z" fill="#c6c6f7"/></g></g></g><g><g><g><path d="m15.4164515 30.0417805v10.0316143h-1.3486595v-10.0316143c0-.3761253.3009272-.6770191.6770191-.6770191.3707141 0 .6716404.3008937.6716404.6770191z" fill="#f9b938"/></g></g><g><g><path d="m15.4142122 30.0405273v10.0322762h-1.3446655v-10.0322762c0-.3752956.3002062-.6755009.6753864-.6755009.3690729.0000001.6692791.3002053.6692791.6755009z" fill="#f9b938"/></g></g><g><g><path d="m14.07 30.547h1.345v2.095h-1.345z" fill="#fd982e"/></g></g><g><g><path d="m18.1925659 40.7611694c0 .3825645-.3076496.6902161-.6902142.6902161h-5.5177698c-.3825645 0-.6902142-.3076515-.6902142-.6902161 0-.3825874.3076496-.6902161.6902142-.6902161h5.5177698c.3825646.0000001.6902142.3076287.6902142.6902161z" fill="#f9b938"/></g></g><g><g><path d="m14.3790216 41.4487991h-2.3980999c-.3799334 0-.6885662-.3086815-.6885662-.6885681s.3086329-.6885681.6885662-.6885681h2.3980999c-.3878078 0-.6964884.3086815-.6964884.6885681s.3086806.6885681.6964884.6885681z" fill="#fd982e"/></g></g><g><g><g><g><path d="m7.7973661 36.9831924 1.4631796-4.3332939 1.4631786 4.3332939h.7372303l-1.8693113-5.5370007c-.045126-.1327534-.1747322-.2188072-.3310976-.2188072-.1563663 0-.2859726.0860538-.3310986.2188072l-1.8689179 5.5370007z" fill="#312e4b"/></g></g><g><g><path d="m7.0605292 36.9831924h4.4004254v.3266411c0 1.2137032-.983902 2.1976089-2.197607 2.1976089h-.0052109c-1.2137051 0-2.1976075-.9839058-2.1976075-2.1976089z" fill="#fcb73e"/></g></g><g><g><path d="m10.0259895 39.3751755c-.2374287.0870476-.4907017.1345329-.7597713.1345329h-.0079222c-1.2109575 0-2.2002831-.9893227-2.2002831-2.2002335v-.3245277h1.5354357v.3245277c0 .6093903.2453508 1.1555023.6410809 1.5512314.221632.2216339.4907017.4036522.79146.5144692z" fill="#fd982e"/></g></g></g><g><g><g><path d="m19.5660934 36.9831924 1.4631805-4.3332939 1.4631786 4.3332939h.7372303l-1.8693123-5.5370007c-.045126-.1327534-.1747303-.2188072-.3310966-.2188072s-.2859726.0860538-.3310986.2188072l-1.8689175 5.5370007z" fill="#312e4b"/></g></g><g><g><path d="m18.829258 36.9831924h4.400425v.3266411c0 1.2137032-.983902 2.1976089-2.197607 2.1976089h-.005211c-1.2137051 0-2.197607-.9839058-2.197607-2.1976089z" fill="#f9b938"/></g></g><g><g><path d="m21.8029251 39.3751755c-1.4276695.5234299-2.9758987-.5242729-2.9758987-2.0657005v-.3245277h1.5354347v.3245277c0 .9688682.6205482 1.7635993 1.440464 2.0657005z" fill="#fd982e"/></g></g></g></g><g><g><path d="m21.439703 31.5986557c0 .3707466-.3009262.6716385-.6770191.6716385h-11.2351551c-.376092 0-.6770191-.3008919-.6770191-.6770172 0-.3707466.3009272-.6716404.6770191-.6716404h11.2351551c.3760929 0 .6770191.3008938.6770191.6770191z" fill="#f9b938"/></g></g><g><g><path d="m12.5745173 32.2678757h-3.0471516c-.3719635 0-.680644-.3007584-.680644-.6727695 0-.3719635.3086805-.6727219.680644-.6727219h3.0471516c-.3720112 0-.6727705.3007584-.6727705.6727219-.0000001.3720111.3007593.6727695.6727705.6727695z" fill="#fd982e"/></g></g></g></g></svg>