<svg id="Layer_3" height="512" viewBox="0 0 64 64" width="512" xmlns="http://www.w3.org/2000/svg" data-name="Layer 3"><path d="m4 38h56v24h-56z" fill="#77787c"/><path d="m6 38h54v22h-54z" fill="#9a9b9f"/><path d="m40 40v-8a5.664 5.664 0 0 1 4.961-5.62l3.039-.38v-3h6v3l3.039.38a5.664 5.664 0 0 1 4.961 5.62v8z" fill="#c2c3c5"/><path d="m44.961 26.38a5.664 5.664 0 0 0 -4.961 5.62v8h7v-13.875z" fill="#424344"/><path d="m57.039 26.38-2.039-.255v13.875h7v-8a5.664 5.664 0 0 0 -4.961-5.62z" fill="#424344"/><path d="m48 23v3l3 2 3-2v-3a5 5 0 0 1 -6 0z" fill="#deb2ae"/><path d="m54 24.591v1.409l-3 2-3-2v-1.409a11.207 11.207 0 0 0 6 0z" fill="#fbe2d9"/><path d="m58 16.5v-5.5a4 4 0 0 0 -4-4h-4a3 3 0 0 0 -3 3 3 3 0 0 0 -3 3v3.5" fill="#424344"/><path d="m44 13a3 3 0 0 1 3-3 3 3 0 0 1 3-3h4a3.958 3.958 0 0 1 1.292.232 3.976 3.976 0 0 1 .708 2.268 5.5 5.5 0 0 1 -5.5 5.5h-6.5z" fill="#5a5b5d"/><g fill="#deb2ae"><path d="m46 15v4a5 5 0 0 0 5 5 5 5 0 0 0 5-5v-4h-2.838a4.387 4.387 0 0 1 -4.162-3z"/><path d="m56 16h.5a2.5 2.5 0 0 1 2.5 2.5 2.5 2.5 0 0 1 -2.5 2.5h-.916"/><path d="m46 16h-.5a2.5 2.5 0 0 0 -2.5 2.5 2.5 2.5 0 0 0 2.5 2.5h.916"/></g><path d="m49 40 1-8-1-3 2-1 2 1-1 3 1 8z" fill="#29678c"/><path d="m50 32h2l1-3-2-1-2 1z" fill="#1f4d5e"/><path d="m53.162 16h2.838v3a5 5 0 0 1 -10 0v-3l3-3a4.387 4.387 0 0 0 4.162 3z" fill="#fbe2d9"/><path d="m51 28 4 2v-3.88l-1-.12z" fill="#77787c"/><path d="m47 26.12v3.88l4-2-3-2z" fill="#77787c"/><path d="m59 27a5.641 5.641 0 0 0 -1.961-.622h-.039v7.622h2z" fill="#d3ce48"/><path d="m24 40v-8a5.664 5.664 0 0 0 -4.961-5.62l-3.039-.38v-3h-6v3l-3.039.38a5.664 5.664 0 0 0 -4.961 5.62v8z" fill="#c2c3c5"/><path d="m6.961 26.38a5.664 5.664 0 0 0 -4.961 5.62v8h7v-13.875z" fill="#424344"/><path d="m19.039 26.38-2.039-.255v13.875h7v-8a5.664 5.664 0 0 0 -4.961-5.62z" fill="#424344"/><path d="m16 23v3l-3 2-3-2v-3a5 5 0 0 0 6 0z" fill="#deb2ae"/><path d="m10 24.591v1.409l3 2 3-2v-1.409a10.54 10.54 0 0 1 -3 .409 10.54 10.54 0 0 1 -3-.409z" fill="#fbe2d9"/><path d="m6 16.5v-5.5a4 4 0 0 1 4-4h4a3 3 0 0 1 3 3 3 3 0 0 1 3 3v3.5" fill="#424344"/><path d="m20 13a3 3 0 0 0 -3-3 3 3 0 0 0 -3-3h-4a3.958 3.958 0 0 0 -1.292.232 3.976 3.976 0 0 0 -.708 2.268 5.5 5.5 0 0 0 5.5 5.5h6.5z" fill="#5a5b5d"/><path d="m18 15v4a5 5 0 0 1 -5 5 5 5 0 0 1 -5-5v-4h2.838a4.387 4.387 0 0 0 4.162-3z" fill="#deb2ae"/><path d="m8 16h-.5a2.5 2.5 0 0 0 -2.5 2.5 2.5 2.5 0 0 0 2.5 2.5h.916" fill="#deb2ae"/><path d="m18 16h.5a2.5 2.5 0 0 1 2.5 2.5 2.5 2.5 0 0 1 -2.5 2.5h-.916" fill="#deb2ae"/><path d="m15 40-1-8 1-3-2-1-2 1 1 3-1 8z" fill="#29678c"/><path d="m14 32h-2l-1-3 2-1 2 1z" fill="#1f4d5e"/><path d="m10.838 16h-2.838v3a5 5 0 0 0 10 0v-3l-3-3a4.387 4.387 0 0 1 -4.162 3z" fill="#fbe2d9"/><path d="m13 28-4 2v-3.88l1-.12z" fill="#77787c"/><path d="m17 26.12v3.88l-4-2 3-2z" fill="#77787c"/><path d="m21 27a5.641 5.641 0 0 0 -1.961-.622h-.039v7.622h2z" fill="#d3ce48"/><path d="m17 39v23h29.999l.001-23z" fill="#b4b5b9"/><path d="m19 39h27.999v21h-27.999z" fill="#c2c3c5"/><path d="m21 43h22v12h-22z" fill="#955a21"/><path d="m47 38h15v4h-15" fill="#ab692a"/><path d="m17 38h-15v4h15" fill="#ab692a"/><path d="m43 35v-8a5.664 5.664 0 0 0 -4.961-5.62l-3.039-.38v-3h-6v3l-3.039.38a5.664 5.664 0 0 0 -4.961 5.62v8z" fill="#c2c3c5"/><path d="m25.961 21.38a5.664 5.664 0 0 0 -4.961 5.62v8h7v-13.875z" fill="#77787c"/><path d="m38.039 21.38-2.039-.255v13.875h7v-8a5.664 5.664 0 0 0 -4.961-5.62z" fill="#77787c"/><path d="m35 18v3l-3 2-3-2v-3a5 5 0 0 0 6 0z" fill="#deb2ae"/><path d="m29 19.591v1.409l3 2 3-2v-1.409a11.207 11.207 0 0 1 -6 0z" fill="#fbe2d9"/><path d="m25 11.5v-5.5a4 4 0 0 1 4-4h4a3 3 0 0 1 3 3 3 3 0 0 1 3 3v3.5" fill="#424344"/><path d="m39 8a3 3 0 0 0 -3-3 3 3 0 0 0 -3-3h-4a3.958 3.958 0 0 0 -1.292.232 3.976 3.976 0 0 0 -.708 2.268 5.5 5.5 0 0 0 5.5 5.5h6.5z" fill="#5a5b5d"/><path d="m37 10v4a5 5 0 0 1 -5 5 5 5 0 0 1 -5-5v-4h2.838a4.387 4.387 0 0 0 4.162-3z" fill="#deb2ae"/><path d="m27 11h-.5a2.5 2.5 0 0 0 -2.5 2.5 2.5 2.5 0 0 0 2.5 2.5h.916" fill="#deb2ae"/><path d="m37 11h.5a2.5 2.5 0 0 1 2.5 2.5 2.5 2.5 0 0 1 -2.5 2.5h-.916" fill="#deb2ae"/><path d="m34 35-1-8 1-3-2-1-2 1 1 3-1 8z" fill="#29678c"/><path d="m33 27h-2l-1-3 2-1 2 1z" fill="#1f4d5e"/><path d="m29.838 11h-2.838v3a5 5 0 0 0 10 0v-3l-3-3a4.387 4.387 0 0 1 -4.162 3z" fill="#fbe2d9"/><path d="m32 23-4 2v-3.88l1-.12z" fill="#424344"/><path d="m36 21.12v3.88l-4-2 3-2z" fill="#424344"/><path d="m40 22a5.641 5.641 0 0 0 -1.961-.622h-.039v7.622h2z" fill="#d3ce48"/><path d="m15 35h34v4h-34z" fill="#955a21"/></svg>