<svg id="Layer_1" enable-background="new 0 0 510 510" height="512" viewBox="0 0 510 510" width="512" xmlns="http://www.w3.org/2000/svg"><g><path d="m220.94 242.453c-32.154 8.455-55.94 37.775-55.94 72.547v30h90l10-43.5-10-46.499z" fill="#2ee6a8"/><path d="m255 255.001v89.999h90v-30c0-34.772-23.786-64.094-55.942-72.547z" fill="#24b3b3"/><path d="m160.606 139.394-109.393-109.394h68.787v-30h-120v120h30v-68.787l109.394 109.393z" fill="#6cf"/><path d="m390 0v30h68.787l-109.393 109.394 21.212 21.212 109.394-109.393v68.787h30v-120z" fill="#fc6"/><path d="m480 390v68.787l-79.394-79.393-21.212 21.212 79.393 79.394h-68.787v30h120v-120z" fill="#24b3b3"/><path d="m130.606 400.606-21.212-21.212-79.394 79.393v-68.787h-30v120h120v-30h-68.787z" fill="#ff9000"/><path d="m465 240h45v30h-45z" fill="#283366"/><path d="m390 240h45v30h-45z" fill="#283366"/><path d="m0 240h45v30h-45z" fill="#404a80"/><path d="m75 240h45v30h-45z" fill="#404a80"/><path d="m202.5 202.5c0 28.994 23.504 52.5 52.5 52.5l10-52.5-10-52.5c-28.994 0-52.5 23.504-52.5 52.5z" fill="#ffcebf"/><path d="m307.5 202.5c0-28.994-23.504-52.5-52.5-52.5v105c28.994 0 52.5-23.504 52.5-52.5z" fill="#ffbfab"/><path d="m240 0v45h15l10-23.333-10-21.667z" fill="#404a80"/><path d="m255 0h15v45h-15z" fill="#283366"/><path d="m240 75v45h15l10-23.333-10-21.667z" fill="#404a80"/><path d="m255 75h15v45h-15z" fill="#283366"/><path d="m240 390v45h15l10-23.333-10-21.667z" fill="#404a80"/><path d="m255 390h15v45h-15z" fill="#283366"/><path d="m240 465v45h15l10-23.333-10-21.667z" fill="#404a80"/><path d="m255 465h15v45h-15z" fill="#283366"/></g></svg>