<svg id="Layer_1" enable-background="new 0 0 53 53" height="512" viewBox="0 0 53 53" width="512" xmlns="http://www.w3.org/2000/svg"><g id="_x33_"><g><g><path d="m33.869709 3.7880769c-.2600098-.1699829-.6500244-.1300049-1.0700073.1000366l.2891273 11.416254-11.6992207 2.9125404-2.848156 3.1403217c-.8400269.4799805-2.8711529 1.8083363-2.8711529 2.7583485l2.8711529 9.9584961-2.1350079 10.1245461-5.5767136 5.2394829c0 .4599609.1699829.8099976.4400024.9599609l-2.0400391-1.1900024c-.2700195-.1499634-.4400024-.4799805-.4400024-.9399414l-.029968-11.5900273-.0300293-13.8099995-.0200195-5.7000122c0-.9400024.6800537-2.1099854 1.5-2.5999756l3.9500122-2.2700195 11.8099976-6.8200068 4.8099976-2.7600098c.4000244-.2600098.7800293-.2699585 1.0700073-.1199951z" fill="#38425d"/></g><g><g><g><g><g><g><path d="m32.8014793 3.8919029c.8358459-.4825764 1.5140991-.096066 1.5167847.8502092l.088131 31.0876198c.0026855.9462776-.6711655 2.1134224-1.5070114 2.5960007l-20.5520106 11.8657065c-.8358469.4825783-1.514101.0960693-1.5167837-.8502083l-.0881338-31.0876198c-.0026827-.9462757.6711664-2.1134224 1.5070133-2.5959988z" fill="#2e374c"/><path d="m32.3534241 36.4045639-19.4639464 11.2240677-.0770845-29.8409119 19.4447937-11.2433357z" fill="#fff"/><path d="m27.6254425 6.9231725-.4077759-.2369385-1.3041992.7529907c-.1205444-.6478271-.414856-1.1421509-.8753052-1.4046021-.000061-.000061-.0002441-.000061-.0003052-.0001221l-.4074097-.2368164c-.605835-.3521118-1.4150391-.2687378-2.2771606.2290649-1.7003174.9816895-3.0959473 3.3225713-3.1925659 5.3111577l-1.6463013.9505005.0089722 3.1619873.4077759.2369385 9.7032471-5.6021729zm-3.3751221.0530395c.2753906.2515869.4472046.6370239.4857178 1.1423955.0001221.0010376.0001221.0020752.0002441.0031738l-2.3589478 1.362793-.001709-.0010376-1.8996582 1.0953979c.2662964-1.3280029 1.1873169-2.7271733 2.2877197-3.3624883.5513307-.3182982 1.065796-.3887328 1.4866334-.2402343zm.8250122 1.422669.0686646-.0396729.000061.000061z" fill="#d9dddd"/><g><g enable-background="new"><g><path d="m25.9762135 7.8753586-.4077492-.236958 1.6492252-.9521814.4077492.236958z" fill="#cccece"/></g><g><path d="m24.7363243 8.1223145c-.0000935-.0012455-.0001888-.00249-.0002823-.0037346.2210712.1284723.1866741.10849.4077473.2369614.0000954.0012407.0001907.0024862.0002842.0037317-.1989765-.1156283-.2087822-.1213217-.4077492-.2369585z" fill="#f9bb4a"/></g><g><path d="m24.736042 8.1185799c-.0470009-.6166782-.2834377-1.066762-.6774845-1.295764l.6632385.3854341c.3940487.2290006.3749943.5306096.4219952 1.1472883-.2210751-.1284684-.1866779-.1084861-.4077492-.2369584z" fill="#b2b0af"/></g><g><path d="m19.5684547 11.5748796-.407753-.2369518c.0966434-1.9885883 1.492239-4.3294973 3.1925564-5.3111753.862175-.497777 1.6713772-.5811749 2.2771721-.2290583l.4077473.2369633c-.605793-.3521223-1.4149952-.2687244-2.2771702.229053-1.7003155.981678-3.0959129 3.3225865-3.1925526 5.3111691z" fill="#eaefef"/></g><g><path d="m17.9311619 15.6873503-.4077492-.2369576-.0089645-3.1620044.4077491.2369585z" fill="#bcbcbc"/></g><g><path d="m17.9221973 12.5253468-.4077491-.2369585 1.6462574-.9504672.4077491.2369585z" fill="#cccece"/></g></g></g></g></g></g></g></g><g><g><path d="m19.3867798 32.593708-5.1815281 2.9962578-.014988-5.9398975 5.1814824-2.9962578z" fill="#7dd17d"/><path d="m19.4092846 41.8078003-5.1814823 2.9812202-.0150337-5.9398956 5.1890449-2.988739z" fill="#efc348"/><path d="m19.3642292 23.3871346-5.1889992 2.9962558-.0150327-5.9398956 5.189044-2.9962578z" fill="#4878fe"/></g></g><g><g><g><path d="m31.2714787 30.6867371-10.5606652 6.091278v1.0513344l10.5606652-6.0973263z" fill="#eaefef"/></g></g><g><g><path d="m26.6409283 35.9758949-5.9301339 3.4204941v1.0512505l5.9301339-3.4237976z" fill="#eaefef"/></g></g></g><g><g><g><path d="m31.2714787 21.3572292-10.5606652 6.0912781v1.0513363l10.5606652-6.0973282z" fill="#eaefef"/></g></g><g><g><path d="m26.6409283 26.6463852-5.9301339 3.4204979v1.0512466l5.9301339-3.4237957z" fill="#eaefef"/></g></g></g><g><g><g><path d="m31.2714787 11.9316339-10.5606652 6.0912772v1.0513363l10.5606652-6.0973282z" fill="#eaefef"/></g></g><g><g><path d="m26.6409283 17.2207909-5.9301339 3.4204959v1.0512467l5.9301339-3.4237957z" fill="#eaefef"/></g></g></g><g><path d="m18.3497276 19.482193.441164.3177051-2.8072176 4.5485363-1.2501382-.9289245.316122-.499609.808939.5982227z" fill="#fff"/></g><g><path d="m18.3497276 28.685009.441164.3177032-2.8072176 4.5485383-1.2501382-.9289246.316122-.4996071.808939.5982208z" fill="#fff"/></g><g><path d="m18.3497276 37.887825.441164.3177033-2.8072176 4.5485382-1.2501382-.9289246.316122-.4996109.808939.5982246z" fill="#fff"/></g><g><g><g><g><g><g enable-background="new"><g><path d="m42.2196846 24.598074c-1.2799683-.75-1.8116493 1.0798531-3.78162 2.2198067-3.9099731 2.2600098-5.9636803 5.8296299-5.9536705 10.3296299.0100098 2.2299805-1.5646973 3.9705849-.2946777 4.7105751l-2.1500244-1.25c-1.2699585-.7399902-2.0599976-2.3099976-2.0599976-4.539978-.0200195-4.5000019 3.1400146-9.9700336 7.0499878-12.2300434 1.9700317-1.1399536 3.7600098-1.2399902 5.0400391-.4899902z" fill="#bbbec6"/></g><g><path d="m37.1838531 25.0870495c3.9122276-2.2587261 7.0936928-.4443626 7.1064339 4.0497456.0127449 4.4954529-3.148056 9.9708519-7.0602837 12.2295761-3.9122314 2.258728-7.0931072.4446983-7.1058521-4.0507545-.0127411-4.4941064 3.1474705-9.9698392 7.0597019-12.2285672z" fill="#9b9ea5"/></g></g></g><g><path d="m41.0178833 25.6540966c1.1586456.5977135 1.8856888 1.9635983 1.8913498 3.9380836.0100632 3.8280048-2.6882896 8.5011845-6.0177879 10.4238796-1.4509392.8378754-2.7852669 1.0160866-3.8302383.6342278 1.0871162.5607986 2.5540352.44561 4.1657448-.4851112 3.3294983-1.9226913 6.0278511-6.595871 6.0177917-10.4238777-.0061913-2.1592884-.8739319-3.5928002-2.2268601-4.0872021z" fill="#bbbec6"/><path d="m42.9090462 29.5922031c.0009155.2286739-.0082321.4600945-.0274429.6942558-.2872124 3.6825695-2.8602486 7.9221821-5.9903412 9.7296238-1.4507065.8378563-2.7852516 1.0162239-3.829834.6338806-1.1589165-.5972977-1.8861008-1.9629364-1.8915901-3.9377632-.0109749-3.7658043 2.6041374-8.3539219 5.8604584-10.3305779.0521393-.0320187.1051865-.0631142.1573257-.0933018.7866402-.4546013 1.5385208-.715292 2.2291145-.7966957.010067-.0018311.0192108-.0027466.0283546-.0036621.0420799-.0045738.084156-.0091457.1253128-.0118923.0036621 0 .0073204 0 .010067-.0009155.2972755-.023777.5826607-.0137177.8543205.0292702.0182953.003664.0365906.0064049.0548859.0091515.1829414.032011.3594742.0795784.5277748.1408615 1.1589241.5972996 1.8861046 1.9629383 1.891594 3.9377651z" fill="#fff"/></g><g><g><path d="m37.0219421 26.8444424c.10746-.0620403.1947594-.0116177.1951103.1118584l.0029564 1.0428314c.000351.123476-.0863838.2737026-.19384.335743s-.1953392.0126266-.1956902-.1108494l-.0029564-1.0428314c-.0003471-.1234761.0869637-.2747117.1944199-.336752z" fill="#4a4a4a"/></g><g><path d="m37.0534821 37.9693298c.1074562-.0620422.1947594-.012291.1951065.1111832l.0029602 1.0435028c.000351.1234779-.0863838.2737045-.19384.335743-.1074562.0620422-.1953392.0126266-.1956902-.1108475l-.0029564-1.0435028c-.000351-.123478.0869636-.2740402.1944199-.3360787z" fill="#4a4a4a"/></g><g><path d="m32.6521645 35.4611549c.1074562-.0620422.1947594-.0116234.1951103.1118546.000351.1234741-.0863838.2737045-.19384.335743l-.9075375.5239677c-.1074562.0620384-.195343.0126305-.195694-.1108475-.000349-.1234741.0869675-.2747116.1944256-.33675z" fill="#4a4a4a"/></g><g><path d="m42.3337555 29.8714867c.1074562-.0620403.1947594-.0116215.1951065.1118546.000351.123476-.08638.2737026-.1938362.335743l-.908123.5243053c-.10746.0620403-.1947594.012291-.1951103-.1111851-.0003471-.123476.0863838-.274374.19384-.3364124z" fill="#4a4a4a"/></g><g><path d="m33.2831764 30.7879467c.0498581-.0287857.0997047-.0357189.1377907-.0140171l.6439095.3676147c.0761681.0434074.0765686.1850014.0008965.3160725-.0378342.0655327-.0875587.1160889-.1373482.1448326-.0497818.0287437-.0996323.0356789-.1377182.0139771l-.6444893-.3666077c-.0761681-.0434074-.0765686-.1850014-.0008965-.3167439.0381241-.0657024.0879974-.1163425.1378555-.1451282z" fill="#4a4a4a"/></g><g><path d="m40.1512222 34.7019234c.0497894-.0287437.0996399-.035511.137722-.0134697l.6439056.3669434c.0761719.0434036.0765724.1849976.0008965.3160706-.0378342.0655327-.0875587.1160889-.1373482.1448364-.0497818.0287399-.0996323.035675-.1377144.0139732l-.6439095-.3669472c-.0767517-.0430679-.0771523-.1846619-.0008965-.3160667.0378343-.0658761.0875627-.1165963.1373445-.14534z" fill="#4a4a4a"/></g><g><path d="m33.9473686 38.2837219c.0497856-.0287437.0996361-.0355148.1377182-.0134697.0761681.0434036.0765686.1849976.0008965.3160667l-.6397247 1.1080551c-.037838.0655327-.0875626.1160889-.1374207.1448746s-.0998535.0358047-.1382294.0142708c-.0761681-.0434074-.0765686-.1850014-.0008965-.3160706l.6403084-1.108387c.037838-.0658759.0875626-.1165961.1373482-.1453399z" fill="#4a4a4a"/></g><g><path d="m40.7707405 26.4650002c.0497856-.0287437.0996361-.0356789.1377182-.0139751.0761719.044075.0765724.1856689.0008965.3167419l-.6397247 1.1080513c-.0378342.0655346-.0875626.1160889-.1373482.1448345-.0497856.0287418-.0996361.035677-.1377182.0139751-.0767517-.0430698-.0771523-.1846638-.0008965-.3160706l.6397285-1.1087265c.0378342-.0655326.0875588-.1160869.1373444-.1448306z" fill="#4a4a4a"/></g></g></g></g></g><g><path d="m37.1002731 29.7779865c.1086769-.0627441.1965981-.0126305.1969414.1082211l.0080643 2.8440781 3.0605659-1.7670174c.1086998-.0627594.1966209-.0126457.1969757.112236.0003433.1208515-.0870094.2721615-.1957092.3349209l-3.2568779 1.8803577c-.0490952.028347-.1017303.0345268-.1369133.0144844-.0351601-.0200462-.0563736-.0683289-.0565338-.1247253l-.0087013-3.0696716c-.0003434-.1208516.0870094-.2721577.1921882-.3328839z" fill="#ff5230"/></g><g><path d="m37.2052422 32.3153267c.3308258-.1910019.5998573-.0375748.6009331.342453.0010796.380146-.2662048.8431549-.5970306 1.0341568-.330822.1910019-.5998039.0376015-.6008835-.3425407-.0010758-.3800278.2661552-.8430672.596981-1.0340691z" fill="#ff5230"/></g></g></g></g><g><path d="m25.1462574 8.3579397-2.3620148 1.3645163-2.3808536 1.3739071-.4078999-.2373543 2.3808537-1.3739071 2.3620147-1.3645163z" fill="#cccece"/></g><g><path d="m25.9762135 7.8753586 1.6492252-.9521813.0089645 3.162004-9.7032413 5.602169-.0089645-3.1620035 1.6462574-.9504671c.0966396-1.9885826 1.4922371-4.3294911 3.1925526-5.3111691.862175-.4977775 1.6713772-.5811753 2.2771721-.2290583.5605639.3194885.8904246.9692463.938034 1.8407063zm-.83214.4839144c-.0469151-.6263976-.2889233-1.0813951-.6927795-1.3080745-.44907-.2593784-1.0477085-.2041888-1.6875858.1652436-1.2437191.7180614-2.2619705 2.412384-2.3601341 3.8762808z" fill="#d9dddd"/></g></g></svg>