<svg height="512" viewBox="0 0 64 64" width="512" xmlns="http://www.w3.org/2000/svg"><g id="_13-Case" data-name="13-Case"><path d="m31 18h27v5h-27z" fill="#b56d3c"/><path d="m17 18v41a4 4 0 0 1 -8 0v-41z" fill="#b56d3c"/><path d="m9 47v8l-8-8z" fill="#cdd2e1"/><path d="m43 1v54h-34v-8h-8v-46z" fill="#e9edf5"/><path d="m5 14h8v6h-8z" fill="#4a98f7"/><path d="m9 14h4v6h-4z" fill="#2864f0"/><path d="m5 24h8v6h-8z" fill="#4a98f7"/><path d="m5 34h8v6h-8z" fill="#4a98f7"/><path d="m9 24h4v6h-4z" fill="#2864f0"/><path d="m9 34h4v6h-4z" fill="#2864f0"/><path d="m31 23h32v36a4 4 0 0 1 -4 4h-46a4 4 0 0 0 4-4v-41h14z" fill="#ffda45"/><path d="m58.5 23v31.5a4 4 0 0 1 -4 4h-37.5v.5a4 4 0 0 1 -4 4h46a4 4 0 0 0 4-4v-36z" fill="#ffa426"/><path d="m26 18h5v5h-5z" fill="#ffa426"/><path d="m46 52v4h-12v-4l2-2h8z" fill="#cdd2e1"/><path d="m44 50h-3l2 2v4h3v-4z" fill="#afb4c8"/><path d="m24 42h10a5 5 0 0 1 -10 0z" fill="#cdd2e1"/><path d="m46 42h10a5 5 0 0 1 -10 0z" fill="#cdd2e1"/><path d="m53 42a4.984 4.984 0 0 1 -3.5 4.745 4.936 4.936 0 0 0 1.5.255 5 5 0 0 0 5-5z" fill="#afb4c8"/><path d="m31 42a4.984 4.984 0 0 1 -3.5 4.745 4.936 4.936 0 0 0 1.5.255 5 5 0 0 0 5-5z" fill="#afb4c8"/><g fill="#707789"><path d="m39 28h2v22h-2z"/><path d="m32 42-3-6.941-3 6.941h-2l4.126-9.486a1.04 1.04 0 0 1 1.748 0l4.126 9.486z"/><path d="m54 42-3-6.941-3 6.941h-2l4.126-9.486a1.04 1.04 0 0 1 1.748 0l4.126 9.486z"/><path d="m26 32h28v2h-28z"/><path d="m31 55h18v2h-18z"/><path d="m51 55h2v2h-2z"/></g><path d="m4 5h2v2h-2z" fill="#cdd2e1"/><path d="m8 5h16v2h-16z" fill="#cdd2e1"/><path d="m4 9h14v2h-14z" fill="#cdd2e1"/><path d="m16 13h2v2h-2z" fill="#cdd2e1"/><path d="m20 13h20v2h-20z" fill="#cdd2e1"/></g></svg>