<svg id="Layer_1" height="512" viewBox="0 0 64 64" width="512" xmlns="http://www.w3.org/2000/svg" data-name="Layer 1"><circle cx="59" cy="32" fill="#cc5a6f" r="4"/><circle cx="5" cy="32" fill="#3987bf" r="4"/><rect fill="#4cbf9a" height="24" rx="1" width="38" x="13" y="20"/><g fill="#00836d"><path d="m50 20h-5a6 6 0 0 0 6 6v-5a1 1 0 0 0 -1-1z"/><path d="m51 43v-5a6 6 0 0 0 -6 6h5a1 1 0 0 0 1-1z"/><path d="m14 20h5a6 6 0 0 1 -6 6v-5a1 1 0 0 1 1-1z"/><path d="m13 43v-5a6 6 0 0 1 6 6h-5a1 1 0 0 1 -1-1z"/><circle cx="32" cy="32" r="7"/></g><path d="m32 31.27539c-.542 0-1-.333-1-.72656s.458-.72656 1-.72656 1 .333 1 .72656h1.5a2.26927 2.26927 0 0 0 -1.75-2.11283v-1.436h-1.5v1.436a2.26927 2.26927 0 0 0 -1.75 2.11286 2.37777 2.37777 0 0 0 2.5 2.22653c.542 0 1 .333 1 .72656s-.458.72657-1 .72657-1-.333-1-.72657h-1.5a2.26927 2.26927 0 0 0 1.75 2.11286v1.21919h1.5v-1.21919a2.26927 2.26927 0 0 0 1.75-2.11281 2.37777 2.37777 0 0 0 -2.5-2.22661z" fill="#c2daf2"/><path d="m49 6.25h-39v-3.25l-7 4 7 4v-3.25h39a9.26032 9.26032 0 0 1 9.25 9.25v10h1.5v-10a10.762 10.762 0 0 0 -10.75-10.75z" fill="#7d8db3"/><path d="m61 57-7-4v3.25h-39a9.26032 9.26032 0 0 1 -9.25-9.25v-10h-1.5v10a10.762 10.762 0 0 0 10.75 10.75h39v3.25z" fill="#7d8db3"/></svg>