<svg id="Layer_1" height="512" viewBox="0 0 512 512" width="512" xmlns="http://www.w3.org/2000/svg"><g clip-rule="evenodd" fill-rule="evenodd"><path d="m87.287 121.551h112.174c20.559 0 37.383 16.824 37.383 37.386v98.901h-186.938v-98.901c0-20.562 16.824-37.386 37.381-37.386" fill="#5466af"/><path d="m95.43 121.551h95.887v29.399c0 16.169-13.229 29.398-29.398 29.398h-37.089c-16.174 0-29.4-13.229-29.4-29.398z" fill="#ebebeb"/><path d="m143.373 12.703c32.475 0 58.801 26.323 58.801 58.797 0 32.471-26.326 58.794-58.801 58.794-32.469 0-58.791-26.323-58.791-58.794 0-32.474 26.322-58.797 58.791-58.797" fill="#eba596"/><path d="m314.035 121.551h112.168c20.561 0 37.387 16.824 37.387 37.386v98.901h-186.944v-98.901c0-20.562 16.827-37.386 37.389-37.386" fill="#5466af"/><path d="m322.178 121.551h95.881v29.399c0 16.169-13.229 29.398-29.398 29.398h-37.09c-16.166 0-29.393-13.229-29.393-29.398z" fill="#ebebeb"/><path d="m370.117 12.703c32.473 0 58.795 26.323 58.795 58.797 0 32.471-26.322 58.794-58.795 58.794-32.475 0-58.799-26.323-58.799-58.794 0-32.474 26.325-58.797 58.799-58.797" fill="#eba596"/><path d="m32.574 265.84h446.852v233.457h-446.852z" fill="#b17139"/><path d="m99.326 328.669h313.348c0 14.488 11.746 26.232 26.234 26.232v77.646c-14.488 0-26.234 11.742-26.234 26.229h-313.348c0-14.487-11.746-26.229-26.23-26.229v-77.646c14.484 0 26.23-11.744 26.23-26.232" fill="#f0b729"/><path d="m264.33 458.777h-16.654v-92.831c0-4.601 3.729-8.326 8.328-8.326 4.596 0 8.326 3.726 8.326 8.326z" fill="#c6a133"/><path d="m28.652 243.529h454.698c12.268 0 22.311 10.04 22.311 22.311v21.565c0 .41-.336.743-.746.743h-497.827c-.412 0-.748-.333-.748-.743v-21.565c0-12.271 10.039-22.311 22.312-22.311" fill="#916438"/></g></svg>