<svg height="512" viewBox="0 0 64 64" width="512" xmlns="http://www.w3.org/2000/svg"><g id="Icons"><g><g><path d="m10 24c-3.314 0-6-2.686-6-6 0-3.314 2.686-6 6-6 3.314 0 6 2.686 6 6 0 3.314-2.686 6-6 6z" fill="#f0c8a0"/></g><g><path d="m4 18c0-3.314 2.686-6 6-6 3.314 0 6 2.686 6 6z" fill="#fab400"/></g><g><path d="m8 18c0-2.611 1.671-4.827 4-5.651-.626-.222-1.298-.349-2-.349-3.314 0-6 2.686-6 6s2.686 6 6 6c.702 0 1.374-.127 2-.349-2.329-.824-4-3.04-4-5.651z" fill="#d2aa82"/></g><g><path d="m12 12.349c-.626-.222-1.298-.349-2-.349-3.314 0-6 2.686-6 6h4c0-2.611 1.671-4.827 4-5.651z" fill="#dc9600"/></g><g><path d="m16 40h-12v-12c0-2.209 1.791-4 4-4h4c2.209 0 4 1.791 4 4z" fill="#64c8f0"/></g><g><path d="m4 40v4c0 2.209 1.791 4 4 4h10v8h6v-12c0-2.209-1.791-4-4-4z" fill="#fa6450"/></g><g><path d="m12 24h-4c-2.209 0-4 1.791-4 4v12h4v-12c0-2.209 1.791-4 4-4z" fill="#46aad2"/></g><g><path d="m8 44v-4h-4v4c0 2.209 1.791 4 4 4h4c-2.209 0-4-1.791-4-4z" fill="#dc4632"/></g><g><path d="m18 48h2v8h-2z" fill="#dc4632"/></g><g><path d="m26 60h-8v-4h6c1.105 0 2 .895 2 2z" fill="#505050"/></g><g><path d="m18 56h2v4h-2z" fill="#3c3c3c"/></g><g><path d="m4 50c0 1.105.895 2 2 2h12v-4h-12c-1.105 0-2 .895-2 2z" fill="#505050"/></g><g><path d="m6 50c0-1.105.895-2 2-2h-2c-1.105 0-2 .895-2 2s.895 2 2 2h2c-1.105 0-2-.895-2-2z" fill="#3c3c3c"/></g><g><path d="m21.893 32h-9.893v-4h-4v4c0 2.209 1.791 4 4 4h10c1.215 0 2.176-1.083 1.973-2.336-.16-.983-1.084-1.664-2.08-1.664z" fill="#f0c8a0"/></g><g><path d="m10 32v-4h-2v4c0 2.209 1.791 4 4 4h2c-2.209 0-4-1.791-4-4z" fill="#d2aa82"/></g><g><path d="m8 52h4v4h-4z" fill="#f0f0f0"/></g><g><path d="m14 60h-8c-1.105 0-2-.895-2-2 0-1.105.895-2 2-2h8c1.105 0 2 .895 2 2 0 1.105-.895 2-2 2z" fill="#505050"/></g><g><path d="m8 52h2v4h-2z" fill="#d2d2d2"/></g><g><path d="m6 58c0-1.105.895-2 2-2h-2c-1.105 0-2 .895-2 2s.895 2 2 2h2c-1.105 0-2-.895-2-2z" fill="#3c3c3c"/></g><g><path d="m54 24c-3.314 0-6-2.686-6-6 0-3.314 2.686-6 6-6 3.314 0 6 2.686 6 6 0 3.314-2.686 6-6 6z" fill="#f0c8a0"/></g><g><path d="m48 18c0-3.314 2.686-6 6-6 3.314 0 6 2.686 6 6z" fill="#fab400"/></g><g><path d="m52 18c0-2.611 1.671-4.827 4-5.651-.626-.222-1.298-.349-2-.349-3.314 0-6 2.686-6 6s2.686 6 6 6c.702 0 1.374-.127 2-.349-2.329-.824-4-3.04-4-5.651z" fill="#d2aa82"/></g><g><path d="m56 12.349c-.626-.222-1.298-.349-2-.349-3.314 0-6 2.686-6 6h4c0-2.611 1.671-4.827 4-5.651z" fill="#dc9600"/></g><g><path d="m60 40h-12v-12c0-2.209 1.791-4 4-4h4c2.209 0 4 1.791 4 4z" fill="#fa6450"/></g><g><path d="m60 40v4c0 2.209-1.791 4-4 4h-10v8h-6v-12c0-2.209 1.791-4 4-4z" fill="#64c8f0"/></g><g><path d="m46 40h-2c-2.209 0-4 1.791-4 4v12h2v-12c0-2.209 1.791-4 4-4z" fill="#46aad2"/></g><g><path d="m56 24h-4c-2.209 0-4 1.791-4 4v12h4v-12c0-2.209 1.791-4 4-4z" fill="#dc4632"/></g><g><path d="m38 54.556v-10.556c0-1.538.586-2.937 1.54-4h-15.08c.954 1.063 1.54 2.462 1.54 4v10.556c1.19.694 2 1.97 2 3.444v2h8v-2c0-1.474.81-2.75 2-3.444z" fill="#fab400"/></g><g><path d="m24.46 40h15.08c1.099-1.224 2.688-2 4.46-2h-24c1.771 0 3.36.776 4.46 2z" fill="#be7800"/></g><g><path d="m38 60h8v-4h-6c-1.105 0-2 .895-2 2z" fill="#505050"/></g><g><path d="m42 56h-2c-1.105 0-2 .895-2 2v2h2v-2c0-1.105.895-2 2-2z" fill="#3c3c3c"/></g><g><path d="m60 50c0 1.105-.895 2-2 2h-12v-4h12c1.105 0 2 .895 2 2z" fill="#505050"/></g><g><path d="m42.107 32h9.893v-4h4v4c0 2.209-1.791 4-4 4h-10c-1.215 0-2.176-1.083-1.973-2.336.16-.983 1.084-1.664 2.08-1.664z" fill="#f0c8a0"/></g><g><path d="m52 28h2v4h-2z" fill="#d2aa82"/></g><g><path d="m42.027 33.664c.16-.983 1.083-1.664 2.08-1.664h-2c-.996 0-1.92.681-2.08 1.664-.203 1.253.758 2.336 1.973 2.336h2c-1.215 0-2.176-1.083-1.973-2.336z" fill="#d2aa82"/></g><g><path d="m52 52h4v4h-4z" fill="#f0f0f0"/></g><g><path d="m58 60h-8c-1.105 0-2-.895-2-2 0-1.105.895-2 2-2h8c1.105 0 2 .895 2 2 0 1.105-.895 2-2 2z" fill="#505050"/></g><g><path d="m52 52h2v4h-2z" fill="#d2d2d2"/></g><g><path d="m50 58c0-1.105.895-2 2-2h-2c-1.105 0-2 .895-2 2s.895 2 2 2h2c-1.105 0-2-.895-2-2z" fill="#3c3c3c"/></g><g><circle cx="32" cy="12" fill="#3cc8b4" r="8"/></g><g><path d="m26 12c0-4.079 3.055-7.438 7-7.931-.328-.041-.661-.069-1-.069-4.418 0-8 3.582-8 8s3.582 8 8 8c.339 0 .672-.028 1-.069-3.945-.493-7-3.852-7-7.931z" fill="#1eaa96"/></g><g><path d="m37 10-6 6-4-4 2-2 2 2 4-4z" fill="#f0f0f0"/></g><g><path d="m46 48h2v4h-2z" fill="#3c3c3c"/></g><g><path d="m28 28v8h-4v2h6v-10z" fill="#505050"/></g><g><path d="m36 28v8h4v2h-6v-10z" fill="#505050"/></g></g></g></svg>