<svg enable-background="new 0 0 512.003 512.003" height="512" viewBox="0 0 512.003 512.003" width="512" xmlns="http://www.w3.org/2000/svg"><path d="m345 .001h-330c-8.284 0-15 6.716-15 15v482c0 8.284 6.716 15 15 15h330c8.284 0 15-6.716 15-15v-482c0-8.284-6.716-15-15-15zm-15 482h-300v-452h300z"/><path d="m277.68 354.521-30.893 20.596c-9.431 6.287-5.972 17.103-6.715 22.967l-38.624-15.057c-9.818-3.826-20.448 3.416-20.448 13.974v21.553l-7.434 4.508c-7.084 4.295-9.344 13.52-5.049 20.604 4.282 7.062 13.501 9.356 20.604 5.049l14.656-8.887c9.886-5.994 6.608-16.802 7.223-20.879l38.552 15.029c9.779 3.812 20.413-3.367 20.448-13.926l.081-24.409 24.239-16.16c6.894-4.595 8.756-13.908 4.16-20.801-4.594-6.894-13.909-8.755-20.8-4.161z"/><path d="m130 121.001h100c8.284 0 15-6.716 15-15s-6.716-15-15-15h-100c-8.284 0-15 6.716-15 15s6.716 15 15 15z"/><path d="m75 181.001h210c8.284 0 15-6.716 15-15s-6.716-15-15-15h-210c-8.284 0-15 6.716-15 15s6.716 15 15 15z"/><path d="m75 241.001h210c8.284 0 15-6.716 15-15s-6.716-15-15-15h-210c-8.284 0-15 6.716-15 15s6.716 15 15 15z"/><path d="m75 301.001h210c8.284 0 15-6.716 15-15s-6.716-15-15-15h-210c-8.284 0-15 6.716-15 15s6.716 15 15 15z"/><path d="m499.154 42.362c-.459-23.434-20.466-42.361-44.992-42.361-24.527 0-44.533 18.926-44.992 42.36-1.899 19.222-28.443 294.823.692 386.772 5.009 15.803 15.358 39.354 29.138 48.736v19.132c0 8.284 6.716 15 15 15s15-6.716 15-15v-18.861c13.99-9.245 24.412-33.026 29.465-49.018 29.06-91.968 2.581-367.57.689-386.76zm-59.992.823c0-7.27 6.729-13.184 15-13.184s15 5.914 15 13.184c0 2.738 5.898 58.045 9.929 137.816h-49.884c4.165-82.181 9.955-134.684 9.955-137.816zm15.033 408.43c-4.402-4.637-11.271-17.458-15.733-31.543-13.274-41.891-13.746-129.19-10.607-209.07h52.586c3.13 79.879 2.659 167.179-10.582 209.082-4.448 14.075-11.284 26.89-15.664 31.531z"/></svg>