<svg enable-background="new 0 0 512.087 512.087" height="512" viewBox="0 0 512.087 512.087" width="512" xmlns="http://www.w3.org/2000/svg"><path d="m496.702 273.375c-60.27 1.545-119.826 9.228-176.397 22.586-42.392-23.895-88.559-43.608-137.348-58.609-52.722-16.209-108.788-27.009-166.641-32.099-8.259-.724-15.531 5.376-16.257 13.628-.726 8.252 5.375 15.531 13.628 16.257 96.732 8.51 185.356 32.742 264.016 72.122-23.074 6.817-45.519 14.616-67.164 23.365-84.458 34.138-155.916 82.25-206.648 139.134-2.451 2.748-3.805 6.302-3.805 9.984v17.299c0 3.978 1.581 7.793 4.394 10.606s6.628 4.394 10.606 4.394l482-.005c8.284 0 15-6.716 15-15v-208.667c0-4.045-1.634-7.918-4.53-10.742s-6.816-4.362-10.854-4.253zm-14.616 208.662-448.769.005c98.018-104.304 263.995-170.168 448.769-178.147z"/><path d="m316.447 123.091-4.8 27.703c-1.237 7.14 2.806 14.143 9.607 16.641l26.391 9.694 14.131 24.307c2.749 4.729 7.751 7.463 12.971 7.463 1.696 0 3.414-.289 5.085-.892l26.447-9.537 26.45 9.537c6.815 2.46 14.415-.307 18.056-6.572l14.13-24.306 26.392-9.695c6.801-2.499 10.844-9.502 9.607-16.641l-4.8-27.702 13.985-24.391c3.604-6.286 2.2-14.249-3.337-18.923l-21.483-18.136-4.965-27.674c-1.279-7.132-7.474-12.33-14.72-12.351l-28.114-.083-21.592-18.007c-5.564-4.642-13.65-4.642-19.215 0l-21.591 18.008-28.115.083c-7.246.021-13.44 5.22-14.72 12.352l-4.964 27.673-21.484 18.136c-5.537 4.674-6.941 12.638-3.337 18.923zm34.32-42.014c2.671-2.255 4.471-5.373 5.088-8.813l3.71-20.683 21.014-.063c3.496-.01 6.878-1.242 9.563-3.481l16.138-13.459 16.138 13.459c2.685 2.239 6.067 3.471 9.563 3.481l21.013.063 3.711 20.684c.617 3.441 2.417 6.558 5.088 8.813l16.057 13.555-10.453 18.23c-1.739 3.033-2.364 6.578-1.767 10.022l3.588 20.705-19.726 7.246c-3.281 1.206-6.039 3.52-7.795 6.542l-10.561 18.167-19.769-7.128c-1.645-.593-3.366-.89-5.088-.89s-3.444.296-5.088.89l-19.767 7.128-10.562-18.167c-1.757-3.022-4.514-5.336-7.795-6.542l-19.725-7.246 3.588-20.706c.597-3.445-.028-6.99-1.767-10.022l-10.453-18.23z"/><path d="m406.28 149.472c24.813 0 45-20.187 45-45s-20.187-45-45-45-45 20.187-45 45 20.187 45 45 45zm0-60.001c8.271 0 15 6.729 15 15s-6.729 15-15 15-15-6.729-15-15 6.729-15 15-15z"/></svg>