<svg viewBox="0 0 24 24" id="redesign--highlight" xmlns="http://www.w3.org/2000/svg"><g fill="none" fill-rule="evenodd"><path fill="#FAD239" d="M4 7h7.519l-.215 1.749-.56 2.17L9.665 12l1.855 1.666L14 12.325V18H4z"></path><path fill="#414141" d="M11.06 6.547L15.607 2a2 2 0 0 1 2.828 0l3.028 3.028a2 2 0 0 1 0 2.828l-4.555 4.555-.01-.01-3.795.876-1.56 1.562-.517-.516-.007.007.033.033-.637.637H17.5a.5.5 0 1 1 0 1h-11a.5.5 0 1 1 0-1h1.922l-.654-.327a.5.5 0 0 1-.13-.8L8.511 13H6.5a.5.5 0 1 1 0-1h2.204l-.09-.09 1.561-1.561.08-.349H6.5a.5.5 0 0 1 0-1h3.987l.567-2.458.005.005zm4.646 4.237l4.343-4.342-3.028-3.028-4.338 4.338 3.024 3.032zM21 11a1 1 0 0 1 1 1v8a2 2 0 0 1-2 2H4a2 2 0 0 1-2-2V4a2 2 0 0 1 2-2h7a1 1 0 1 1 0 2H4v16h16v-8a1 1 0 0 1 1-1zm-9.15-1.682l-.4 1.737-.856.855.948.949.855-.856 1.736-.4-2.283-2.285z"></path></g></svg>