<svg enable-background="new 0 0 512 512" viewBox="0 0 512 512" xmlns="http://www.w3.org/2000/svg"><path d="m464 0h-416c-26.51 0-48 21.49-48 48v416c0 26.51 21.49 48 48 48h416c26.51 0 48-21.49 48-48v-416c0-26.51-21.49-48-48-48zm16 464c0 8.837-7.163 16-16 16h-416c-8.837 0-16-7.163-16-16v-416c0-8.837 7.163-16 16-16h416c8.837 0 16 7.163 16 16z"/><path d="m347.36 276.64c-6.241-6.204-16.319-6.204-22.56 0l-36.8 36.8-68.64-68.64c-6.241-6.204-16.319-6.204-22.56 0l-112 112c-6.186 6.31-6.087 16.44.223 22.626 2.935 2.878 6.866 4.516 10.977 4.574h320c8.836.051 16.041-7.07 16.093-15.907.025-4.299-1.681-8.426-4.733-11.453z"/><circle cx="304" cy="176" r="48"/></svg>