<svg viewBox="0 0 24 24" id="redesign--draw" xmlns="http://www.w3.org/2000/svg"><path fill-rule="evenodd" d="M11.293 19.262c.198-.069.407-.137.676-.198.582-.195.582-.195 1.27-.372.326-.037.653-.07 1.03-.054.095.005.194.012.306.034.113.022.235.045.406.135a.921.921 0 0 1 .3.257c.11.136.187.367.18.549a1.03 1.03 0 0 1-.084.404 1.305 1.305 0 0 1-.123.225 2.213 2.213 0 0 1-.25.304l.424-.057a32.46 32.46 0 0 1 1.709-.185 18.879 18.879 0 0 1 1.545-.063c.48-.006.92.011 1.308.041.389.025.725.065 1.002.105.553.077 1.013.152 1.013.152s-.464.045-1.014.115l-.984.142c-.377.063-.802.133-1.261.216-.924.176-1.986.405-3.138.667l-.892.187a7.43 7.43 0 0 1-.484.078 3.355 3.355 0 0 1-.278.023c-.105 0-.203.01-.395-.038-.084-.028-.248-.063-.425-.286a.81.81 0 0 1-.154-.41.93.93 0 0 1 .029-.31c.083-.269.164-.346.232-.45.137-.179.26-.307.386-.435l.025-.025a7.862 7.862 0 0 0-.287.024c-.554.114-.6.122-1.182.273-.574.098-.878.19-1.406.29l-.567.103C9.258 21.525 7.93 22 6.526 22c-1.522-.01-3.033-.754-4.298-2.093a.834.834 0 0 1-.152-.922.83.83 0 0 1 .796-.484c1.467.075 1.584-.366 1.868-1.326.136-.46.29-.983.629-1.447.643-.881 1.593-1.4 2.55-1.474L19.287 2.26A.828.828 0 0 1 19.888 2c1.073 0 2.05.98 2.05 2.056a.838.838 0 0 1-.173.51L11.573 17.788a3.4 3.4 0 0 1-.28 1.475zM6.334 17.65c-.214.72-.502 1.692-1.54 2.194.565.317 1.142.485 1.7.49h.033c1.182 0 2.265-.448 2.904-1.202.339-.4.501-.846.49-1.279l-1.94-1.945c-.46.06-.94.351-1.269.804-.169.231-.271.575-.378.938zm3.133-2.61l1.197 1.2 9.534-12.368a.648.648 0 0 0-.072-.08L9.467 15.04z"></path></svg>