<?xml version="1.0" encoding="iso-8859-1"?>
<!-- Generator: Adobe Illustrator 19.0.0, SVG Export Plug-In . SVG Version: 6.00 Build 0)  -->
<svg version="1.1" id="Capa_1" xmlns="http://www.w3.org/2000/svg" xmlns:xlink="http://www.w3.org/1999/xlink" x="0px" y="0px"
	 viewBox="0 0 512 512" style="enable-background:new 0 0 512 512;" xml:space="preserve">
<g>
	<g>
		<path d="M496.941,331.294h-15.758c-5.154-76.325-48.957-143.704-112.957-180.706h56.195c6.237,17.49,22.796,30.118,42.403,30.118
			c24.911,0,45.176-20.265,45.176-45.176s-20.265-45.176-45.176-45.176c-19.607,0-36.165,12.627-42.403,30.118H301.177v-15.059
			c0-8.323-6.735-15.059-15.059-15.059h-60.235c-8.324,0-15.059,6.735-15.059,15.059v15.059H87.579
			c-6.237-17.49-22.796-30.118-42.403-30.118C20.265,90.353,0,110.618,0,135.529s20.265,45.176,45.176,45.176
			c19.607,0,36.165-12.627,42.403-30.118h56.197c-64,37.002-107.805,104.381-112.959,180.706H15.059
			C6.735,331.294,0,338.029,0,346.353v60.235c0,8.324,6.735,15.059,15.059,15.059h60.235c8.323,0,15.059-6.735,15.059-15.059
			v-60.235c0-8.324-6.735-15.059-15.059-15.059H61.627c6.638-84.266,67.287-155.061,149.197-174.614v8.967
			c0,8.323,6.735,15.059,15.059,15.059h60.235c8.324,0,15.059-6.735,15.059-15.059v-8.967
			c81.91,19.553,142.559,90.348,149.197,174.614h-13.667c-8.324,0-15.059,6.735-15.059,15.059v60.235
			c0,8.324,6.735,15.059,15.059,15.059h60.235c8.323,0,15.059-6.735,15.059-15.059v-60.235
			C512,338.029,505.265,331.294,496.941,331.294z"/>
	</g>
</g>
<g>
</g>
<g>
</g>
<g>
</g>
<g>
</g>
<g>
</g>
<g>
</g>
<g>
</g>
<g>
</g>
<g>
</g>
<g>
</g>
<g>
</g>
<g>
</g>
<g>
</g>
<g>
</g>
<g>
</g>
</svg>
