<svg enable-background="new 0 0 285 285" viewBox="0 0 285 285" xmlns="http://www.w3.org/2000/svg"><path d="m216.818 271.424h-189.997v-189.997h61.713c3.748 0 6.788-3.04 6.788-6.788v-61.063h121.496v29.246c.3-.037.591-.115.903-.127 1.753-.068 5.165.019 9.708 1.237.909.235 1.917.572 2.965.934v-38.078c0-3.748-3.04-6.788-6.788-6.788h-135.712c-1.8 0-3.532.714-4.803 1.985l-67.86 67.861c-1.271 1.271-1.985 2.993-1.985 4.793v203.583c0 3.741 3.04 6.778 6.788 6.778h203.573c3.748 0 6.788-3.037 6.788-6.778v-105.212c-3.68 3.612-8.554 5.592-13.576 5.765z"/><path d="m267.485 46.164c-4.305-4.305-7.768-4.289-8.139-4.268-.52.016-1.015.235-1.379.597l-15.422 15.422c2.242 1.395 4.704 3.278 7.301 5.875 2.61 2.61 4.49 5.068 5.888 7.308l15.406-15.418c.377-.371.587-.857.612-1.376.019-.387.031-3.835-4.267-8.14z"/><path d="m254.571 110.462-7.465 7.465-4.966-4.96 13.347-13.347c1.15-1.15 1.831-2.703 1.905-4.323.049-1.206.111-12.088-13.421-25.621-13.529-13.539-24.412-13.467-25.621-13.427-1.63.081-3.17.761-4.32 1.911l-115.179 115.165c-.708.705-1.252 1.584-1.565 2.549l-16.124 48.372c-.779 2.338-.173 4.917 1.581 6.673 1.735 1.744 4.32 2.345 6.655 1.565l48.384-16.131c.959-.321 1.818-.865 2.533-1.552l97.032-97.035 4.958 4.96-30.996 30.986c-2.65 2.66-2.65 6.946 0 9.605 1.33 1.33 3.062 1.985 4.802 1.985 1.732 0 3.473-.655 4.793-1.985l43.267-43.263c2.647-2.647 2.647-6.939 0-9.593-2.654-2.652-6.953-2.652-9.6.001z"/></svg>