<svg clip-rule="evenodd" fill-rule="evenodd" height="1in" image-rendering="optimizeQuality" shape-rendering="geometricPrecision" text-rendering="geometricPrecision" viewBox="0 0 282 282" width="1in" xmlns="http://www.w3.org/2000/svg"><path d="m141 271c-72 0-131-58-131-130s59-131 131-131 130 59 130 131-58 130-130 130zm52-26h1v-1h-1zm-105 0h1l4-23-1-1-4 23zm18-33-4 6-7 2 5 5-1 8 7-3 6 3v-8l5-5-8-2zm66 0 4 6 7 2-5 5 1 8-7-3-6 3 1-8-5-5 7-2zm-52 8-1 1-5 33s1 1 1 1l6-35v-1 1zm-1-3 1 1v-1zm20-9 5 9 10 2-7 8 1 10-9-4-9 4 1-10-7-8 10-2zm102-18v1c0-1 0-1 0-1zm-5 1-3 14c0 1-1 2-2 3l3-17zm-6 0-4 24c-1 1-1 2-2 2l5-26zm-5 0-6 32c0 1-1 1-1 2l5-34zm-6 0-6 38c-1 1-1 1-2 2l7-40zm-5 0-8 44s-1 0-1 1l7-45zm-6 0-8 48s-1 1-1 1l8-49zm-5 0-9 52s-1 0-1 1l8-53zm-6 0-9 55c-1 0-1 0-2 1l10-56zm-5 0-5 27-1-1 4-26zm-7 31 2-2-5 29h-1zm1-31-4 26-2-1 5-25zm-9 44 2 1-3 15h-1zm4-44-4 23-1-2 3-21zm-7 42-4 20h-1l3-20zm1-42-2 15h-1l-1 3 3-18zm-9 44h2l-3 19c-1 0-1 0-2 1zm4-44-5 25h-1l4-25zm-7 34 1 1-1 5-4 24c-1 1-1 1-1 1zm1-34-4 26h-1-1l5-26zm-6 29 1 1-6 35s-1 0-1 1zm1-29-5 26-1-1 4-25zm-6 34-2 11v-5-4zm-4 16h1l-2 16c-1 0-1 0-2 0zm4-50-4 25-1-1 4-24zm-9 47 1 1-3 18h-1zm4-47-4 21-1-2 3-19zm-8 46-3 20c-1 0-1 0-2 0l4-20v-1zm2-46-2 13-1-1 2-12zm-8 48-3 18h-1l3-18zm3-48-4 23-1 1h-1l4-24zm-9 50-2 16c-1 0-1-1-1-1l2-14zm3-50-4 25h-1l4-25zm-7 33 1 1-5 31s-1 0-1-1zm2-33-5 26h-1l4-26zm-6 0-4 26h-1l4-26zm-9 44 2 1-3 17c-1 0-1 0-2 0zm4-44-4 24-1-2 3-22zm-9 42 2 1-3 18c-1 0-1 0-2 0zm3-42-3 16v-1l-1 2 3-17zm-9 44 2-1-3 16s0 0-1 0zm4-44-5 25h-1l4-25zm-7 35-1 11-2 11s-1 0-1-1l3-21zm1-35-4 26h-2l5-26zm-5 0-9 52s-1-1-1-1l8-51zm-6 0-8 49c0-1-1-1-1-1l8-48zm-5 0-8 45s-1 0-1-1l7-44zm-6 0-7 42c0-1-1-1-1-1l7-41zm-5 0-7 37s0 0-1-1l6-36zm-6 0-5 33c-1 0-1-1-2-1l6-32zm-5 0-5 28c0-1-1-1-1-1l4-27zm-6 0-4 22s0-1-1-1l4-21zm-5 0-3 16c-1-1-1-1-1-2l2-14zm-6 0-1 9c-1-1-1-2-1-2l1-7zm-16-97h228v-1h-228zm0 95h228v-1h-228zm114 93c-78 0-141-63-141-141s63-141 141-141 141 63 141 141-63 141-141 141zm0-276c-75 0-135 61-135 135s60 135 135 135c74 0 135-61 135-135 0-75-61-135-135-135zm-8 72c-1 0-3 0-4-1l-23-24c-2-2-2-6 0-8s5-2 7 0l20 20 32-31c2-2 5-2 7 0s2 5 0 7l-35 35c-1 1-3 2-4 2zm8-66c-71 0-129 58-129 129s58 129 129 129 129-58 129-129-58-129-129-129z"/></svg>