<svg clip-rule="evenodd" fill-rule="evenodd" height="1in" image-rendering="optimizeQuality" shape-rendering="geometricPrecision" text-rendering="geometricPrecision" viewBox="0 0 1049 1049" width="1in" xmlns="http://www.w3.org/2000/svg"><path d="m524 1010c-267 0-485-218-485-485 0-268 218-486 485-486 268 0 486 218 486 486 0 267-218 485-486 485zm176-349v-232h80c18 0 32 1 41 3 14 3 25 9 34 17 13 10 22 23 28 39 6 17 9 35 9 56 0 17-2 33-6 46-4 14-10 25-16 34-7 9-14 16-21 21-8 5-17 9-28 12-11 2-23 4-37 4zm31-28h49c16 0 28-1 36-4 9-3 16-7 21-12 7-7 13-17 17-29s6-27 6-45c0-24-4-43-12-56s-17-22-29-26c-8-3-21-5-39-5h-49zm-115 28v-232h30v232zm-247 0 89-232h34l94 232h-35l-27-71h-97l-25 71zm67-95h79l-24-65c-8-19-13-35-17-48-3 15-7 30-13 45zm-233 95v-232h87c16 0 28 1 36 2 11 2 21 6 28 11 8 5 14 13 19 22 5 10 7 20 7 32 0 20-6 36-19 50-12 13-35 20-68 20h-59v95zm31-122h60c19 0 33-4 42-11 8-7 12-18 12-31 0-10-2-18-7-25s-11-12-19-14c-6-1-15-2-29-2h-59zm483 373h3v-3h-3zm-390 0h1c2 0 3 1 4 1l14-87-4-5-14 88h-1zm67-123-14 24-27 5 19 20-3 27 25-11 25 11-4-27 19-20-27-5zm248 0 13 24 26 5-18 20 4 27-25-11-25 11 3-27-19-20 27-5zm-194 30-4 4-21 124c2 0 4 0 5 1l21-128 1-3h-1zm-4-10 2 1v-1zm74-33 18 33 38 8-26 28 5 38-35-16-35 16 4-38-26-28 38-8zm380-69-1 2s0-1 1-2zm-21 2-9 55c-2 4-5 7-7 11l11-66zm-21 0-15 92c-2 3-4 6-7 8l17-100zm-20 0-20 121c-2 3-4 4-6 7l21-128zm-20 0-24 145c-2 2-4 3-6 5l25-150zm-21 0-27 164c-2 2-4 3-6 5l28-169zm-20 0-30 181c-2 1-4 2-6 3l31-184zm-21 0-32 195c-2 1-4 2-6 3l33-198zm-20 0-34 206c-2 1-4 2-6 3l34-209zm-21 0-16 102-5-2 16-100zm-24 117 6-6-17 106c-2 0-4 1-6 2zm4-117-16 97-5-1 16-96zm-33 165 5 3-9 57c-2 1-4 1-5 2zm12-165-14 87-4-7 13-80zm-26 159-12 73c-2 0-3 1-5 1l13-76zm6-159-10 59v-1l-7 11 12-69zm-33 167 6-3-12 73c-2 1-4 1-6 1zm13-167-16 95-6 2 16-97zm-27 129 4 4-2 16-15 93c-2 0-4 0-6 0zm6-129-17 100h-3-2l17-100zm-23 110 4 5-22 130c-1 0-3 0-5 1zm3-110-17 97-5-1 16-96zm-22 129-6 39-3-17 3-15zm-15 58 5 2-9 58c-2 0-4 1-5 1zm16-187-15 93-5-1 15-92zm-35 178 5 3-11 67c-2 0-3 0-5 0zm15-178-14 79-4-7 13-72zm-29 172-13 77c-1 0-3 0-5 0l13-78 2-1zm8-172-8 50-3-5-2 3 8-48zm-30 179-11 69c-1 0-3-1-5-1l11-66zm9-179-14 86v1l-2 4-4 1 16-92zm-30 189-10 57c-1 0-3-1-5-1l9-54zm10-189-16 95-5 1 16-96zm-26 125 4 5-18 112c-2 0-3 0-5 0zm5-125-16 99-5 1 16-100zm-20 0-16 98-5-1 16-97zm-33 166 5 3-11 65c-1 0-3-1-4-1zm13-166-15 90-4-7 14-83zm-31 158 5 2-12 69c-1-1-3-2-5-2zm10-158-10 62-2-4-3 6 10-64zm-32 166 5-3-9 59c-1-1-3-2-5-2zm12-166-16 95-5 1 16-96zm-25 133-5 41h1l-7 40c-1-1-3-2-4-2l13-81zm4-133-16 99-5 1 16-100zm-20 0-32 194c-2 0-3-2-5-2l32-192zm-21 0-30 183c-1-1-3-2-4-3l29-180zm-20 0-28 171c-2-2-3-3-5-4l28-167zm-20 0-26 157c-2-1-3-3-5-4l25-153zm-21 0-23 141c-2-1-4-2-5-4l23-137zm-20 0-21 124c-2-1-3-3-4-4l20-120zm-21 0-17 106c-2-2-3-4-5-5l17-101zm-20 0-14 84c-2-1-3-3-4-5l13-79zm-21 0-10 61c-2-2-3-4-4-6l9-55zm-21 0-5 35c-1-3-3-5-4-8l5-27zm-59-358h847v-5h-847zm0 352h847v-5h-847zm423 346c-289 0-524-235-524-525 0-289 235-524 524-524s525 235 525 524c0 290-235 525-525 525zm0-1027c-277 0-503 226-503 503s226 502 503 502 503-225 503-502c0-278-226-503-503-503zm-29 268c-5 0-10-1-14-5l-88-89c-8-8-8-20 0-28 8-7 20-7 27 0l75 75 118-117c7-8 20-8 27 0 8 8 8 20 0 27l-131 131c-4 4-9 6-14 6zm29-246c-264 0-480 216-480 480 0 265 216 481 480 481 265 0 481-216 481-481 0-264-216-480-481-480z"/></svg>