<svg clip-rule="evenodd" fill-rule="evenodd" height=".999526in" image-rendering="optimizeQuality" shape-rendering="geometricPrecision" text-rendering="geometricPrecision" viewBox="0 0 303 303" width="1in" xmlns="http://www.w3.org/2000/svg"><path d="m152 264c-40 0-76-20-97-53-11-18-16-38-16-59s5-42 16-60c21-33 57-53 97-53 39 0 75 20 96 53 11 18 16 38 16 60 0 21-5 41-16 59-21 33-57 53-96 53zm-34-206-4 6-7 2 5 5-1 8 7-3 6 3v-8l5-5-8-2zm68 0 3 6 7 2-5 5 1 8-6-3-7 3 1-8-5-5 7-2zm-54 8h1zm-1-2h1zm21-10 5 10 10 2-7 7 1 11-9-5-10 5 1-11-7-7 10-2zm-31 193h61v-1h-61zm-6-2h73v-1h-73zm-4-3h82zm135-32h-189c20 33 56 53 95 53 38 0 74-20 94-53zm-189-117h189c-20-33-56-53-94-53-39 0-75 20-95 53zm95 177s-1-1-1-1h1c3 0 6 0 8-1 1 0 1 1 1 1-3 0-6 1-9 1zm-9-1c-3 0-6 0-9-1v-1c3 1 6 1 9 1zm26-1c3-1 6-2 9-2v1c-3 0-6 1-9 1zm-44-2c-2 0-5-1-8-2v-1c3 1 6 2 8 3h1s0 0-1 0zm61-2v-1c3 0 6-1 9-2 0-1 0 0 0 0-3 1-6 2-9 3zm-77-3c-3-1-6-2-9-3v-1h1c2 1 5 3 8 4zm94-3c-1 0-1 0-1 0v-1c3-1 6-2 8-4h1v1c-3 1-6 3-8 4zm-110-4c-3-2-5-3-8-5 0 0 0 0 0-1h1c2 2 5 3 7 5zm125-5c-1 0 0-1 0-1 2-1 4-3 7-5v1c-2 2-4 3-7 5zm-140-5c-2-2-5-4-7-6 0 0 0 0 0-1h1l6 6c1 0 1 0 0 1zm153-6s0 0 0-1l6-6h1v1c-2 2-4 4-6 6 0 0 0 0-1 0zm-166-6c-2-2-4-5-6-7 0 0 0 0 0-1h1c2 3 4 5 6 7v1s0 0-1 0zm179-7c-1 0-1 0-1 0s0 0 0-1c2-2 4-4 5-7h1v1c-1 2-3 5-5 7zm-189-7c-1 0-1 0-1 0-1-2-3-5-4-7-1-1 0-1 0-1 2 3 3 5 5 8zm198-7v-1c2-2 3-5 4-8h1v1c-1 2-3 5-4 8 0 0 0 0-1 0zm-207-8c-1 0-1 0-1 0-1-3-2-5-3-8v-1 1c1 2 3 5 4 8zm215-8s0 0 0-1c1-2 2-5 3-8-1 3-2 6-3 9zm-222-8s0 0 0-1c-1-2-2-5-2-8 1 3 2 6 3 8 0 0-1 1-1 1zm227-9c0-3 1-6 2-9 0 3-1 6-1 9-1 0-1 0-1 0zm-231-9c-1-3-1-6-1-9h1c0 3 0 6 1 9 0 0 0 0-1 0zm234-8s-1 0-1-1c1-3 1-6 1-8v-1h1v1c0 2-1 5-1 8zm-235-9v-1c0-2 0-5 0-8h1c-1 3-1 6-1 9zm235-9s0 0-1 0c0-3 0-6-1-9 0 0 1-1 1-1v1c1 3 1 6 1 9zm-234-9c0-3 1-6 1-9h1v1c0 2-1 5-1 8zm231-8v-1c-1-3-2-5-2-8v-1 1c1 2 2 5 3 8-1 0-1 0-1 1zm-227-9c1-3 2-6 3-8 0-1 0-1 0-1v1c-1 3-2 5-3 8zm222-8s0 0 0-1c-1-2-3-5-4-8h1c1 3 2 5 3 8zm-215-8h-1c2-3 3-6 5-8-1 3-3 5-4 8zm207-8c-1-3-3-5-5-8h1c2 2 3 5 5 7v1c-1 0-1 0-1 0zm-199-7s0 0 0-1c2-2 4-4 5-7h1v1c-2 2-4 4-5 7 0 0 0 0-1 0zm189-7s0 0 0-1c-2-2-4-4-6-6v-1h1c2 2 4 5 6 7 0 1-1 1-1 1zm-178-7v-1l6-6h1v1c-2 2-4 4-6 6-1 0-1 0-1 0zm166-6s0 0 0-1c-2-2-4-3-7-5v-1h1c2 2 5 4 7 6 0 1-1 1-1 1zm-153-6s0 0 0-1c2-1 5-3 7-5h1s0 1-1 1c-2 1-4 3-7 5zm140-5h-1c-2-2-4-3-7-5 3 1 5 3 8 4zm-125-5h-1 1c2-2 5-3 7-5 0 0 1 0 1 1-3 1-6 3-8 4zm109-4c-2-1-5-3-8-4 3 1 6 2 8 3 1 1 1 1 1 1zm-94-4 9-3v1c-3 0-6 1-9 2zm78-3c-3 0-6-1-9-2s0-1 1-1c2 1 5 2 8 3zm-61-2c3-1 6-2 9-2v1c-3 0-6 1-9 1zm44-1c-3-1-6-1-9-1v-1c3 0 6 0 9 1zm-26-1s-1 0-1-1h1 8 1s0 1-1 1c-3-1-5-1-8 0zm145 132 9-15-9-16 6-17-13-13 2-18-15-9-2-18-17-6-6-18-18-2-10-15-18 2-13-13-17 6-15-9-16 9-17-6-13 13-18-2-9 15-18 2-6 18-18 6-2 18-15 9 2 18-13 13 6 17-9 16 9 15-6 17 13 13-2 18 15 9 2 19 18 6 6 17 18 2 9 15 18-2 13 13 17-6 16 9 15-9 17 6 13-13 18 2 9-15 19-2 6-17 17-6 2-19 15-9-2-18 13-13zm-136 107c-68 0-123-55-123-122 0-68 55-123 123-123 67 0 122 55 122 123 0 67-55 122-122 122zm0 29-16-10-18 6-14-13-18 2-10-16-19-2-6-18-18-6-2-19-16-10 2-18-13-14 6-18-10-15 10-16-6-18 13-14-2-18 16-10 2-19 18-6 6-18 19-2 10-16 18 2 14-13 18 6 16-10 15 10 18-6 14 13 18-2 10 16 19 2 6 18 18 6 2 19 16 10-2 18 13 14-6 18 10 16-10 15 6 18-13 14 2 18-16 10-2 19-18 6-6 18-19 2-10 16-18-2-14 13-18-6zm-16-13 16 10 15-10 18 6 13-13 18 2 10-16 18-2 6-17 17-6 2-19 16-9-2-19 13-13-6-17 10-16-10-15 6-18-13-13 2-18-16-10-2-18-17-6-6-17-18-2-10-16-18 2-13-13-18 6-15-10-16 10-17-6-13 13-19-2-9 16-19 2-6 17-17 6-2 18-16 10 2 18-13 14 6 17-9 16 9 15-6 18 13 13-2 18 16 10 2 18 17 6 6 17 19 2 9 16 19-2 13 13z" fill="#373435"/></svg>