<svg clip-rule="evenodd" fill-rule="evenodd" height=".999526in" image-rendering="optimizeQuality" shape-rendering="geometricPrecision" text-rendering="geometricPrecision" viewBox="0 0 982 982" width="1in" xmlns="http://www.w3.org/2000/svg"><path d="m491 857c-128 0-244-65-311-174-36-58-55-124-55-192s19-134 55-192c67-109 183-174 311-174s244 65 312 174c35 58 54 124 54 192s-19 134-54 192c-68 109-184 174-312 174zm-110-669-12 21-23 4 16 19-3 24 22-10 22 10-3-24 17-19-24-4zm220 0 12 21 24 4-17 19 3 24-22-10-22 10 3-24-17-19 24-4zm-172 26 1 1 1-2zm-3-8h1zm65-30 17 30 33 7-23 25 4 34-31-15-31 15 4-34-23-25 33-7zm-99 624h199v-2h-199zm-19-8h236v-2h-236zm-15-7h266v-2h-266zm282-70h-16v38h15c12 0 20-8 20-19s-8-19-19-19zm0 32h-10v-26h9c8 0 14 5 14 13s-6 13-13 13zm-60-32v38h27v-6h-21v-10h18v-6h-18v-10h21v-6zm-26 0v38h7v-38zm-40 0v38h6v-16h17v-5h-17v-11h19v-6zm-26 0v38h6v-38zm-45 0v6h12v32h7v-32h12v-6zm-12 38-9-13c5-2 8-6 8-12 0-8-5-13-15-13h-15v38h6v-12h9 2l7 12zm-25-17v-15h9c6 0 9 2 9 7s-3 8-9 8zm-51-21v38h27v-6h-21v-10h18v-6h-18v-10h21v-6zm-20 10 4-4c-4-4-9-6-14-6-11 0-20 8-20 19s8 19 19 19c6 0 11-2 15-6l-4-4c-3 2-6 4-10 4-8 0-14-6-14-13 0-8 6-13 14-13 4 0 8 1 10 4zm463-43h-614c67 107 181 170 307 170s240-63 307-170zm-614-382h614c-66-106-181-170-307-170s-240 64-307 170zm308 573c-1 0-2 0-2-1s1-1 2-1c9 0 19-1 28-1 0 0 1 0 1 1 0 0 0 1-1 1-9 1-19 1-28 1zm-29-1c-10-1-19-2-29-3 0 0-1-1-1-2 0 0 1-1 2-1 9 2 18 3 28 4 1 0 1 0 1 1 0 0 0 1-1 1zm85-3s-1 0-1-1c0 0 0-1 1-1 9-2 18-3 28-5 0 0 1 0 1 1 0 0 0 1-1 1-9 2-18 4-28 5zm-142-5c-9-3-18-5-27-8-1 0-1-1-1-1 0-1 1-1 1-1 9 3 18 5 27 7 1 0 1 1 1 2 1 1 0 1-1 1zm198-8c-1 0-1 0-1-1 0 0 0-1 1-1 8-3 18-6 27-9 0-1 1 0 1 0v1c-10 4-19 7-28 10zm-252-9c-9-4-18-8-26-12-1 0-1-1-1-1 1-1 1-1 1-1 9 5 18 8 27 12v1c0 1 0 1-1 1zm305-11c-1 0-1-1-1-1-1 0 0-1 0-1 9-4 17-9 25-14 1 0 2 0 2 1 0 0 0 1-1 1-8 5-17 10-25 14zm-356-14h-1c-8-4-16-10-24-15 0-1 0-1 0-2h2c8 5 15 10 24 15 0 0 1 1 0 1 0 1-1 1-1 1zm405-15c-1 0-1 0-1-1v-1c8-6 16-12 23-17 1-1 2-1 2 0 1 0 1 1 0 2-7 6-15 11-23 17-1 0-1 0-1 0zm-452-17c-1 0-1 0-1 0-7-6-15-12-22-19 0 0 0-1 0-2h2c7 7 14 13 21 19 1 0 1 1 0 2zm496-18s0 0-1-1c0 0 0-1 0-2 7-6 14-13 20-20h2c1 1 1 2 0 2-6 7-13 14-20 20 0 1 0 1-1 1zm-538-20s0 0-1-1c-6-7-12-14-18-22-1 0-1-1 0-2h1c6 8 12 15 19 22v2c0 1 0 1-1 1zm577-22s0 0-1-1c0 0 0-1 0-2 6-7 12-15 17-22 0-1 1-1 2-1v2c-5 8-11 15-17 23 0 1-1 1-1 1zm-612-23c-1 0-1 0-1-1-6-8-11-15-16-24 0 0 0-1 1-1 0-1 1 0 1 0 5 8 10 17 16 24 0 1 0 2-1 2zm644-24c-1-1-1-1-1-2 5-8 10-16 14-25 0 0 1-1 1 0 1 0 1 1 1 1-4 8-9 17-14 25 0 1 0 1-1 1zm-673-25c-1 0-1 0-1 0-4-9-8-18-12-26 0-1 0-2 1-2 0 0 1 0 1 1 3 8 8 17 11 26 1 0 0 1 0 1zm698-26c-1-1-1-1-1-2l9-27s1-1 2-1c0 0 1 1 1 2-3 9-6 18-10 27 0 0-1 1-1 1zm-719-27c-1 0-1 0-1-1-3-9-5-18-7-27 0-1 0-2 1-2 0 0 1 1 1 1 2 9 5 19 7 28 0 0 0 1-1 1zm736-28c-1 0-2-1-1-1 2-10 3-19 5-28 0-1 0-1 1-1s1 1 1 1c-1 10-3 19-5 28 0 1-1 1-1 1zm-749-28s-1 0-1-1c-1-9-2-19-3-28 0-1 0-1 1-1h1c1 10 2 20 3 29 1 1 0 1-1 1zm757-28c-1 0-1-1-1-2 0-9 1-19 1-28v-1s0-1 1-1c0 0 1 0 1 1v1c0 9 0 19-1 28 0 1-1 2-1 2zm-761-29s-1 0-1-1c0-10 0-19 1-28 0-1 0-2 1-1 1 0 1 0 1 1 0 9-1 19-1 28v1c1 0 0 0-1 0zm761-29s-1 0-1-1c-1-9-2-19-4-28 0-1 1-2 1-2 1 0 2 1 2 1 1 10 2 19 3 29 0 0-1 1-1 1zm-757-27c-1 0-1-1-1-2 1-9 3-18 5-28h2v1c-1 9-3 19-5 28 0 0 0 1-1 1zm749-29c-1 0-1-1-1-1-3-9-5-19-8-27 0-1 0-2 1-2s2 0 2 1c2 9 5 18 7 28 0 0-1 0-1 1zm-736-27c-1 0-1-1-1-1l9-27c1 0 1-1 2 0 0 0 1 1 0 1-3 9-6 18-9 27zm718-27v-1c-4-9-8-18-12-26-1-1 0-2 0-2 1 0 2 0 2 1 4 8 8 17 11 26 1 1 0 1-1 2 1 0 1 0 0 0zm-697-26h-1s-1-1 0-1c4-8 8-17 13-25 1-1 1-1 2-1 0 1 1 1 0 2-4 8-9 17-13 25-1 0-1 0-1 0zm673-26c-1 0-1 0-1 0-5-8-10-16-15-24-1-1-1-2 0-2 0-1 1 0 2 0 5 8 11 16 15 24 1 1 0 2 0 2-1 0-1 0-1 0zm-645-23c-1 0-1-1-1-2 5-8 11-15 17-23h2v2c-6 8-12 15-17 23 0 0 0 0-1 0zm613-24c-1 0-1 0-1 0-6-8-12-15-19-21 0-1 0-2 0-2 1-1 2-1 2 0 7 7 13 14 19 21v2c-1 0-1 0-1 0zm-577-21c-1 0-1 0-1 0-1 0-1-1 0-2 6-7 13-14 20-20h2v2c-7 7-14 13-20 20-1 0-1 0-1 0zm538-20c-1 0-1 0-1-1-7-6-14-12-22-19 0 0 0 0 0-1 1-1 1-1 2 0 8 6 15 12 22 18 1 1 1 2 0 2 0 1-1 1-1 1zm-497-18s0 0 0-1c-1 0-1-1 0-1 7-7 14-12 22-18 1 0 2 0 2 1 1 0 1 1 0 2-8 5-16 11-23 16 0 1-1 1-1 1zm452-18c-8-5-16-10-25-15 0 0-1-1 0-1 0-1 1-1 1-1 9 5 17 10 24 16 1 0 1 1 1 2 0-1-1-1-1-1zm-405-14s-1 0-1-1c0 0 0-1 1-1 8-5 17-9 25-14 1 0 1 0 1 1 1 0 0 1 0 1-8 4-17 9-25 14-1-1-1 0-1 0zm356-14h-1c-8-4-17-8-26-11 0-1-1-1 0-2 0 0 1-1 1 0 9 3 18 7 26 11 1 1 1 1 1 2 0-1-1 0-1 0zm-304-11c-1 0-1-1-1-1-1-1 0-2 0-2l27-9c1 0 1 0 1 1v1c-9 3-19 6-27 10zm251-10c-10-3-19-5-28-8-1 0-1 0-1-1 0 0 1-1 1-1 10 2 19 5 28 8 0 0 1 0 1 1 0 0-1 1-1 1zm-197-7s-1-1-1-1 1-1 1-1c9-3 19-4 28-6 0 0 1 1 1 1 0 1 0 2-1 2-9 1-19 3-28 5zm141-6c-9-1-19-2-28-3 0 0-1 0-1-1s1-2 1-1c10 0 20 2 29 3 0 0 1 1 1 1-1 1-1 1-2 1zm-85-2s-1-1-1-1c0-1 0-2 1-2 9-1 19-1 28-1 1 0 2 1 2 2 0 0-1 1-2 1-9-1-18 0-28 1zm471 428 31-50-31-50 19-55-41-41 7-59-50-31-7-59-55-19-20-56-58-6-31-50-59 7-41-42-56 20-49-31-50 31-56-20-41 42-59-7-31 49-59 7-19 56-56 19-6 59-50 31 7 59-42 41 20 55-31 50 31 50-20 55 42 42-7 58 50 31 6 59 56 19 19 56 59 6 31 50 59-6 41 41 55-20 50 32 50-32 55 20 42-41 58 6 31-50 59-6 19-56 56-19 6-59 50-31-6-58 41-42zm-442 346c-218 0-396-177-396-396 0-218 178-396 396-396 219 0 396 178 396 396 0 219-177 396-396 396zm0 95-52-33-57 20-43-43-61 7-32-52-61-7-20-57-58-20-7-60-51-33 7-60-43-44 20-57-33-52 33-52-20-57 43-43-7-61 51-32 7-61 58-20 20-58 61-7 32-51 61 7 43-43 57 20 52-33 52 33 57-20 44 43 60-7 33 51 60 7 20 58 58 20 7 61 51 32-7 61 44 43-20 57 32 52-32 52 20 57-44 44 7 60-51 33-7 60-58 20-20 58-60 7-33 51-60-7-44 44-57-20zm-50-43 51 32 50-32 57 19 42-42 59 7 32-51 59-7 19-56 56-19 7-59 51-32-7-59 42-42-19-57 31-50-31-51 19-56-42-43 7-59-51-31-7-59-56-20-19-56-59-7-32-50-59 6-42-42-57 19-50-31-51 31-56-19-43 42-59-6-31 50-60 7-19 57-57 19-7 59-50 32 6 59-42 42 19 56-30 51 31 51-19 56 42 42-6 59 50 32 7 59 56 20 20 56 59 6 31 51 59-6 43 42zm-122-433v-163h22v163zm53-52 20-2c1 8 3 15 7 20 3 6 9 10 16 13 8 3 16 5 25 5s16-1 22-4c7-2 11-5 14-10 3-4 5-9 5-14s-2-9-5-13c-2-4-7-7-14-10-5-1-14-4-29-8-15-3-26-7-32-10-8-4-13-9-17-15s-6-13-6-21 2-16 7-23 12-12 21-16 19-6 30-6c12 0 22 2 32 6 9 4 16 10 21 17 5 8 8 17 8 26l-21 2c-1-11-5-18-11-24-7-5-16-7-29-7s-22 2-28 7c-6 4-9 10-9 17 0 6 2 11 6 15 4 3 15 7 33 11 17 4 29 8 36 11 9 4 16 9 21 16 4 7 7 15 7 23 0 9-3 17-8 25s-12 14-21 18-20 6-32 6c-14 0-27-2-37-6-10-5-18-11-23-20-6-8-9-18-9-29zm153-27c0-27 7-48 21-64 15-15 34-23 57-23 15 0 28 4 41 11 12 7 21 17 27 30 7 13 10 28 10 44 0 17-3 31-10 44-7 14-16 23-29 30-12 7-25 10-39 10-16 0-29-4-42-11-12-7-21-17-27-30s-9-27-9-41zm22 0c0 20 5 35 16 47 10 11 24 17 40 17s29-6 40-17c10-12 15-28 15-49 0-13-2-25-6-35-5-10-11-17-20-23-9-5-18-8-29-8-15 0-29 5-40 16-11 10-16 28-16 52zm-195 204h-11v-76c-3 3-7 6-12 8-4 3-8 5-12 6v-11c7-3 12-7 17-11 5-5 9-9 11-13h7zm93-12v12h-64c0-3 1-6 2-9 1-4 4-8 7-13 4-4 9-9 16-14 10-9 17-15 21-20s6-10 6-15c0-4-2-8-5-12-4-3-8-4-14-4-5 0-10 1-13 5-4 3-5 8-5 14l-13-1c1-9 4-16 10-21 5-5 13-7 22-7s16 2 22 7c5 6 8 12 8 20 0 3-1 7-3 11-1 4-4 8-7 12-4 4-10 9-19 17-7 6-11 10-13 12s-4 4-5 6zm13-36c0-11 1-21 3-28 3-7 6-12 11-16 4-3 10-5 17-5 5 0 10 1 14 3s7 5 9 9c3 4 5 9 6 14 2 6 2 13 2 23 0 11-1 20-3 27s-6 13-10 16c-5 4-11 6-18 6-9 0-16-3-22-10-6-8-9-21-9-39zm12 0c0 16 2 26 5 32 4 5 9 7 14 7 6 0 10-2 14-7 4-6 5-16 5-32s-1-26-5-32c-4-5-8-7-14-7-5 0-10 2-13 6-4 6-6 17-6 33zm63 0c0-11 1-21 3-28s6-12 11-16c4-3 10-5 17-5 5 0 10 1 14 3 3 2 7 5 9 9 3 4 5 9 6 14 2 6 2 13 2 23 0 11-1 20-3 27s-6 13-11 16c-4 4-10 6-17 6-9 0-17-3-22-10-6-8-9-21-9-39zm12 0c0 16 2 26 5 32 4 5 9 7 14 7s10-2 14-7c3-6 5-16 5-32s-2-26-5-32c-4-5-9-7-14-7-6 0-10 2-13 6-4 6-6 17-6 33zm107 48h-12v-76c-3 3-7 6-11 8-5 3-9 5-13 6v-11c7-3 13-7 18-11 5-5 8-9 10-13h8z" fill="#373435"/></svg>