<svg clip-rule="evenodd" fill-rule="evenodd" height=".992403in" image-rendering="optimizeQuality" shape-rendering="geometricPrecision" text-rendering="geometricPrecision" viewBox="0 0 279 277" width="1in" xmlns="http://www.w3.org/2000/svg"><path d="m191 121h2v-36h-2zm-81-79-2 5-4 2 4 3 1 5 4-3 5 1-2-5 3-5h-5zm57 0 2 5 5 2-5 3-1 5-4-3-5 1 2-5-3-5h6zm-28-6 3 6 7 1-5 6 1 6-6-3-7 3 1-6-5-6 7-1zm72 121h2v-2h-2zm0-36h2v-1h-2zm-6 53h1v-19h-1zm0-53h1v-18h-1zm-7 64h1v-30h-1zm0-64h1v-28h-1zm-13 0h1v-42h-1zm6 71h2v-37h-2zm-6 6h1v-43h-1zm-7 5h1v-48h-1zm0-82h1v-47h-1zm-7 86h2v-52h-2zm0-86h2v-50h-2zm-6 88h1v-54h-1zm0-88h1v-53h-1zm-7 91h1v-57h-1zm0-91h1v-55h-1zm-7 92h2v-58h-2zm0-92h2v-57h-2zm-6 93h1v-59h-1zm0-93h1v-58h-1zm-7 93h1v-59h-1zm0-93h1v-58h-1zm-7 93h2v-59h-2zm0-93h2v-58h-2zm-6 92h1v-58h-1zm0-92h1v-57h-1zm-7 91h1v-57h-1zm0-91h1v-55h-1zm-7 88h2v-54h-2zm0-88h2v-53h-2zm-6 85h1v-51h-1zm0-85h1v-50h-1zm-7 82h1v-48h-1zm0-82h1v-47h-1zm-7 77h1v-43h-1zm0-77h1v-42h-1zm-6 71h1v-37h-1zm0-71h1v-36h-1zm-7 64h1v-30h-1zm0-64h1v-28h-1zm-7 53h1v-19h-1zm0-53h1v-18h-1zm-7 36h2v-2h-2zm0-36h2v-1h-2zm72 130c0-2 1-3 3-3 1 0 2 1 2 3 0 1-1 2-2 2-2 0-3-1-3-2zm-23 0c-1-1-2-2-2-4 0-1 2-2 3-1 2 0 3 1 2 3 0 1-1 2-2 2-1 0-1 0-1 0zm48-2c0-2 1-3 2-3 1-1 3 0 3 1 0 2 0 3-2 4-2 0-3-1-3-2zm-72-7c-1 0-2-2-1-3 0-2 2-2 3-2 1 1 2 2 1 4 0 1-1 1-2 1zm96-1c-1-1 0-3 1-4 2 0 3 0 4 2 0 1 0 2-1 3-1 0-1 0-2 0-1 0-2 0-2-1zm-118-13c-1 0-1-2 0-3 0-1 2-2 3-1 1 1 2 3 1 4-1 1-2 1-2 1-1 0-2 0-2-1zm139 0c0-1 0-3 1-4 1-1 3 0 4 1 0 1 0 3-1 3 0 1-1 1-2 1s-1 0-2-1zm-157-18c-1-1-1-3 0-3 1-1 3-1 4 0 1 1 1 3-1 4h-1c-1 0-2 0-2-1zm176 1c-1-1-2-3-1-4 1-1 3-1 4-1 1 1 1 3 0 4 0 1-1 1-2 1zm-190-22c0-2 0-3 1-4 2-1 3 0 4 1 1 2 0 3-1 4-1 0-1 0-2 0-1 0-1 0-2-1zm204 1c-2-1-2-2-2-4 1-1 2-2 4-1 1 0 2 2 1 3 0 1-1 2-2 2-1 0-1 0-1 0zm-212-26c-1-1 0-2 2-3 1 0 2 1 3 2 0 2-1 3-2 3h-1c-1 0-2-1-2-2zm220 2c-1 0-2-2-1-3 0-1 1-2 3-2 1 0 2 2 2 3-1 1-2 2-3 2s0 0-1 0zm-223-27c0-2 1-3 2-3 2 0 3 1 3 3 0 1-1 2-3 2-1 0-2-1-2-2zm224 0c0-1 0-1 0-1 0-1 1-2 3-2 1 0 2 1 2 2v1c0 1-1 2-2 2-2 0-3-1-3-2zm-219-23c-2 0-3-1-2-3 0-1 1-2 3-2 1 0 2 2 2 3-1 2-2 2-3 2zm216-2c0-1 1-3 2-3 2 0 3 0 3 2 1 1 0 3-2 3-1 0-2-1-3-2zm-209-22c-1 0-2-2-1-3 0-1 2-2 3-1 2 0 2 2 2 3-1 1-2 1-3 1 0 1 0 0-1 0zm201-1c0-1 0-3 1-4 2 0 3 0 4 2 1 1 0 2-1 3-1 0-1 0-1 0-1 0-2 0-3-1zm-188-20c-1-1-1-3 0-4 0-1 2-1 3 0 1 1 2 2 1 3-1 1-2 1-2 1-1 0-1 0-2 0zm175-1c-1-1-1-3 1-4 1 0 2 0 3 1 1 1 1 3 0 4-1 0-1 0-2 0-1 0-1 0-2-1zm-158-17c0-2 0-3 1-4 1-1 3-1 4 0 0 1 0 3-1 4s-1 1-2 1-1-1-2-1zm141 0c-1-1-2-3-1-4 1-1 3-1 4 0 1 0 1 2 0 3 0 1-1 1-2 1zm-120-14c0-2 0-3 2-4 1 0 3 0 3 1 1 2 0 3-1 4h-1c-1 0-2 0-3-1zm99 1c-1-1-2-3-1-4 0-1 2-2 3-1 2 0 2 2 2 3-1 1-2 2-3 2zm-75-10c0-2 0-3 2-3 1-1 3 0 3 2 0 1-1 3-2 3s0 0-1 0c-1 0-2-1-2-2zm52 2c-2-1-2-2-2-3 0-2 1-3 3-2 1 0 2 1 2 3 0 1-2 2-3 2zm-27-6c0-1 1-2 2-2 2 0 3 1 3 2 0 2-1 3-3 3-1 0-2-1-2-3zm3 232c-32 0-62-12-85-35-23-22-35-52-35-84s12-62 35-85 53-35 85-35 62 12 84 35c23 23 35 53 35 85s-12 62-35 84c-22 23-52 35-84 35zm0-239c-66 0-120 54-120 120 0 65 54 119 120 119 65 0 119-54 119-119 0-66-54-120-119-120zm0 241c-68 0-122-54-122-121 0-68 54-122 122-122 67 0 121 54 121 122 0 67-54 121-121 121zm0-242c-67 0-121 54-121 121 0 66 54 120 121 120 66 0 120-54 120-120 0-67-54-121-120-121zm0-18c-77 0-139 62-139 139 0 76 62 138 139 138 76 0 138-62 138-138 0-77-62-139-138-139zm127 170c-1 5-10 8-12 12-1 5 3 13 1 18-2 4-11 5-14 9s-1 13-4 17c-3 3-12 2-16 5s-3 13-8 16c-4 2-12-1-17 1-4 2-6 11-11 13s-12-4-17-2c-5 1-8 9-14 10-5 0-10-7-15-7-6 0-11 7-16 7-5-1-9-9-14-10-5-2-12 4-17 2s-6-11-11-13c-4-2-13 1-17-1-4-3-4-13-8-16-3-3-12-2-16-5-3-4-1-13-3-17-3-4-12-5-15-9-2-5 3-13 1-18-2-4-11-7-12-12s5-11 5-17c-1-5-9-9-9-15 0-5 8-9 9-15 0-5-6-11-5-16s10-8 12-13c2-4-3-12-1-17 3-4 12-5 15-9s0-13 3-17c4-3 13-2 16-5 4-4 4-13 8-16s13 1 17-1c5-3 6-11 11-13s12 4 17 2c5-1 9-9 14-10 5 0 10 7 16 7 5 0 10-7 15-7 6 1 9 9 14 10 5 2 12-4 17-2s7 11 11 13c5 2 13-2 17 1 5 3 4 12 8 16 4 3 13 2 16 5 3 4 1 13 4 17s12 5 14 9c2 5-2 13-1 17 2 5 11 8 12 13s-5 11-5 16c1 6 9 10 9 15 0 6-8 10-9 15 0 6 6 12 5 17zm-156-84 1 1v-1z"/></svg>