<svg clip-rule="evenodd" fill-rule="evenodd" height=".992403in" image-rendering="optimizeQuality" shape-rendering="geometricPrecision" text-rendering="geometricPrecision" viewBox="0 0 896 889" width="1in" xmlns="http://www.w3.org/2000/svg"><path d="m896 143-1 2c0-1 0-2 1-2zm-283 246h5v-117h-5zm-261-256-4 17-16 7 15 9 2 18 13-11 17 3-6-16 8-15-17 1zm185 0 4 17 16 7-15 9-2 18-13-11-18 3 7-16-8-15 17 1zm-93-17 11 19 22 4-15 17 3 22-21-10-20 10 3-22-15-17 22-4zm234 387h4v-6h-4zm0-113h4v-4h-4zm-22 169h4v-62h-4zm0-169h4v-60h-4zm-21 202h4v-95h-4zm0-202h4v-93h-4zm-43-1h4v-135h-4zm22 227h4v-119h-4zm-22 19h4v-138h-4zm-21 15h4v-153h-4zm0-260h4v-151h-4zm-22 273h4v-166h-4zm0-273h4v-163h-4zm-21 282h4v-175h-4zm0-283h4v-172h-4zm-21 290h4v-182h-4zm0-289h4v-180h-4zm-22 294h4v-187h-4zm0-295h4v-184h-4zm-21 297h4v-189h-4zm0-297h4v-186h-4zm-22 298h4v-190h-4zm0-297h4v-188h-4zm-21 296h4v-189h-4zm0-297h4v-186h-4zm-21 295h4v-187h-4zm0-294h4v-184h-4zm-22 289h4v-182h-4zm0-289h4v-180h-4zm-21 282h4v-175h-4zm0-283h4v-172h-4zm-22 273h4v-165h-4zm0-272h4v-163h-4zm-21 260h4v-153h-4zm0-260h4v-151h-4zm-21 245h4v-138h-4zm0-246h4v-135h-4zm-22 227h4v-119h-4zm0-226h4v-117h-4zm-21 202h4v-95h-4zm0-202h4v-93h-4zm-22 169h4v-62h-4zm0-169h4v-60h-4zm-21 113h4v-6h-4zm0-113h4v-4h-4zm511 95h-11v-66c-2 2-6 4-10 7-4 2-7 4-11 5v-10c6-3 11-6 16-10 4-4 7-8 9-11h7zm-106-42c0-10 1-18 3-24s6-11 10-14c4-4 9-5 15-5 5 0 9 1 12 2 4 2 6 5 9 8 2 4 4 8 5 13s2 12 2 20c0 10-1 18-3 25-2 6-5 10-10 14-4 3-9 5-15 5-8 0-15-3-19-9-6-7-9-19-9-35zm11 0c0 14 2 24 5 28 3 5 7 7 12 7s9-2 12-7c3-4 5-14 5-28s-2-23-5-28c-3-4-7-7-12-7s-9 2-12 7-5 14-5 28zm-77 0c0-10 1-18 3-24s5-11 9-14c4-4 10-5 16-5 4 0 8 1 12 2 3 2 6 5 8 8 3 4 4 8 6 13 1 5 2 12 2 20 0 10-1 18-4 25-2 6-5 10-9 14-4 3-9 5-15 5-8 0-15-3-20-9-5-7-8-19-8-35zm11 0c0 14 1 24 5 28 3 5 7 7 12 7s9-2 12-7c3-4 5-14 5-28s-2-23-5-28c-3-4-7-7-12-7s-9 2-12 7-5 14-5 28zm-22 32v10h-57c0-2 1-5 2-7 1-4 3-8 6-11 4-4 8-8 14-13 9-8 16-14 19-18 3-5 5-9 5-13s-2-7-5-10-6-5-11-5-9 2-12 5-5 7-5 12l-11-1c1-8 4-14 9-18 4-4 11-6 19-6s15 2 19 7c5 4 8 10 8 16 0 4-1 7-3 10-1 4-3 7-6 11-4 4-9 9-17 15-6 5-10 9-12 11s-3 3-4 5zm-82 10h-11v-66c-2 2-5 4-10 7-4 2-7 4-11 5v-10c6-3 11-6 16-10 4-4 7-8 9-11h7zm-164-41c0-14 3-25 11-33s17-12 29-12c8 0 15 2 22 5 6 4 11 9 14 16 4 7 5 14 5 23 0 8-2 16-5 23-4 7-9 12-15 16-6 3-13 5-21 5s-15-2-21-6-11-9-15-16c-3-7-4-14-4-21zm11 0c0 10 3 18 9 24 5 6 12 9 20 9 9 0 16-3 21-9 6-6 8-14 8-25 0-7-1-13-3-18s-6-9-10-12c-5-3-10-5-15-5-8 0-15 3-21 9-6 5-9 14-9 27zm-91 14 11-1c0 4 1 8 3 11 2 2 5 5 9 6 3 2 8 3 13 3 4 0 8-1 11-2s6-3 7-5c2-3 3-5 3-8 0-2-1-5-2-7-2-2-5-3-8-5-2-1-7-2-15-4s-14-4-17-5c-4-2-7-5-9-8s-3-7-3-11 1-8 4-12c2-4 6-6 11-8 4-2 9-3 15-3s12 1 17 3 8 5 11 9 4 8 4 13l-11 1c0-5-2-9-6-12-3-3-8-4-14-4-7 0-12 1-15 3-3 3-5 6-5 9 0 4 1 6 3 8s8 4 17 6 16 4 19 6c5 2 9 5 11 8 3 4 4 8 4 12 0 5-2 9-4 13-3 4-7 7-11 9-5 3-11 4-17 4-7 0-14-1-19-4-5-2-9-5-12-10-3-4-5-9-5-15zm-28 27v-85h12v85zm255 320c0-5 4-9 8-9 5 0 9 4 9 9 0 4-4 8-9 8-4 0-8-4-8-8zm-73-1c-5-1-7-6-7-10 1-5 6-8 10-7 5 1 8 6 7 10-1 4-5 7-8 7-1 0-2 0-2 0zm154-7c-1-4 1-9 6-10 4-1 9 2 10 7 1 4-2 9-6 10-1 0-2 0-2 0-4 0-7-3-8-7zm-232-21c-4-1-6-7-4-11 2-4 7-6 11-4 4 2 6 7 4 11-1 4-4 5-8 5-1 0-2 0-3-1zm308-4c-2-4 0-9 4-11 4-2 9 0 12 4 1 4 0 9-4 11-2 1-3 1-4 1-3 0-6-1-8-5zm-378-40c-4-2-4-8-1-11 2-4 8-4 11-2 4 3 5 9 2 12-2 2-4 3-7 3-1 0-4 0-5-2zm447-1c-3-3-2-9 2-12 3-2 9-2 11 2 3 3 3 9-1 11-1 2-3 2-5 2-3 0-5-1-7-3zm-506-57c-2-3-2-9 2-11 3-3 9-3 12 1 2 4 2 9-2 12-1 1-3 2-5 2-2 0-5-2-7-4zm565 1c-4-2-4-8-2-11 3-4 9-5 12-2 4 3 4 8 1 12-1 2-4 3-6 3-2 0-4 0-5-2zm-609-70c-1-4 0-9 5-12 4-2 9 0 11 4 2 4 0 9-4 12-2 0-2 1-4 1-3-1-6-2-8-5zm653 3c-4-2-6-7-4-11 2-4 7-6 11-4 4 2 6 7 4 11-1 3-4 5-7 5-2 0-2 0-4-1zm-680-81c-1-5 2-9 7-10 4-1 9 2 10 6 1 5-2 9-7 10s-1 0-2 0c-3 0-7-2-8-6zm709 6c-5-1-8-6-7-10 1-5 6-7 10-6 5 1 8 5 7 10-1 4-5 6-8 6-1 0-2 0-2 0zm-718-88c0-5 4-8 8-9 5 0 9 4 9 8 0 5-4 9-9 9-4 0-8-4-8-8zm720-1c0-5 4-9 8-9 5 0 8 4 8 9 0 5-3 9-8 9-4 0-8-4-8-9zm-704-71c-5-1-8-6-7-10 1-5 6-7 10-7 5 1 8 6 7 10-1 5-5 7-9 7zm695-7c-1-5 2-10 6-10 5-1 9 1 10 6 1 4-2 9-6 10-1 0-1 0-2 0-4 0-7-3-8-6zm-671-70c-4-2-6-7-4-11 2-4 7-6 11-4 4 2 6 7 4 11-1 3-4 5-7 5-1 0-3 0-4-1zm645-5c-2-4 0-9 4-11 4-2 9-1 11 4 2 4 0 9-4 11-1 1-2 1-4 1-3 0-6-2-7-5zm-604-64c-3-2-4-8-1-12 3-3 8-4 12-1 3 3 4 8 1 12-2 2-4 3-7 3-1 0-3-1-5-2zm562-2c-3-4-2-9 1-12 4-3 9-2 12 2 3 3 2 9-1 11-2 2-3 2-5 2-3 0-5-1-7-3zm-506-56c-3-4-2-9 2-12 3-3 9-2 11 1 3 4 3 9-1 12-1 1-3 2-5 2-3 0-5-1-7-3zm450 0c-4-3-4-8-1-12 2-3 8-4 12-1 3 3 4 8 1 12-2 2-4 3-7 3-2 0-4 0-5-2zm-383-45c-2-4 0-9 4-12 4-1 9 0 12 5 2 4 0 9-4 11-2 0-3 1-4 1-3 0-6-2-8-5zm316 3c-4-1-5-7-4-11 2-4 7-6 12-4 4 2 6 7 4 11-2 4-5 5-8 5-1 0-2 0-4-1zm-240-31c-1-5 1-9 6-10 4-1 9 2 10 6 1 5-2 9-6 10-1 0-2 0-2 0-4 0-8-3-8-6zm166 6c-4-1-7-6-6-10 1-5 5-8 10-7 4 1 7 6 6 10-1 4-5 7-8 7-1 0-2 0-2 0zm-87-17c0-5 4-8 9-8 4 0 8 3 8 8 0 4-4 8-8 8-5 0-9-4-9-8zm9 743c-102 0-198-40-271-112-72-73-112-169-112-272 0-102 40-198 112-271 73-72 169-112 271-112 103 0 199 40 272 112 72 73 112 169 112 271 0 103-40 199-112 272-73 72-169 112-272 112zm0-766c-210 0-382 172-382 382 0 211 172 383 382 383 211 0 383-172 383-383 0-210-172-382-383-382zm0 773c-215 0-390-175-390-391 0-215 175-390 390-390 216 0 391 175 391 390 0 216-175 391-391 391zm0-777c-213 0-386 173-386 386 0 214 173 387 386 387 214 0 387-173 387-387-1-213-174-386-387-386zm0-58c-245 0-444 199-444 444 0 246 199 445 444 445 246 0 445-199 445-445 0-245-199-444-445-444zm410 545c-4 17-33 25-38 40-6 16 9 40 2 55-8 14-37 16-47 29-9 14 0 42-11 54-11 13-40 7-52 18s-10 40-24 50c-14 9-40-3-55 5-14 7-19 36-35 42-15 6-38-13-54-9s-28 31-45 33c-16 2-34-22-51-22-16 0-34 24-50 22-17-2-29-29-45-33s-39 14-54 9c-16-6-21-35-35-42-15-8-41 4-55-5-14-10-12-39-24-50s-41-5-52-18c-11-12-2-40-12-54-9-13-38-15-46-29-8-15 8-39 2-55-6-15-34-24-38-40s17-36 15-53c-1-16-27-31-27-48s26-32 27-48c2-16-19-37-15-53s33-25 38-40c6-15-10-40-2-55 8-14 37-16 46-29 10-14 1-42 12-54 11-13 40-7 52-18s10-40 24-49c14-10 40 2 55-5 14-8 19-37 35-43 15-6 38 13 54 9s28-31 45-33c16-2 34 22 50 22 17 0 35-24 51-22 17 2 29 29 45 33s39-14 54-9c16 6 21 35 35 43 15 7 41-5 55 5 14 9 12 38 24 49s41 5 52 18c11 12 2 40 11 54 10 13 39 15 47 29 7 15-8 40-2 55s34 24 38 40-17 36-15 53c1 16 27 31 27 48s-26 32-27 48c-3 17 18 37 15 53zm-501-268 2 2 1-4zm-4-11h2v-1z"/></svg>