<svg clip-rule="evenodd" fill-rule="evenodd" height="1in" image-rendering="optimizeQuality" shape-rendering="geometricPrecision" text-rendering="geometricPrecision" viewBox="0 0 278 278" width="1in" xmlns="http://www.w3.org/2000/svg"><path d="m139 6c-73 0-133 60-133 133 0 74 60 133 133 133 74 0 133-59 133-133 0-73-60-133-133-133zm-112 125 3 5 5 1-4 4 1 6-5-3-5 3 1-6-4-4 5-1zm225 0 2 5 6 1-4 4 1 6-5-3-5 3v-6l-3-4 5-1zm-121 34c-2 0-4-1-5-2l-35-34c-3-3-3-8 0-11s8-3 11 0l29 29 45-45c3-3 8-3 11 0s3 7 0 10l-51 51c-1 2-3 2-5 2zm8-98c-40 0-72 32-72 72s32 73 72 73 73-33 73-73-33-72-73-72zm-21 7c-8 6-15 16-19 27-4-2-8-4-12-6 8-10 19-17 31-21zm19-3v39c-13-1-24-3-34-7 7-18 19-31 34-32zm-66 70h21c0 12 2 22 5 32-4 2-8 4-12 7-9-11-14-24-14-39zm16 42 12-6c4 11 11 21 19 27-12-4-23-11-31-21zm50-15v39c-15-1-27-14-34-32 7-3 15-5 24-6-2 0-4-1-5-2l-1-1c-7 1-14 3-20 5-3-9-5-19-5-30h1l-5-5v1h-21c0-14 5-28 13-38 4 2 9 5 13 7-1 2-1 4-2 6 2 0 3 0 5 1 0-2 1-4 1-5 11 4 23 6 36 7v20l4-5v-16c6 0 13-1 18-2l6-6c-7 2-16 3-24 4v-39c13 1 25 12 32 27 1-1 3-1 4-2-4-9-10-16-17-22 12 4 23 11 31 21-1 1-2 1-3 2 0 0 1 1 2 2 0 0 1 1 1 1 1-1 2-1 2-2 9 11 14 24 14 39h-21c0-6-1-11-1-16l-4 4c0 4 1 8 1 12h-13l-5 4h18c-1 11-2 21-5 30-11-4-23-7-36-7l-2 2c0 1-1 2-2 2zm4 0c13 1 24 3 34 7-7 18-19 31-34 32zm19 36c8-6 15-16 19-27l12 6c-8 10-19 17-31 21zm33-24c-3-3-8-5-12-7 3-10 5-20 5-32h21c0 15-5 28-14 39zm-54 98c-77 0-139-62-139-139s62-139 139-139 139 62 139 139-62 139-139 139zm0-275c-75 0-136 61-136 136s61 136 136 136 136-61 136-136-61-136-136-136zm0 227c-50 0-91-41-91-91s41-91 91-91 91 41 91 91-41 91-91 91zm0-180c-49 0-89 40-89 89s40 90 89 90 90-41 90-90-41-89-90-89zm-104 101-8-4-8 4 1-9-6-6 9-1 4-8 4 8 8 1-6 6zm104 81c-51 0-93-42-93-93s42-93 93-93 93 42 93 93-42 93-93 93zm113-85-8 4 1-9-6-6 9-1 4-8 4 8 8 1-6 6 1 9z" fill="#373435"/></svg>