<svg clip-rule="evenodd" fill-rule="evenodd" height="1in" image-rendering="optimizeQuality" shape-rendering="geometricPrecision" text-rendering="geometricPrecision" viewBox="0 0 910 910" width="1in" xmlns="http://www.w3.org/2000/svg"><path d="m455 19c-240 0-436 196-436 436s196 436 436 436 436-196 436-436-196-436-436-436zm-367 411 9 15 18 4-12 13 1 18-16-7-16 7 2-18-12-13 17-4zm736 0 9 15 17 4-12 13 2 18-16-7-16 7 2-18-12-13 17-4zm-396 111c-6 0-12-3-17-7l-112-112c-10-10-10-25 0-35s25-10 35 0l94 95 149-149c9-10 25-10 34 0 10 10 10 25 0 35l-166 166c-4 5-10 7-17 7zm27-323c-131 0-237 106-237 237s106 237 237 237 237-106 237-237-107-237-237-237zm-69 25c-26 20-48 51-63 89-14-7-26-14-37-22 26-31 61-54 100-67zm62-11v127c-41-1-79-8-112-21 24-61 64-102 112-106zm-216 230h69c1 37 7 72 18 103-15 7-29 14-42 24-27-36-43-79-45-127zm54 138c11-8 23-15 37-22 15 38 37 69 63 89-39-13-74-37-100-67zm161-49h1v127c-48-4-88-45-112-105 24-10 50-16 78-19-5-2-10-5-14-9l-3-3c-23 4-45 10-66 18-10-29-16-62-16-97h3l-17-17v3h-69c1-47 18-91 45-127 12 10 26 18 41 25-3 6-4 13-6 20 4 0 10 0 14 1 2-5 3-10 5-15 35 14 74 21 116 22v66l15-14v-54c20 0 40-2 59-6l19-19c-24 6-51 10-78 11v-127c43 4 80 38 105 90 4-3 7-6 12-7-14-30-33-55-55-71 39 13 74 36 100 66-3 3-6 5-10 7 3 2 5 4 8 6 1 2 2 3 3 4 3-2 5-4 8-5 27 35 43 79 44 126h-68c-1-18-2-35-5-52l-12 13c1 13 2 26 2 39h-42l-15 15h57c0 34-6 67-16 97-34-14-74-22-115-23l-8 8c-2 2-5 4-8 6zm15 0c40 1 78 9 112 21-24 61-65 102-112 105zm62 116c26-20 48-51 63-89 13 7 26 14 37 22-26 30-61 54-100 67zm109-78c-13-10-26-17-41-24 10-31 16-66 17-103h69c-2 47-18 91-45 127zm-178 321c-251 0-455-204-455-455s204-455 455-455 455 204 455 455-204 455-455 455zm0-901c-246 0-446 200-446 446s200 446 446 446 446-200 446-446-200-446-446-446zm0 744c-164 0-297-134-297-298s133-297 297-297 298 133 298 297-134 298-298 298zm0-591c-161 0-293 132-293 293 0 162 132 293 293 293 162 0 293-131 293-293 0-161-132-293-293-293zm-170 632 6 5c0 2-1 3-2 5-3 5-7 9-13 10-6 2-13 1-20-3-18-9-22-24-12-44 5-10 12-16 20-20 8-3 17-2 25 2 13 7 17 16 10 29h-9c1-2 2-4 2-5 5-8 4-15-4-18-7-4-16 3-26 22-8 16-8 27 0 31 4 2 8 2 11 1 4-2 7-5 9-9 1-1 2-4 3-6zm65-19-2 6-23-8-7 20 20 7-2 6-20-7-8 26 27 9-2 7-46-16 22-64zm-12 67 16-66 28 7c8 1 13 4 17 8 4 5 5 9 4 15-2 8-8 12-18 12 4 3 7 6 8 8 1 3 1 7 0 14s-1 12 0 15l-21-5c0-3 0-7 1-12l1-4 1-5c2-7 0-12-7-13l-3-1-7 32zm28-32h4c8 2 12-1 14-9 2-7-1-12-8-14h-4zm89-19-1 7-16-2-5 61-21-1 5-61-17-2v-6zm23-2 2 68-20 1-2-68zm49-6 1 7-25 3 3 23 21-3 1 7-21 3 4 31-20 3-8-68zm19-5 15 67-19 4-15-66zm47-15 2 7-23 8 7 19 19-6 2 6-19 7 8 26 28-10 2 7-46 15-22-64zm32 62-31-61 25-13c18-9 32-3 42 17 11 20 6 35-12 44zm15-14 4-3c5-2 7-5 6-10 0-4-2-11-7-21-5-9-9-16-13-18-3-3-7-4-12-1l-4 2zm-250-762v91h-26v-91zm75 25-12 3c0-3 1-5 1-7 0-10-7-16-20-16-10 0-15 4-15 11 0 6 6 11 17 14 22 8 33 19 33 34 0 8-3 15-9 21-6 5-15 7-25 7-22 0-33-8-33-26 0-1 0-3 0-5l13-3c-1 4-2 7-2 10 0 12 7 17 20 17 10 0 15-4 15-12 0-6-6-11-19-16-17-7-26-17-26-32 0-8 3-14 9-19s13-8 23-8c20 0 30 9 30 27zm53-27c26 0 39 16 39 47 0 32-13 47-40 47s-40-16-40-48c0-30 13-46 41-46zm-1 7c-5 0-8 3-10 9-2 5-3 16-3 31 0 16 1 26 3 32 2 5 5 8 10 8s8-3 10-8c2-6 3-16 3-32 0-15-1-26-3-31-2-6-5-9-10-9zm-403 440-26-12-25 12 3-28-19-20 27-6 14-24 13 24 28 6-20 20zm341 265c-167 0-304-136-304-304 0-167 137-304 304-304 168 0 304 137 304 304 0 168-136 304-304 304zm369-277-26 12 4-28-19-20 27-6 13-24 14 24 27 6-19 20 4 28z" fill="#373435"/></svg>