<svg clip-rule="evenodd" fill-rule="evenodd" height="1in" image-rendering="optimizeQuality" shape-rendering="geometricPrecision" text-rendering="geometricPrecision" viewBox="0 0 625 625" width="1in" xmlns="http://www.w3.org/2000/svg"><path d="m190 405c28 37 72 61 122 61s95-24 123-61zm0-185c28-37 72-61 122-61s95 24 123 61zm122 385c-126 0-238-80-278-200v-1c-10-29-15-60-15-92 0-31 5-61 15-91v-1c40-120 152-201 278-201 128 0 240 81 279 202 10 29 14 60 14 91 0 32-4 62-14 91v1 1c-40 120-152 200-279 200zm-174-476 1 7-5 4 6 2 4 6 3-6 7-1-5-5 1-6-6 2zm348 0v7l5 4-7 2-3 6-3-6-7-1 5-5-2-6 6 2zm101 276h-152-245-152c40 118 149 197 274 197 126 0 235-79 275-197zm-549-185h152 245 152c-39-118-150-198-275-198-124 0-235 80-274 198zm-1 182h551c10-29 15-59 15-90v-1c-1-30-5-60-15-88h-551c-10 28-14 58-15 88v1 2c0 12 1 23 3 35v2 1c1 8 3 16 5 25 2 8 4 16 7 25zm275 223c-135 0-255-87-297-215-10-32-15-64-15-98 0-33 5-66 15-97 42-128 162-215 297-215 136 0 256 87 298 215 10 31 15 64 15 97 0 34-5 66-15 98-43 128-162 215-298 215zm0-612c-130 0-244 83-284 206-10 30-15 61-15 93 0 33 5 64 15 94 40 123 154 206 284 206 131 0 245-83 285-206 10-30 15-61 15-94 0-32-5-63-15-93-40-123-155-206-285-206z" fill="#373435"/></svg>