<svg clip-rule="evenodd" fill-rule="evenodd" height="1in" image-rendering="optimizeQuality" shape-rendering="geometricPrecision" text-rendering="geometricPrecision" viewBox="0 0 240 240" width="1in" xmlns="http://www.w3.org/2000/svg"><path d="m73 156c11 14 28 23 47 23s36-9 47-23zm0-71c11-15 28-24 47-24s36 9 47 24zm47 148c-49 0-91-31-107-77v-1c-4-11-6-23-6-35s2-24 6-35c15-47 58-78 107-78s92 31 107 78c4 11 6 23 6 35s-2 24-6 35v1c-15 46-58 77-107 77zm-67-183v2l-2 2 3 1 1 2 2-2 2-1-2-2 1-2-3 1zm134 0v2l2 2-3 1-1 2-1-2-3-1 2-2-1-2 3 1zm9 55h7c2 0 3 1 4 1 2 0 3 1 4 2 3 2 4 6 4 10v5c-1 1-1 2-2 3 0 1-1 2-2 3-1 0-1 1-2 1-1 1-2 1-3 1s-2 0-3 0h-7c-1 0-2 0-2 0-1 0-1-1-1-1 0-1 0-1 0-2v-19c0-1 0-2 0-3 1 0 2-1 3-1zm2 5v17h4 2 2s1-1 1-1c2-2 3-4 3-8 0-2-1-4-2-5 0-2-1-3-2-3-2 0-3 0-5 0zm-12-1h-12v7h11 1c1 1 1 1 1 2 0 0 0 1-1 1 0 1-1 1-1 1h-11v7h12c1 0 1 0 2 1 0 0 1 1 1 1 0 1-1 1-1 2-1 0-1 0-2 0h-14c-1 0-2 0-3 0 0-1 0-2 0-3v-19c0-1 0-2 0-2 0-1 0-1 1-1 0 0 1-1 2-1h14s1 1 1 1c1 0 1 1 1 1 0 1 0 2-1 2zm-29 20v-21c0-1 1-2 1-2 1-1 1-1 2-1s1 0 2 1c0 0 1 1 1 2v21c0 1-1 1-1 2-1 1-1 1-2 1s-1 0-2-1c0-1-1-1-1-2zm-6-20h-11v7h9c1 0 1 0 2 1v1 2c-1 0-1 0-2 0h-9v9 2c-1 1-1 1-2 1s-2 0-2-1c-1-1-1-1-1-2v-20c0-1 0-2 1-2 0-1 0-1 1-1 0 0 1-1 1-1h13c1 0 1 1 2 1v1 2c-1 0-1 0-2 0zm-27 20v-21c0-1 0-2 1-2 0-1 1-1 2-1s1 0 2 1v2 21 2c-1 1-1 1-2 1s-2 0-2-1c-1-1-1-1-1-2zm-6-19h-6v19 2c-1 1-1 1-2 1s-2 0-2-1c-1-1-1-1-1-2v-19h-6s-1 0-2-1v-1c0-1 0-2 0-2 1 0 2-1 2-1h17c1 0 2 1 2 1 1 0 1 1 1 2 0 0 0 1-1 1 0 1-1 1-2 1zm-34 10h-2v9c0 1 0 2-1 2 0 1-1 1-1 1-1 0-2 0-2-1-1-1-1-1-1-2v-20c0-1 0-2 1-3 0 0 1-1 2-1h9c1 0 2 0 3 1h2c1 1 2 1 2 2 1 0 1 1 2 2v3c0 1 0 3-2 4-1 1-2 2-5 3 1 0 2 1 3 2s2 2 2 3c1 1 2 2 2 3s1 1 1 2c0 0-1 0-1 1 0 0 0 0-1 1 0 0 0 0-1 0s-1 0-1-1c-1 0-1 0-1-1-1 0-1-1-2-2l-2-3c-1-1-1-2-2-3 0-1-1-1-2-1 0-1-1-1-2-1zm3-11h-5v8h5c1 0 2-1 3-1s2 0 2-1c1 0 1-1 1-2s0-1-1-2c0-1-1-1-1-1-1-1-2-1-4-1zm-17 0h-12v7h11 2v2 1c-1 1-1 1-2 1h-11v7h12c1 0 2 0 2 1 1 0 1 1 1 1 0 1 0 1-1 2 0 0-1 0-2 0h-14c-1 0-2 0-2 0-1-1-1-2-1-3v-19c0-1 0-2 0-2 0-1 1-1 1-1 1 0 1-1 2-1h14c1 0 1 1 2 1v1 2c-1 0-1 0-2 0zm-22 14c0 1 0 2-1 3 0 1-1 2-1 3-1 1-2 1-4 2-1 1-3 1-5 1-1 0-2 0-3-1-1 0-2 0-3-1-1 0-2-1-3-2s-1-2-2-3c0-1 0-2-1-3 0-1 0-2 0-4s0-4 1-5c0-2 1-3 2-4 2-2 3-2 4-3 2-1 4-1 5-1 2 0 4 0 6 1s3 2 4 3c1 2 1 3 1 4 0 0 0 1-1 1 0 1-1 1-1 1-1 0-1 0-2 0 0-1 0-1-1-2 0-1-1-2-2-3s-2-1-4-1-3 1-5 3c-1 1-2 4-2 7 0 2 1 3 1 5l3 3c1 0 2 1 3 1 2 0 3-1 4-1 1-1 2-2 2-4 1 0 1-1 1-1 1-1 1-1 2-1 0 0 1 0 1 1 1 0 1 1 1 1zm178 33h-59-94-59c16 45 58 75 106 75s90-30 106-75zm-212-71h59 94 59c-16-46-58-76-106-76s-90 30-106 76zm0 69h212c4-11 6-22 6-34v-1c-1-11-2-22-6-33h-212c-3 11-5 22-5 34v1c0 4 0 9 1 13v1c0 3 1 7 1 10zm106 86c-52 0-98-33-114-83-4-12-6-24-6-37s2-25 6-37c16-50 62-83 114-83s98 33 114 83c4 12 6 24 6 37s-2 25-6 37c-16 50-62 83-114 83zm0-235c-50 0-94 32-109 79-4 12-6 24-6 36s2 24 6 36c15 47 59 79 109 79s94-32 110-79c3-12 5-24 5-36s-2-24-5-36c-16-47-60-79-110-79z" fill="#373435"/></svg>