<svg clip-rule="evenodd" fill-rule="evenodd" height="1.00051in" image-rendering="optimizeQuality" shape-rendering="geometricPrecision" text-rendering="geometricPrecision" viewBox="0 0 666 666" width="1in" xmlns="http://www.w3.org/2000/svg"><path d="m535 333c0-112-90-202-202-202s-202 90-202 202 90 202 202 202 202-90 202-202zm-441-25c-14 0-25 11-25 25s11 25 25 25 25-11 25-25-11-25-25-25zm0 17c5 0 9-2 13-3 1 3 1 7 1 10h-14zm0-2v-13c5 0 10 4 12 11-3 1-7 2-12 2zm-1 0c-4 0-8-1-12-3 3-6 7-10 12-11zm0 2v7h-14c0-3 1-7 2-10zm-16 7h-7c0-5 2-9 5-13 1 1 3 2 5 2-2 4-2 7-3 11zm0 2c0 3 1 7 2 10-2 1-3 2-4 3-3-4-5-9-5-13zm2 0h14v7c-4 0-8 1-12 3-1-3-2-7-2-10zm14 9v13c-5 0-9-4-12-11 4-1 8-2 12-2zm1 0c4 0 9 1 12 2-2 7-7 11-12 12zm0-2v-7h14c0 3 0 7-1 10-4-2-8-2-13-3zm16-7h7c0 5-2 9-5 13-1-1-2-2-4-3 1-3 2-6 2-10zm0-2c0-3-1-7-2-11 2 0 3-1 5-2 2 4 4 9 4 13zm2-14c-1 1-3 1-4 2-2-4-4-7-7-9 4 1 8 4 11 7zm-25-7c-3 2-5 5-7 9-1-1-3-2-4-3 3-2 7-5 11-6zm-11 37c1-1 3-1 4-2 2 4 4 7 7 9-4-1-8-4-11-7zm25 7c3-2 5-5 7-9 1 1 2 2 4 3-3 2-7 5-11 6zm471-47c-14 0-25 11-25 25s11 25 25 25 25-11 25-25-11-25-25-25zm1 17c4 0 8-2 12-3 1 3 1 7 1 10h-13zm0-2v-13c5 0 9 4 11 11-3 1-7 2-11 2zm-2 0c-4 0-8-1-12-3 3-6 7-10 12-11zm0 2v7h-14c0-3 1-7 2-10zm-15 7h-7c0-5 2-9 4-13 2 1 3 2 5 2-2 4-2 7-2 11zm0 2c0 3 0 7 1 10-1 1-3 2-4 3-3-4-4-9-5-13zm1 0h14v7c-4 0-8 1-12 3-1-3-2-7-2-10zm14 9v13c-5 0-9-4-12-11 4-1 8-2 12-2zm2 0c4 0 8 1 11 2-2 7-6 11-11 12zm0-2v-7h13c0 3 0 7-1 10-4-2-8-2-12-3zm15-7h7c0 5-2 9-5 13-1-1-2-2-4-3 1-3 2-6 2-10zm0-2c0-3-1-7-2-11 2 0 3-1 5-2 3 4 4 9 5 13zm2-14c-1 1-3 1-4 2-2-4-4-7-7-9 4 1 8 4 11 7zm-25-7c-3 2-5 5-7 9-1-1-2-2-4-3 3-2 6-5 11-6zm-11 37c1-1 3-1 4-2 2 4 4 7 7 9-5-1-8-4-11-7zm25 7c3-2 5-5 7-9 1 1 2 2 4 3-3 2-7 5-11 6zm-246 297c-176 0-319-143-319-319s143-319 319-319 319 143 319 319-143 319-319 319zm0-599c-155 0-280 126-280 280 0 155 126 280 280 280 155 0 280-126 280-280 0-155-126-280-280-280zm0 613c-184 0-333-149-333-333s150-333 333-333c184 0 333 150 333 333 0 184-150 333-333 333zm0-663c-182 0-330 148-330 330s148 330 330 330 330-148 330-330-148-330-330-330z" fill="#373435"/></svg>