<svg clip-rule="evenodd" fill-rule="evenodd" height="1.00051in" image-rendering="optimizeQuality" shape-rendering="geometricPrecision" text-rendering="geometricPrecision" viewBox="0 0 242 242" width="1in" xmlns="http://www.w3.org/2000/svg"><path d="m194 121c0-41-33-73-73-73-41 0-73 32-73 73 0 40 32 73 73 73 40 0 73-33 73-73zm-160-9c-5 0-9 4-9 9s4 9 9 9 9-4 9-9-4-9-9-9zm0 6c2 0 3-1 5-1v4h-5zm0-1v-5c2 1 4 2 5 4-2 1-3 1-5 1zm0 0c-2 0-3 0-5-1 1-2 3-3 5-4zm0 1v3h-5c0-2 0-3 0-4 2 0 3 1 5 1zm-6 3h-2c0-2 0-4 1-5 1 0 1 0 2 1-1 1-1 2-1 4zm0 0c0 1 0 3 1 4-1 0-1 1-2 1-1-1-1-3-2-5zm1 0h5v3c-2 0-3 0-5 1 0-1 0-3 0-4zm5 4v4c-2 0-4-1-5-4zm0 0h5c-1 3-3 4-5 4zm0-1v-3h5v4c-2-1-3-1-5-1zm6-3h3c0 2-1 4-2 5-1 0-1-1-2-1 1-1 1-2 1-4zm0 0c0-2 0-3-1-4 1-1 1-1 2-1 1 1 2 3 2 5zm1-6c-1 1-1 1-2 1-1-1-1-2-2-3 1 0 2 1 4 2zm-10-2c-1 1-1 2-2 3 0 0-1 0-1-1 1-1 2-2 3-2zm-3 13h1c1 1 1 2 2 3-1 0-2-1-3-3zm9 3c1-1 2-2 2-3 1 0 1 0 2 1-2 1-3 2-4 2zm171-17c-5 0-9 4-9 9s4 9 9 9 9-4 9-9-4-9-9-9zm0 6c1 0 3-1 4-1 1 1 1 2 1 4h-5zm0-1v-5c2 1 3 2 4 4-1 1-3 1-4 1zm-1 0c-1 0-3 0-4-1 1-2 3-3 4-4zm0 1v3h-5c0-2 1-3 1-4 1 0 3 1 4 1zm-5 3h-3c0-2 1-4 2-5 0 0 1 0 1 1zm0 0v4s-1 1-1 1c-1-1-2-3-2-5zm0 0h5v3c-1 0-3 0-4 1 0-1-1-3-1-4zm5 4v4c-1 0-3-1-4-4zm1 0h4c-1 3-2 4-4 4zm0-1v-3h5c0 1 0 3-1 4-1-1-3-1-4-1zm6-3h2c0 2-1 4-2 5 0 0-1-1-1-1 0-1 1-2 1-4zm0 0c0-2-1-3-1-4 1-1 1-1 2-1 1 1 1 3 1 5zm0-6c0 1-1 1-1 1-1-1-2-2-3-3 2 0 3 1 4 2zm-9-2c-1 1-2 2-2 3-1 0-1 0-2-1 1-1 2-2 4-2zm-4 13h2c0 1 1 2 2 3-2 0-3-1-4-3zm9 3 3-3s1 0 1 1c-1 1-2 2-4 2zm-89 108c-64 0-116-52-116-116s52-116 116-116 116 52 116 116-52 116-116 116zm0-218c-56 0-102 46-102 102s46 102 102 102 102-46 102-102-46-102-102-102zm0 223c-67 0-121-54-121-121s54-121 121-121 121 54 121 121-55 121-121 121zm0-241c-66 0-120 54-120 120s54 120 120 120 120-54 120-120-54-120-120-120zm-47 124v-44h6v44zm15-14 5-1c0 3 1 4 2 6 1 1 2 2 4 3s5 2 7 2 4-1 6-1c2-1 3-2 4-3s1-3 1-4 0-3-1-4-2-1-4-2c-1-1-4-1-8-2s-7-2-9-3-3-3-4-4c-1-2-2-4-2-6s1-4 2-6 3-3 6-4c2-1 5-2 8-2s6 1 8 2c3 1 5 2 6 4 2 2 2 5 2 7l-5 1c-1-3-2-5-3-7-2-1-5-2-8-2-4 0-6 1-8 2-1 2-2 3-2 5 0 1 0 3 2 4 1 1 4 2 8 3 5 1 8 2 10 3 3 1 5 2 6 4s2 4 2 7c0 2-1 4-2 6-2 2-4 4-6 5-3 1-5 2-9 2s-7-1-10-2c-2-1-4-3-6-5-2-3-2-5-2-8zm41-7c0-8 2-14 6-18s9-6 15-6c4 0 8 1 11 3s6 5 8 8c1 4 2 8 2 12s-1 9-2 12c-2 4-5 6-8 8-4 2-7 3-11 3s-8-1-11-3-6-5-8-8c-1-4-2-8-2-11zm6 0c0 5 1 9 4 12s7 5 11 5 8-2 11-5 4-7 4-13c0-4 0-7-2-9-1-3-3-5-5-7-2-1-5-2-8-2-4 0-8 2-11 4-3 3-4 8-4 15zm-53 55h-3v-21c-1 1-2 2-3 2-1 1-2 2-3 2v-3c1-1 3-2 4-3 2-1 3-2 3-4h2zm25-3v3h-17c0-1 0-2 0-3l3-3 4-4c3-2 5-4 6-6 1-1 1-2 1-3 0-2 0-3-1-4-1 0-2-1-4-1-1 0-3 1-4 1-1 1-1 3-1 4h-3c0-2 1-4 2-6 2-1 4-2 6-2 3 0 5 1 6 3 2 1 2 3 2 5v3c-1 1-1 2-2 3s-3 3-5 5c-2 1-4 2-4 3-1 0-1 1-1 2zm4-10c0-3 0-6 1-8 0-2 1-3 3-4 1-1 2-2 4-2s3 1 4 1l3 3c0 1 1 2 1 4 1 1 1 3 1 6s-1 5-1 7c-1 2-2 4-3 5s-3 1-5 1-4-1-6-3c-1-2-2-5-2-10zm3 0c0 4 1 7 2 8 1 2 2 2 3 2 2 0 3 0 4-2 1-1 2-4 2-8 0-5-1-7-2-9-1-1-2-2-4-2-1 0-2 1-3 2-1 2-2 5-2 9zm17 0c0-3 0-6 1-8s2-3 3-4 3-2 5-2c1 0 2 1 3 1l3 3c1 1 1 2 1 4 1 1 1 3 1 6s0 5-1 7c0 2-1 4-3 5-1 1-3 1-4 1-3 0-5-1-6-3-2-2-3-5-3-10zm3 0c0 4 1 7 2 8 1 2 2 2 4 2 1 0 2 0 3-2 1-1 2-4 2-8 0-5-1-7-2-9-1-1-2-2-3-2-2 0-3 1-4 2-1 2-2 5-2 9zm29 13h-3v-21c-1 1-2 2-3 2-1 1-2 2-3 2v-3c2-1 3-2 4-3 2-1 3-2 3-4h2z" fill="#373435"/></svg>