<svg enable-background="new 0 0 512 512" viewBox="0 0 512 512" xmlns="http://www.w3.org/2000/svg"><path d="m497 90c8.284 0 15-6.716 15-15v-60c0-8.284-6.716-15-15-15h-60c-8.284 0-15 6.716-15 15v15h-332v-15c0-8.284-6.716-15-15-15h-60c-8.284 0-15 6.716-15 15v60c0 8.284 6.716 15 15 15h15v332h-15c-8.284 0-15 6.716-15 15v60c0 8.284 6.716 15 15 15h60c8.284 0 15-6.716 15-15v-15h332v15c0 8.284 6.716 15 15 15h60c8.284 0 15-6.716 15-15v-60c0-8.284-6.716-15-15-15h-15v-332zm-467-60h30v30h-30zm30 452h-30v-30h30zm362-45v15h-332v-15c0-8.284-6.716-15-15-15h-15v-332h15c8.284 0 15-6.716 15-15v-15h332v15c0 8.284 6.716 15 15 15h15v332h-15c-8.284 0-15 6.716-15 15zm60 45h-30v-30h30zm-30-422v-30h30v30z"/><path d="m376 90h-240c-8.284 0-15 6.716-15 15v90c0 13.302 16.165 20.051 25.606 10.607l25.607-25.607h38.787v177.458l-27.48 41.221c-6.641 9.961.53 23.321 12.48 23.321h120c11.971 0 19.109-13.377 12.48-23.32l-27.48-41.222v-177.458h38.783l25.611 25.607c9.406 9.406 25.606 2.748 25.606-10.607v-90c0-8.284-6.716-15-15-15zm-15 68.79-4.398-4.397c-2.813-2.813-6.628-4.393-10.605-4.393h-59.997c-8.284 0-15 6.716-15 15v197c0 2.961.877 5.856 2.52 8.32l14.453 21.68h-63.945l14.453-21.68c1.643-2.464 2.52-5.359 2.52-8.32v-197c0-8.284-6.716-15-15-15h-60c-3.979 0-7.794 1.58-10.606 4.393l-4.395 4.394v-38.787h210z"/></svg>