<svg viewBox="0 0 24 24" id="redesign--watermark-24" xmlns="http://www.w3.org/2000/svg"><g fill-rule="evenodd"><path d="M17.707 8.293c.63.63.184 1.707-.707 1.707h-6a1 1 0 0 1-1-1V3c0-.89 1.077-1.337 1.707-.707l6 6zM14.586 8L12 5.414V8h2.586zM6.5 13a.5.5 0 1 1 0-1h5a.5.5 0 1 1 0 1h-5zm0 2a.5.5 0 1 1 0-1h4a.5.5 0 1 1 0 1h-4zm0 2a.5.5 0 1 1 0-1h3a.5.5 0 1 1 0 1h-3zm9.366 1h2.268L17 16.016 15.866 18zm3.411 2h-4.554l-.855 1.496a1 1 0 1 1-1.736-.992l4-7a1 1 0 0 1 1.736 0l4 7a1 1 0 0 1-1.736.992L19.277 20z"></path><path d="M16 9a1 1 0 1 1 2 0v1a1 1 0 1 1-2 0V9zM9 20a1 1 0 1 1 0 2H4a2 2 0 0 1-2-2V4a2 2 0 0 1 2-2h7a1 1 0 1 1 0 2H4v16h5z"></path></g></svg>