<?xml version="1.0" standalone="no"?>
<!DOCTYPE svg PUBLIC "-//W3C//DTD SVG 1.1//EN" "http://www.w3.org/Graphics/SVG/1.1/DTD/svg11.dtd" >
<svg xmlns="http://www.w3.org/2000/svg">
<defs>
  <font id="Material Design Light" horiz-adv-x="1000">
    <font-face font-family="Material Design Light"
      units-per-em="1000" ascent="1000"
      descent="0" />
    <missing-glyph horiz-adv-x="0" />
    <glyph glyph-name="mdi-light:account"
      unicode="&#xE001;"
      horiz-adv-x="1000" d="M479.1666666666666 416.6666666666668C651.6666666666666 416.6666666666668 791.6666666666666 351.2500000000001 791.6666666666666 270.8333333333335V166.6666666666668H166.6666666666667V270.8333333333334C166.6666666666667 351.2500000000001 306.6666666666667 416.6666666666668 479.1666666666666 416.6666666666668M750 270.8333333333335C750 328.3333333333335 628.75 375.0000000000001 479.1666666666667 375.0000000000001S208.3333333333333 328.3333333333334 208.3333333333333 270.8333333333334V208.3333333333334H750V270.8333333333334M479.1666666666666 791.6666666666667A145.8333333333334 145.8333333333334 0 0 0 625 645.8333333333334A145.8333333333334 145.8333333333334 0 0 0 479.1666666666667 500.0000000000001A145.8333333333334 145.8333333333334 0 0 0 333.3333333333333 645.8333333333334A145.8333333333334 145.8333333333334 0 0 0 479.1666666666666 791.6666666666667M479.1666666666666 750A104.1666666666666 104.1666666666666 0 0 1 375 645.8333333333334A104.1666666666666 104.1666666666666 0 0 1 479.1666666666666 541.6666666666667A104.1666666666666 104.1666666666666 0 0 1 583.3333333333333 645.8333333333334A104.1666666666666 104.1666666666666 0 0 1 479.1666666666666 750z" />
    <glyph glyph-name="mdi-light:account-alert"
      unicode="&#xE002;"
      horiz-adv-x="1000" d="M437.5 416.6666666666668C610 416.6666666666668 750 351.2500000000001 750 270.8333333333335V166.6666666666668H125V270.8333333333334C125 351.2500000000001 265 416.6666666666668 437.5 416.6666666666668M708.3333333333333 270.8333333333335C708.3333333333333 328.3333333333335 587.0833333333333 375.0000000000001 437.5 375.0000000000001S166.6666666666667 328.3333333333334 166.6666666666667 270.8333333333334V208.3333333333334H708.3333333333333V270.8333333333334M437.5 791.6666666666667A145.8333333333334 145.8333333333334 0 0 0 583.3333333333333 645.8333333333334A145.8333333333334 145.8333333333334 0 0 0 437.5 500.0000000000001A145.8333333333334 145.8333333333334 0 0 0 291.6666666666667 645.8333333333334A145.8333333333334 145.8333333333334 0 0 0 437.5 791.6666666666667M437.5 750A104.1666666666666 104.1666666666666 0 0 1 333.3333333333333 645.8333333333334A104.1666666666666 104.1666666666666 0 0 1 437.5 541.6666666666667A104.1666666666666 104.1666666666666 0 0 1 541.6666666666666 645.8333333333334A104.1666666666666 104.1666666666666 0 0 1 437.5 750M833.3333333333333 333.3333333333334V375H874.9999999999999V333.3333333333334H833.3333333333333M833.3333333333333 458.3333333333334V708.3333333333334H874.9999999999999V458.3333333333334H833.3333333333333z" />
    <glyph glyph-name="mdi-light:alarm"
      unicode="&#xE003;"
      horiz-adv-x="1000" d="M479.1666666666666 750A312.5 312.5 0 0 0 791.6666666666666 437.5A312.5 312.5 0 0 0 479.1666666666666 125A312.5 312.5 0 0 0 166.6666666666667 437.5A312.5 312.5 0 0 0 479.1666666666666 750M479.1666666666666 708.3333333333333A270.8333333333334 270.8333333333334 0 0 1 208.3333333333333 437.5A270.8333333333334 270.8333333333334 0 0 1 479.1666666666666 166.6666666666668A270.8333333333334 270.8333333333334 0 0 1 750 437.5A270.8333333333334 270.8333333333334 0 0 1 479.1666666666666 708.3333333333334M458.3333333333333 625H500V443.3333333333334L627.0833333333334 384.1666666666667L609.5833333333334 346.25L458.3333333333333 416.6666666666668V625M635.4166666666666 781.25L662.0833333333333 812.5L821.6666666666665 679.1666666666667L794.9999999999999 647.5L635.4166666666666 781.25M322.9166666666667 781.25L163.3333333333334 647.5L136.6666666666667 679.1666666666666L296.25 812.5L322.9166666666667 781.25z" />
    <glyph glyph-name="mdi-light:alarm-panel"
      unicode="&#xE004;"
      horiz-adv-x="1000" d="M333.3333333333333 541.6666666666667V458.3333333333334H208.3333333333333V541.6666666666667H333.3333333333333M541.6666666666666 541.6666666666667H416.6666666666667V458.3333333333334H541.6666666666666V541.6666666666667M750 541.6666666666667H625V458.3333333333334H750V541.6666666666667M708.3333333333334 708.3333333333334H250V625H708.3333333333333V708.3333333333334M749.9999999999999 750V583.3333333333334H208.3333333333333V750H750M791.6666666666666 791.6666666666666H166.6666666666667C143.75 791.6666666666666 125 772.9166666666666 125 750V208.3333333333334C125 185.4166666666666 143.75 166.6666666666668 166.6666666666667 166.6666666666668H791.6666666666666C814.5833333333334 166.6666666666668 833.3333333333333 185.4166666666668 833.3333333333333 208.3333333333334V750C833.3333333333333 772.9166666666666 814.5833333333333 791.6666666666666 791.6666666666666 791.6666666666666M791.6666666666666 833.3333333333333C837.4999999999999 833.3333333333333 875 795.8333333333333 875 750V208.3333333333334C875 162.5000000000001 837.5 125 791.6666666666666 125H166.6666666666667C120.8333333333333 125 83.3333333333333 162.5 83.3333333333333 208.3333333333334V750C83.3333333333333 795.8333333333334 120.8333333333333 833.3333333333333 166.6666666666667 833.3333333333333H791.6666666666666M333.3333333333333 416.6666666666668H208.3333333333333V333.3333333333334H333.3333333333333V416.6666666666668M541.6666666666666 416.6666666666668H416.6666666666667V333.3333333333334H541.6666666666666V416.6666666666668M750 416.6666666666668H625V333.3333333333334H750V416.6666666666668M333.3333333333333 291.6666666666668H208.3333333333333V208.3333333333334H333.3333333333333V291.6666666666668M541.6666666666666 291.6666666666668H416.6666666666667V208.3333333333334H541.6666666666666V291.6666666666668M750 291.6666666666668H625V208.3333333333334H750V291.6666666666668z" />
    <glyph glyph-name="mdi-light:alarm-plus"
      unicode="&#xE005;"
      horiz-adv-x="1000" d="M479.1666666666666 750A312.5 312.5 0 0 0 791.6666666666666 437.5A312.5 312.5 0 0 0 479.1666666666666 125A312.5 312.5 0 0 0 166.6666666666667 437.5A312.5 312.5 0 0 0 479.1666666666666 750M479.1666666666666 708.3333333333333A270.8333333333334 270.8333333333334 0 0 1 208.3333333333333 437.5A270.8333333333334 270.8333333333334 0 0 1 479.1666666666666 166.6666666666668A270.8333333333334 270.8333333333334 0 0 1 750 437.5A270.8333333333334 270.8333333333334 0 0 1 479.1666666666666 708.3333333333334M635.4166666666666 781.25L662.0833333333333 812.5L821.6666666666665 679.1666666666667L794.9999999999999 647.5L635.4166666666666 781.25M322.9166666666667 781.25L163.3333333333334 647.5L136.6666666666667 679.1666666666666L296.25 812.5L322.9166666666667 781.25M458.3333333333333 541.6666666666667H500V458.3333333333334H583.3333333333334V416.6666666666668H500V333.3333333333334H458.3333333333333V416.6666666666668H375V458.3333333333334H458.3333333333333V541.6666666666667z" />
    <glyph glyph-name="mdi-light:alert"
      unicode="&#xE006;"
      horiz-adv-x="1000" d="M41.6666666666667 125L479.1666666666666 882.9166666666666L916.6666666666666 125H41.6666666666667M844.5833333333333 166.6666666666666L479.1666666666666 799.5833333333334L113.75 166.6666666666668H844.5833333333333M458.3333333333333 416.6666666666668V583.3333333333334H500V416.6666666666668H458.3333333333333M458.3333333333333 333.3333333333334H500V250H458.3333333333333V333.3333333333334z" />
    <glyph glyph-name="mdi-light:alert-circle"
      unicode="&#xE007;"
      horiz-adv-x="1000" d="M479.1666666666666 875A395.8333333333333 395.8333333333333 0 0 0 875 479.1666666666667A395.8333333333333 395.8333333333333 0 0 0 479.1666666666667 83.3333333333335A395.8333333333333 395.8333333333333 0 0 0 83.3333333333333 479.1666666666667A395.8333333333333 395.8333333333333 0 0 0 479.1666666666666 875M479.1666666666666 833.3333333333334A354.1666666666667 354.1666666666667 0 0 1 125 479.1666666666667A354.1666666666667 354.1666666666667 0 0 1 479.1666666666666 125.0000000000001A354.1666666666667 354.1666666666667 0 0 1 833.3333333333333 479.1666666666667A354.1666666666667 354.1666666666667 0 0 1 479.1666666666666 833.3333333333334M458.3333333333333 291.6666666666668V375.0000000000001H500V291.6666666666668H458.3333333333333M458.3333333333333 458.3333333333334V666.6666666666667H500V458.3333333333334H458.3333333333333z" />
    <glyph glyph-name="mdi-light:alert-octagon"
      unicode="&#xE008;"
      horiz-adv-x="1000" d="M125 333.3333333333334V625L333.3333333333333 833.3333333333333H625L833.3333333333333 625V332.0833333333333L626.25 125H333.3333333333333L125 333.3333333333333M349.5833333333334 791.6666666666667L166.6666666666667 608.75V350.0000000000001L350 166.6666666666668H608.7499999999999L791.6666666666666 349.5833333333334V608.75L608.7499999999999 791.6666666666667H349.5833333333334M458.3333333333333 666.6666666666667H500V458.3333333333334H458.3333333333333V666.6666666666667M458.3333333333333 375H500V291.6666666666667H458.3333333333333V375z" />
    <glyph glyph-name="mdi-light:arrange-bring-forward"
      unicode="&#xE009;"
      horiz-adv-x="1000" d="M333.3333333333333 625H500V583.3333333333333H404.5833333333334L684.1666666666666 303.3333333333334L654.9999999999999 274.1666666666667L375 553.75V458.3333333333334H333.3333333333333V625M125 833.3333333333334H625V458.3333333333334L583.3333333333334 500.0000000000001V791.6666666666667H166.6666666666667V375H458.3333333333333L499.9999999999999 333.3333333333334H125V833.3333333333334M833.3333333333333 625V125H333.3333333333333V250H375V166.6666666666666H791.6666666666666V583.3333333333334H708.3333333333333V625H833.3333333333333z" />
    <glyph glyph-name="mdi-light:arrange-bring-to-front"
      unicode="&#xE00A;"
      horiz-adv-x="1000" d="M375 708.3333333333334V791.6666666666667H166.6666666666667V583.3333333333334H250V541.6666666666667H125V833.3333333333334H416.6666666666667V708.3333333333334H375M541.6666666666666 125.0000000000001V250.0000000000001H583.3333333333333V166.6666666666668H791.6666666666665V375H708.3333333333331V416.6666666666667H833.3333333333331V125H541.6666666666665M333.3333333333333 625H625V333.3333333333334H333.3333333333333V625M375 583.3333333333333V375H583.3333333333333V583.3333333333333H375z" />
    <glyph glyph-name="mdi-light:arrange-send-backward"
      unicode="&#xE00B;"
      horiz-adv-x="1000" d="M250 708.3333333333334H416.6666666666667V666.6666666666667H321.25L600.8333333333334 386.6666666666668L571.6666666666666 357.5L291.6666666666667 637.0833333333333V541.6666666666667H250V708.3333333333334M833.3333333333333 125.0000000000001H333.3333333333333V500.0000000000001L375 458.3333333333335V166.6666666666669H791.6666666666666V583.3333333333334H500L458.3333333333333 625H833.3333333333333V125M125 333.3333333333334V833.3333333333334H625V708.3333333333334H583.3333333333334V791.6666666666667H166.6666666666667V375H250V333.3333333333334H125z" />
    <glyph glyph-name="mdi-light:arrange-send-to-back"
      unicode="&#xE00C;"
      horiz-adv-x="1000" d="M375 791.6666666666667H166.6666666666667V583.3333333333334H375V791.6666666666667M416.6666666666667 541.6666666666667H125V833.3333333333334H416.6666666666667V541.6666666666667M541.6666666666666 125.0000000000001V416.6666666666668H833.3333333333333V125.0000000000001H541.6666666666666M583.3333333333333 166.6666666666668H791.6666666666665V375H583.3333333333333V166.6666666666668M666.6666666666666 666.6666666666667V500.0000000000001H625V625H500V666.6666666666667H666.6666666666666M291.6666666666667 291.6666666666668V458.3333333333334H333.3333333333333V333.3333333333334H458.3333333333333V291.6666666666668H291.6666666666667z" />
    <glyph glyph-name="mdi-light:arrow-down"
      unicode="&#xE00D;"
      horiz-adv-x="1000" d="M500 791.6666666666667V281.25L718.75 500L750 472.5L479.1666666666667 201.6666666666666L208.3333333333334 472.4999999999999L239.5833333333334 499.9999999999999L458.3333333333333 281.25V791.6666666666667H500z" />
    <glyph glyph-name="mdi-light:arrow-down-circle"
      unicode="&#xE00E;"
      horiz-adv-x="1000" d="M500 708.3333333333334V364.5833333333334L635.4166666666666 500L666.6666666666666 472.5L479.1666666666666 285L291.6666666666667 472.5L322.9166666666667 500.0000000000001L458.3333333333333 364.5833333333334V708.3333333333334H500M479.1666666666667 83.3333333333334C260.8333333333333 83.3333333333334 83.3333333333333 260.4166666666668 83.3333333333333 479.1666666666667A395.8333333333333 395.8333333333333 0 0 0 479.1666666666666 875A395.8333333333333 395.8333333333333 0 0 0 875 479.1666666666667A395.8333333333333 395.8333333333333 0 0 0 479.1666666666667 83.3333333333335M479.1666666666667 125.0000000000001A354.1666666666667 354.1666666666667 0 0 1 833.3333333333333 479.1666666666667A354.1666666666667 354.1666666666667 0 0 1 479.1666666666666 833.3333333333334A354.1666666666667 354.1666666666667 0 0 1 125 479.1666666666667A354.1666666666667 354.1666666666667 0 0 1 479.1666666666666 125.0000000000001z" />
    <glyph glyph-name="mdi-light:arrow-left"
      unicode="&#xE00F;"
      horiz-adv-x="1000" d="M791.6666666666666 458.3333333333334H281.25L500 239.5833333333334L472.5 208.3333333333334L201.6666666666667 479.1666666666667L472.5 750L500 718.75L281.25 500H791.6666666666666V458.3333333333334z" />
    <glyph glyph-name="mdi-light:arrow-left-circle"
      unicode="&#xE010;"
      horiz-adv-x="1000" d="M708.3333333333333 458.3333333333334H364.5833333333333L500 322.9166666666668L472.5 291.6666666666668L285 479.1666666666667L472.5 666.6666666666667L500 635.4166666666667L364.5833333333333 500H708.3333333333333V458.3333333333334M83.3333333333333 479.1666666666667A395.8333333333333 395.8333333333333 0 0 0 479.1666666666666 875A395.8333333333333 395.8333333333333 0 0 0 875 479.1666666666667A395.8333333333333 395.8333333333333 0 0 0 479.1666666666667 83.3333333333335A395.8333333333333 395.8333333333333 0 0 0 83.3333333333333 479.1666666666667M125 479.1666666666667A354.1666666666667 354.1666666666667 0 0 1 479.1666666666666 125.0000000000001A354.1666666666667 354.1666666666667 0 0 1 833.3333333333333 479.1666666666667A354.1666666666667 354.1666666666667 0 0 1 479.1666666666666 833.3333333333334A354.1666666666667 354.1666666666667 0 0 1 125 479.1666666666667z" />
    <glyph glyph-name="mdi-light:arrow-right"
      unicode="&#xE011;"
      horiz-adv-x="1000" d="M166.6666666666667 500H677.0833333333333L458.3333333333333 718.75L485.8333333333333 750L756.6666666666666 479.1666666666667L485.8333333333333 208.3333333333335L458.3333333333333 239.5833333333335L677.0833333333333 458.3333333333334H166.6666666666667V500.0000000000001z" />
    <glyph glyph-name="mdi-light:arrow-right-circle"
      unicode="&#xE012;"
      horiz-adv-x="1000" d="M250 500H593.75L458.3333333333333 635.4166666666667L486.2499999999999 666.6666666666667L673.75 479.1666666666667L486.2499999999999 291.6666666666668L458.3333333333333 322.9166666666668L593.75 458.3333333333334H250V500.0000000000001M875 479.1666666666667A395.8333333333333 395.8333333333333 0 0 0 479.1666666666667 83.3333333333335C260.8333333333333 83.3333333333334 83.3333333333333 260.4166666666668 83.3333333333333 479.1666666666667A395.8333333333333 395.8333333333333 0 0 0 479.1666666666666 875A395.8333333333333 395.8333333333333 0 0 0 875 479.1666666666667M833.3333333333334 479.1666666666667A354.1666666666667 354.1666666666667 0 0 1 479.1666666666666 833.3333333333334A354.1666666666667 354.1666666666667 0 0 1 125 479.1666666666667A354.1666666666667 354.1666666666667 0 0 1 479.1666666666666 125.0000000000001A354.1666666666667 354.1666666666667 0 0 1 833.3333333333333 479.1666666666667z" />
    <glyph glyph-name="mdi-light:arrow-up"
      unicode="&#xE013;"
      horiz-adv-x="1000" d="M458.3333333333333 166.6666666666668V677.0833333333334L239.5833333333333 458.3333333333334L208.3333333333333 485.8333333333334L479.1666666666666 756.6666666666666L750 485.8333333333334L718.75 458.3333333333334L500 677.0833333333334V166.6666666666668H458.3333333333333z" />
    <glyph glyph-name="mdi-light:arrow-up-circle"
      unicode="&#xE014;"
      horiz-adv-x="1000" d="M458.3333333333333 250V593.75L322.9166666666667 458.3333333333334L291.6666666666667 485.8333333333334L479.1666666666666 673.3333333333333L666.6666666666666 485.8333333333334L635.4166666666666 458.3333333333334L500 593.75V250H458.3333333333333M479.1666666666666 875A395.8333333333333 395.8333333333333 0 0 0 875 479.1666666666667A395.8333333333333 395.8333333333333 0 0 0 479.1666666666667 83.3333333333335A395.8333333333333 395.8333333333333 0 0 0 83.3333333333333 479.1666666666667A395.8333333333333 395.8333333333333 0 0 0 479.1666666666666 875M479.1666666666666 833.3333333333334A354.1666666666667 354.1666666666667 0 0 1 125 479.1666666666667A354.1666666666667 354.1666666666667 0 0 1 479.1666666666666 125.0000000000001A354.1666666666667 354.1666666666667 0 0 1 833.3333333333333 479.1666666666667A354.1666666666667 354.1666666666667 0 0 1 479.1666666666666 833.3333333333334z" />
    <glyph glyph-name="mdi-light:bank"
      unicode="&#xE015;"
      horiz-adv-x="1000" d="M458.3333333333333 895.8333333333334L833.3333333333333 708.3333333333334V625H83.3333333333333V708.3333333333334L458.3333333333333 895.8333333333334M625 583.3333333333334H791.6666666666666V250H625V583.3333333333333M83.3333333333333 83.3333333333334V208.3333333333334H833.3333333333334V83.3333333333334H83.3333333333333M375 583.3333333333334H541.6666666666666V250H375V583.3333333333333M125 583.3333333333333H291.6666666666667V250H125V583.3333333333333M125 166.6666666666668V125.0000000000001H791.6666666666666V166.6666666666668H125M166.6666666666667 541.6666666666667V291.6666666666668H250V541.6666666666667H166.6666666666667M416.6666666666667 541.6666666666667V291.6666666666668H499.9999999999999V541.6666666666667H416.6666666666667M666.6666666666666 541.6666666666667V291.6666666666668H750V541.6666666666667H666.6666666666666M125 666.6666666666667H791.6666666666666V683.3333333333334L458.3333333333333 850.8333333333334L125 683.3333333333334V666.6666666666667z" />
    <glyph glyph-name="mdi-light:baseball-diamond"
      unicode="&#xE016;"
      horiz-adv-x="1000" d="M479.1666666666666 875C200.8333333333334 875 41.6666666666667 583.3333333333334 41.6666666666667 583.3333333333334L369.1666666666667 240.4166666666668C377.9166666666667 250 388.3333333333334 260.4166666666668 400 267.9166666666668L258.3333333333333 416.6666666666668L479.1666666666666 637.0833333333334L700 416.6666666666668L558.3333333333334 267.9166666666669C570.0000000000001 260.4166666666669 580.4166666666667 250.0000000000001 589.1666666666667 240.4166666666669L916.6666666666666 583.3333333333334S757.5 875 479.1666666666666 875M479.1666666666666 696.25L229.1666666666667 446.6666666666668L94.1666666666666 588.7500000000001C138.3333333333333 656.25 275 833.3333333333334 479.1666666666666 833.3333333333334C682.4999999999999 833.3333333333334 819.5833333333334 655.8333333333334 864.1666666666666 588.75L729.1666666666666 446.6666666666667L479.1666666666666 696.25M520.8333333333333 416.6666666666668C520.8333333333333 393.75 502.0833333333332 375.0000000000001 479.1666666666666 375.0000000000001S437.4999999999999 393.7500000000001 437.4999999999999 416.6666666666668S456.2499999999999 458.3333333333334 479.1666666666666 458.3333333333334S520.8333333333333 439.5833333333334 520.8333333333333 416.6666666666668M541.6666666666666 125.0000000000001L479.1666666666666 83.3333333333335L416.6666666666667 125.0000000000001V208.3333333333335H541.6666666666666V125.0000000000001z" />
    <glyph glyph-name="mdi-light:bell"
      unicode="&#xE017;"
      horiz-adv-x="1000" d="M500 812.5A20.8333333333333 20.8333333333333 0 0 1 479.1666666666667 833.3333333333334A20.8333333333333 20.8333333333333 0 0 1 458.3333333333334 812.5V748.75C364.5833333333334 738.3333333333333 291.6666666666668 659.1666666666667 291.6666666666668 562.5V316.25L225.4166666666667 250H732.9166666666666L666.6666666666666 316.25V562.5C666.6666666666666 659.1666666666667 593.75 738.3333333333333 500 748.75V812.5M479.1666666666666 875A62.5 62.5 0 0 0 541.6666666666666 812.5V782.9166666666667C637.9166666666667 755.8333333333334 708.3333333333333 666.6666666666667 708.3333333333333 562.5V333.3333333333334L833.3333333333333 208.3333333333334H125L250 333.3333333333334V562.5C250 666.6666666666667 320.4166666666667 755.8333333333334 416.6666666666667 782.9166666666667V812.5A62.5 62.5 0 0 0 479.1666666666666 875M479.1666666666666 83.3333333333334A104.1666666666666 104.1666666666666 0 0 0 377.0833333333333 166.6666666666668H420.4166666666667A62.2916666666667 62.2916666666667 0 0 1 537.9166666666666 166.6666666666668H581.2499999999999A104.1666666666666 104.1666666666666 0 0 0 479.1666666666666 83.3333333333334z" />
    <glyph glyph-name="mdi-light:bell-off"
      unicode="&#xE018;"
      horiz-adv-x="1000" d="M116.25 814.1666666666667L145.8333333333333 843.75L843.75 145.8333333333334L814.1666666666667 116.2500000000001L722.5 208.3333333333334H125L250 333.3333333333334V562.5C250 597.0833333333333 257.5 630 270.8333333333333 659.1666666666667L116.25 814.1666666666667M500 812.5A20.8333333333333 20.8333333333333 0 0 1 479.1666666666667 833.3333333333334A20.8333333333333 20.8333333333333 0 0 1 458.3333333333334 812.5V748.75C416.6666666666667 744.1666666666667 378.7500000000001 725.8333333333333 350.0000000000001 698.3333333333334L320.4166666666667 727.9166666666667C347.0833333333334 753.3333333333334 380 772.5 416.6666666666667 782.9166666666667V812.5A62.5 62.5 0 0 0 479.1666666666666 875A62.5 62.5 0 0 0 541.6666666666666 812.5V782.9166666666667C637.9166666666667 755.8333333333334 708.3333333333333 666.6666666666667 708.3333333333333 562.5V340.0000000000001L666.6666666666666 381.6666666666668V562.5C666.6666666666666 659.1666666666667 593.75 738.3333333333333 500 748.75V812.5M291.6666666666667 562.5V316.25L225.4166666666667 250H680.8333333333333L303.3333333333334 627.5C295.8333333333333 607.0833333333334 291.6666666666667 585.4166666666667 291.6666666666667 562.5M479.1666666666666 83.3333333333334A104.1666666666666 104.1666666666666 0 0 0 377.0833333333333 166.6666666666668H420.4166666666667A62.2916666666667 62.2916666666667 0 0 1 537.9166666666666 166.6666666666668H581.2499999999999A104.1666666666666 104.1666666666666 0 0 0 479.1666666666666 83.3333333333334z" />
    <glyph glyph-name="mdi-light:bell-plus"
      unicode="&#xE019;"
      horiz-adv-x="1000" d="M479.1666666666666 875A62.5 62.5 0 0 1 416.6666666666667 812.5V782.9166666666667C320.4166666666667 755.8333333333334 250 666.6666666666667 250 562.5V333.3333333333334L125 208.3333333333334H833.3333333333333L708.3333333333333 333.3333333333334V562.5C708.3333333333333 666.6666666666666 637.9166666666666 755.8333333333333 541.6666666666666 782.9166666666666V812.5A62.5 62.5 0 0 1 479.1666666666666 875M479.1666666666666 833.3333333333334A20.8333333333333 20.8333333333333 0 0 0 499.9999999999999 812.5V748.75C593.75 738.3333333333333 666.6666666666666 659.1666666666667 666.6666666666666 562.5V316.25L732.9166666666666 250H225.4166666666667L291.6666666666667 316.25V562.5C291.6666666666667 659.1666666666667 364.5833333333333 738.3333333333333 458.3333333333333 748.75V812.5A20.8333333333333 20.8333333333333 0 0 0 479.1666666666666 833.3333333333334M458.3333333333333 583.3333333333334V500.0000000000001H375V458.3333333333334H458.3333333333333V375H500V458.3333333333334H583.3333333333334V500.0000000000001H500V583.3333333333334H458.3333333333333M377.0833333333333 166.6666666666668A104.1666666666666 104.1666666666666 0 0 1 581.25 166.6666666666668H537.9166666666667A62.2916666666667 62.2916666666667 0 0 0 420.4166666666668 166.6666666666668H377.0833333333333z" />
    <glyph glyph-name="mdi-light:bluetooth"
      unicode="&#xE01A;"
      horiz-adv-x="1000" d="M458.3333333333333 875H500L702.0833333333333 672.9166666666667L508.7500000000001 479.1666666666667L702.0833333333334 285.4166666666668L500 83.3333333333334H458.3333333333333V428.75L272.9166666666667 243.3333333333333L243.3333333333333 272.9166666666667L449.5833333333333 479.1666666666665L243.3333333333334 685.4166666666665L272.9166666666667 714.9999999999999L458.3333333333333 529.5833333333335V875M500 816.25V529.5833333333335L643.3333333333333 672.9166666666667L500 816.25M500 142.0833333333335L643.3333333333333 285.4166666666668L500 428.75V142.0833333333334z" />
    <glyph glyph-name="mdi-light:book"
      unicode="&#xE01B;"
      horiz-adv-x="1000" d="M291.6666666666667 875H666.6666666666666A125 125 0 0 0 791.6666666666666 750V208.3333333333334A125 125 0 0 0 666.6666666666666 83.3333333333334H291.6666666666667A125 125 0 0 0 166.6666666666666 208.3333333333334V750A125 125 0 0 0 291.6666666666667 875M291.6666666666667 833.3333333333334A83.3333333333333 83.3333333333333 0 0 1 208.3333333333333 750V208.3333333333334A83.3333333333333 83.3333333333333 0 0 1 291.6666666666667 125H666.6666666666666A83.3333333333333 83.3333333333333 0 0 1 750 208.3333333333334V750A83.3333333333333 83.3333333333333 0 0 1 666.6666666666666 833.3333333333333H541.6666666666666V554.1666666666666L416.6666666666667 641.6666666666666L291.6666666666667 554.1666666666665V833.3333333333334M499.9999999999999 833.3333333333334H333.3333333333333V634.1666666666666L416.6666666666667 692.5L499.9999999999999 634.1666666666666V833.3333333333334z" />
    <glyph glyph-name="mdi-light:book-multiple"
      unicode="&#xE01C;"
      horiz-adv-x="1000" d="M333.3333333333333 875H708.3333333333333A125 125 0 0 0 833.3333333333333 750V208.3333333333334A125 125 0 0 0 708.3333333333333 83.3333333333334H333.3333333333333A125 125 0 0 0 208.3333333333333 208.3333333333334V750A125 125 0 0 0 333.3333333333333 875M333.3333333333333 833.3333333333334A83.3333333333333 83.3333333333333 0 0 1 250 750V208.3333333333334A83.3333333333333 83.3333333333333 0 0 1 333.3333333333333 125H708.3333333333333A83.3333333333333 83.3333333333333 0 0 1 791.6666666666666 208.3333333333334V750A83.3333333333333 83.3333333333333 0 0 1 708.3333333333333 833.3333333333333H583.3333333333333V554.1666666666666L458.3333333333333 641.6666666666666L333.3333333333333 554.1666666666665V833.3333333333334M541.6666666666665 833.3333333333334H375V634.1666666666666L458.3333333333333 692.5L541.6666666666666 634.1666666666666V833.3333333333334M333.3333333333333 0A208.3333333333333 208.3333333333333 0 0 0 125 208.3333333333333V708.3333333333334H166.6666666666667V208.3333333333334A166.6666666666667 166.6666666666667 0 0 1 333.3333333333333 41.6666666666667H666.6666666666666V1e-13H333.3333333333333z" />
    <glyph glyph-name="mdi-light:book-plus"
      unicode="&#xE01D;"
      horiz-adv-x="1000" d="M291.6666666666667 875H666.6666666666666A125 125 0 0 0 791.6666666666666 750V208.3333333333334A125 125 0 0 0 666.6666666666666 83.3333333333334H291.6666666666667A125 125 0 0 0 166.6666666666666 208.3333333333334V750A125 125 0 0 0 291.6666666666667 875M291.6666666666667 833.3333333333334A83.3333333333333 83.3333333333333 0 0 1 208.3333333333333 750V208.3333333333334A83.3333333333333 83.3333333333333 0 0 1 291.6666666666667 125H666.6666666666666A83.3333333333333 83.3333333333333 0 0 1 750 208.3333333333334V750A83.3333333333333 83.3333333333333 0 0 1 666.6666666666666 833.3333333333333H541.6666666666666V554.1666666666666L416.6666666666667 641.6666666666666L291.6666666666667 554.1666666666665V833.3333333333334M499.9999999999999 833.3333333333334H333.3333333333333V634.1666666666666L416.6666666666667 692.5L499.9999999999999 634.1666666666666V833.3333333333334M375 208.3333333333334V291.6666666666668H291.6666666666667V333.3333333333334H375V416.6666666666668H416.6666666666667V333.3333333333334H499.9999999999999V291.6666666666668H416.6666666666667V208.3333333333334H375z" />
    <glyph glyph-name="mdi-light:bookmark"
      unicode="&#xE01E;"
      horiz-adv-x="1000" d="M333.3333333333333 875H666.6666666666666A125 125 0 0 0 791.6666666666666 750V125L500 250L208.3333333333334 125V750A125 125 0 0 0 333.3333333333334 875M333.3333333333334 833.3333333333334A83.3333333333333 83.3333333333333 0 0 1 250.0000000000001 750V187.5L500 294.1666666666668L750 187.5V750A83.3333333333333 83.3333333333333 0 0 1 666.6666666666666 833.3333333333333H333.3333333333333z" />
    <glyph glyph-name="mdi-light:border-all"
      unicode="&#xE01F;"
      horiz-adv-x="1000" d="M125 833.3333333333334H833.3333333333333V125.0000000000001H125V833.3333333333334M166.6666666666667 791.6666666666667V500.0000000000001H458.3333333333333V791.6666666666667H166.6666666666667M791.6666666666666 500.0000000000001V791.6666666666667H500V500.0000000000001H791.6666666666666M166.6666666666667 166.6666666666668H458.3333333333333V458.3333333333334H166.6666666666667V166.6666666666668M791.6666666666666 166.6666666666668V458.3333333333334H500V166.6666666666668H791.6666666666666z" />
    <glyph glyph-name="mdi-light:border-bottom"
      unicode="&#xE020;"
      horiz-adv-x="1000" d="M125 166.6666666666668H458.3333333333333V208.3333333333334H500V166.6666666666668H833.3333333333333V125.0000000000001H125V166.6666666666668M833.3333333333333 250.0000000000001H791.6666666666666V333.3333333333335H833.3333333333333V250.0000000000001M166.6666666666667 416.6666666666668H125V541.6666666666667H166.6666666666667V500.0000000000001H208.3333333333333V458.3333333333334H166.6666666666667V416.6666666666668M166.6666666666667 250.0000000000001H125V333.3333333333335H166.6666666666667V250.0000000000001M500 458.3333333333335H458.3333333333333V500.0000000000002H500V458.3333333333335M125 791.6666666666667V833.3333333333334H166.6666666666667V791.6666666666667H125M125 708.3333333333334H166.6666666666667V625H125V708.3333333333334M625 791.6666666666667V833.3333333333334H708.3333333333334V791.6666666666667H625M250 791.6666666666667V833.3333333333334H333.3333333333333V791.6666666666667H250M416.6666666666667 791.6666666666667V833.3333333333334H541.6666666666666V791.6666666666667H499.9999999999999V750H458.3333333333333V791.6666666666667H416.6666666666666M791.6666666666665 416.6666666666668V458.3333333333334H749.9999999999999V500.0000000000001H791.6666666666665V541.6666666666667H833.3333333333331V416.6666666666668H791.6666666666665M833.3333333333331 625H791.6666666666665V708.3333333333334H833.3333333333331V625M791.6666666666665 791.6666666666667V833.3333333333334H833.3333333333331V791.6666666666667H791.6666666666665M583.3333333333333 458.3333333333334V500.0000000000001H666.6666666666666V458.3333333333334H583.3333333333333M499.9999999999999 291.6666666666668H458.3333333333333V375.0000000000001H499.9999999999999V291.6666666666668M499.9999999999999 583.3333333333334H458.3333333333333V666.6666666666667H499.9999999999999V583.3333333333334M291.6666666666667 458.3333333333334V500.0000000000001H375V458.3333333333334H291.6666666666667z" />
    <glyph glyph-name="mdi-light:border-horizontal"
      unicode="&#xE021;"
      horiz-adv-x="1000" d="M833.3333333333333 250H791.6666666666666V333.3333333333334H833.3333333333333V250M166.6666666666667 416.6666666666668H125V541.6666666666667H166.6666666666667V500.0000000000001H791.6666666666666V541.6666666666667H833.3333333333333V416.6666666666668H791.6666666666666V458.3333333333334H166.6666666666667V416.6666666666668M166.6666666666667 250.0000000000001H125V333.3333333333335H166.6666666666667V250.0000000000001M125 791.6666666666667V833.3333333333334H166.6666666666667V791.6666666666667H125M125 708.3333333333334H166.6666666666667V625H125V708.3333333333334M625 791.6666666666667V833.3333333333334H708.3333333333334V791.6666666666667H625M250 791.6666666666667V833.3333333333334H333.3333333333333V791.6666666666667H250M416.6666666666667 791.6666666666667V833.3333333333334H541.6666666666666V791.6666666666667H499.9999999999999V750H458.3333333333333V791.6666666666667H416.6666666666666M833.3333333333333 625H791.6666666666666V708.3333333333334H833.3333333333333V625M791.6666666666666 791.6666666666667V833.3333333333334H833.3333333333333V791.6666666666667H791.6666666666666M500 291.6666666666668H458.3333333333333V375.0000000000001H500V291.6666666666668M500 583.3333333333334H458.3333333333333V666.6666666666667H500V583.3333333333334M125 166.6666666666668H166.6666666666667V125.0000000000001H125V166.6666666666668M625 166.6666666666668H708.3333333333334V125.0000000000001H625V166.6666666666668M250 166.6666666666668H333.3333333333333V125.0000000000001H250V166.6666666666668M416.6666666666667 166.6666666666668H458.3333333333333V208.3333333333334H500V166.6666666666668H541.6666666666666V125.0000000000001H416.6666666666667V166.6666666666668M791.6666666666666 166.6666666666668H833.3333333333333V125.0000000000001H791.6666666666666V166.6666666666668z" />
    <glyph glyph-name="mdi-light:border-inside"
      unicode="&#xE022;"
      horiz-adv-x="1000" d="M708.3333333333333 833.3333333333334V791.6666666666667H624.9999999999999V833.3333333333334H708.3333333333333M541.6666666666666 166.6666666666668V125.0000000000001H416.6666666666667V166.6666666666668H458.3333333333333V458.3333333333334H166.6666666666667V416.6666666666668H125V541.6666666666667H166.6666666666667V500.0000000000001H458.3333333333333V791.6666666666667H416.6666666666666V833.3333333333334H541.6666666666665V791.6666666666667H499.9999999999998V500.0000000000001H791.6666666666665V541.6666666666667H833.3333333333331V416.6666666666668H791.6666666666665V458.3333333333334H499.9999999999999V166.6666666666668H541.6666666666665M708.3333333333331 166.6666666666668V125.0000000000001H624.9999999999998V166.6666666666668H708.3333333333331M166.6666666666667 125H125V166.6666666666666H166.6666666666667V125M250 125V166.6666666666666H333.3333333333333V125H250M166.6666666666667 625H125V708.3333333333334H166.6666666666667V625M166.6666666666667 250H125V333.3333333333334H166.6666666666667V250M333.3333333333333 833.3333333333334V791.6666666666667H250V833.3333333333334H333.3333333333333M166.6666666666667 791.6666666666667H125V833.3333333333334H166.6666666666667V791.6666666666667M791.6666666666666 125V166.6666666666666H833.3333333333333V125H791.6666666666666M791.6666666666666 625V708.3333333333334H833.3333333333333V625H791.6666666666666M791.6666666666666 250V333.3333333333334H833.3333333333333V250H791.6666666666666M791.6666666666666 791.6666666666666V833.3333333333334H833.3333333333333V791.6666666666667H791.6666666666666z" />
    <glyph glyph-name="mdi-light:border-left"
      unicode="&#xE023;"
      horiz-adv-x="1000" d="M166.6666666666667 833.3333333333334V500H208.3333333333333V458.3333333333334H166.6666666666667V125H125V833.3333333333334H166.6666666666667M250 125.0000000000001V166.6666666666668H333.3333333333333V125.0000000000001H250M416.6666666666667 791.6666666666667V833.3333333333334H541.6666666666666V791.6666666666667H499.9999999999999V750H458.3333333333333V791.6666666666667H416.6666666666666M250 791.6666666666667V833.3333333333334H333.3333333333333V791.6666666666667H250M458.3333333333333 458.3333333333334V500.0000000000001H500V458.3333333333334H458.3333333333333M791.6666666666666 833.3333333333334H833.3333333333333V791.6666666666667H791.6666666666666V833.3333333333334M708.3333333333333 833.3333333333334V791.6666666666667H624.9999999999999V833.3333333333334H708.3333333333333M791.6666666666666 333.3333333333334H833.3333333333333V250H791.6666666666666V333.3333333333334M791.6666666666666 708.3333333333334H833.3333333333333V625H791.6666666666666V708.3333333333334M791.6666666666666 541.6666666666667H833.3333333333333V416.6666666666668H791.6666666666666V458.3333333333334H750V500.0000000000001H791.6666666666666V541.6666666666667M416.6666666666667 166.6666666666668H458.3333333333333V208.3333333333334H500V166.6666666666668H541.6666666666666V125.0000000000001H416.6666666666667V166.6666666666668M625 125.0000000000001V166.6666666666668H708.3333333333334V125.0000000000001H625M791.6666666666666 166.6666666666668H833.3333333333333V125.0000000000001H791.6666666666666V166.6666666666668M458.3333333333333 375H500V291.6666666666667H458.3333333333333V375M291.6666666666667 458.3333333333334V500.0000000000001H375V458.3333333333334H291.6666666666667M583.3333333333333 458.3333333333334V500.0000000000001H666.6666666666666V458.3333333333334H583.3333333333333M458.3333333333333 666.6666666666667H499.9999999999999V583.3333333333334H458.3333333333333V666.6666666666667z" />
    <glyph glyph-name="mdi-light:border-none"
      unicode="&#xE024;"
      horiz-adv-x="1000" d="M833.3333333333333 250H791.6666666666666V333.3333333333334H833.3333333333333V250M166.6666666666667 416.6666666666668H125V541.6666666666667H166.6666666666667V500.0000000000001H208.3333333333333V458.3333333333334H166.6666666666667V416.6666666666668M791.6666666666666 500.0000000000001V541.6666666666667H833.3333333333333V416.6666666666668H791.6666666666666V458.3333333333334H750V500.0000000000001H791.6666666666666M583.3333333333333 458.3333333333334V500.0000000000001H666.6666666666666V458.3333333333334H583.3333333333333M458.3333333333333 458.3333333333334V500.0000000000001H499.9999999999999V458.3333333333334H458.3333333333333M291.6666666666667 458.3333333333334V500.0000000000001H375V458.3333333333334H291.6666666666667M166.6666666666666 250H125V333.3333333333334H166.6666666666667V250M125 791.6666666666667V833.3333333333334H166.6666666666667V791.6666666666667H125M125 708.3333333333334H166.6666666666667V625H125V708.3333333333334M625 791.6666666666667V833.3333333333334H708.3333333333334V791.6666666666667H625M250 791.6666666666667V833.3333333333334H333.3333333333333V791.6666666666667H250M416.6666666666667 791.6666666666667V833.3333333333334H541.6666666666666V791.6666666666667H499.9999999999999V750H458.3333333333333V791.6666666666667H416.6666666666666M833.3333333333333 625H791.6666666666666V708.3333333333334H833.3333333333333V625M791.6666666666666 791.6666666666667V833.3333333333334H833.3333333333333V791.6666666666667H791.6666666666666M500 291.6666666666668H458.3333333333333V375.0000000000001H500V291.6666666666668M500 583.3333333333334H458.3333333333333V666.6666666666667H500V583.3333333333334M125 166.6666666666668H166.6666666666667V125.0000000000001H125V166.6666666666668M625 166.6666666666668H708.3333333333334V125.0000000000001H625V166.6666666666668M250 166.6666666666668H333.3333333333333V125.0000000000001H250V166.6666666666668M416.6666666666667 166.6666666666668H458.3333333333333V208.3333333333334H500V166.6666666666668H541.6666666666666V125.0000000000001H416.6666666666667V166.6666666666668M791.6666666666666 166.6666666666668H833.3333333333333V125.0000000000001H791.6666666666666V166.6666666666668z" />
    <glyph glyph-name="mdi-light:border-outside"
      unicode="&#xE025;"
      horiz-adv-x="1000" d="M125 833.3333333333334H833.3333333333333V125.0000000000001H125V833.3333333333334M166.6666666666667 791.6666666666667V500.0000000000001H208.3333333333333V458.3333333333334H166.6666666666667V166.6666666666668H458.3333333333333V208.3333333333334H499.9999999999999V166.6666666666668H791.6666666666665V458.3333333333334H749.9999999999999V500.0000000000001H791.6666666666665V791.6666666666667H499.9999999999999V750H458.3333333333332V791.6666666666667H166.6666666666667M291.6666666666667 500.0000000000001H375V458.3333333333334H291.6666666666667V500.0000000000001M458.3333333333333 500.0000000000001H499.9999999999999V458.3333333333334H458.3333333333333V500.0000000000001M458.3333333333333 375H499.9999999999999V291.6666666666667H458.3333333333333V375M583.3333333333333 500H666.6666666666666V458.3333333333334H583.3333333333333V500.0000000000001M458.3333333333333 583.3333333333334V666.6666666666667H499.9999999999999V583.3333333333334H458.3333333333333z" />
    <glyph glyph-name="mdi-light:border-right"
      unicode="&#xE026;"
      horiz-adv-x="1000" d="M791.6666666666666 125V458.3333333333333H750V499.9999999999999H791.6666666666666V833.3333333333334H833.3333333333333V125.0000000000001H791.6666666666666M708.3333333333333 833.3333333333334V791.6666666666667H624.9999999999999V833.3333333333334H708.3333333333333M541.6666666666666 166.6666666666668V125.0000000000001H416.6666666666667V166.6666666666668H458.3333333333333V208.3333333333334H500V166.6666666666668H541.6666666666666M708.3333333333333 166.6666666666668V125.0000000000001H624.9999999999999V166.6666666666668H708.3333333333333M499.9999999999999 500.0000000000001V458.3333333333334H458.3333333333333V500.0000000000001H499.9999999999999M166.6666666666666 125H125V166.6666666666666H166.6666666666667V125M250 125V166.6666666666666H333.3333333333333V125H250M166.6666666666667 625H125V708.3333333333334H166.6666666666667V625M166.6666666666667 250H125V333.3333333333334H166.6666666666667V250M166.6666666666667 416.6666666666667H125V541.6666666666666H166.6666666666667V500H208.3333333333333V458.3333333333334H166.6666666666667V416.6666666666668M541.6666666666666 791.6666666666667H499.9999999999999V750.0000000000001H458.3333333333333V791.6666666666667H416.6666666666666V833.3333333333334H541.6666666666665V791.6666666666667M333.3333333333333 833.3333333333334V791.6666666666667H250V833.3333333333334H333.3333333333333M166.6666666666667 791.6666666666667H125V833.3333333333334H166.6666666666667V791.6666666666667M500 583.3333333333334H458.3333333333333V666.6666666666667H500V583.3333333333334M666.6666666666666 500.0000000000001V458.3333333333334H583.3333333333333V500.0000000000001H666.6666666666666M375 500.0000000000001V458.3333333333334H291.6666666666667V500.0000000000001H375M499.9999999999999 291.6666666666668H458.3333333333333V375.0000000000001H499.9999999999999V291.6666666666668z" />
    <glyph glyph-name="mdi-light:border-top"
      unicode="&#xE027;"
      horiz-adv-x="1000" d="M833.3333333333333 791.6666666666667H499.9999999999999V750H458.3333333333333V791.6666666666667H125V833.3333333333334H833.3333333333333V791.6666666666667M125 708.3333333333334H166.6666666666667V625H125V708.3333333333334M791.6666666666666 541.6666666666667H833.3333333333333V416.6666666666668H791.6666666666666V458.3333333333334H750V500.0000000000001H791.6666666666666V541.6666666666667M791.6666666666666 708.3333333333334H833.3333333333333V625H791.6666666666666V708.3333333333334M458.3333333333333 500.0000000000001H500V458.3333333333334H458.3333333333333V500.0000000000001M833.3333333333333 166.6666666666668V125.0000000000001H791.6666666666666V166.6666666666668H833.3333333333333M833.3333333333333 250.0000000000001H791.6666666666666V333.3333333333335H833.3333333333333V250.0000000000001M333.3333333333333 166.6666666666668V125.0000000000001H250V166.6666666666668H333.3333333333333M708.3333333333333 166.6666666666668V125.0000000000001H624.9999999999999V166.6666666666668H708.3333333333333M541.6666666666666 166.6666666666668V125.0000000000001H416.6666666666667V166.6666666666668H458.3333333333333V208.3333333333334H500V166.6666666666668H541.6666666666666M166.6666666666666 541.6666666666667V500.0000000000001H208.3333333333333V458.3333333333334H166.6666666666667V416.6666666666668H125V541.6666666666667H166.6666666666667M125 333.3333333333335H166.6666666666667V250.0000000000001H125V333.3333333333335M166.6666666666667 166.6666666666669V125.0000000000002H125V166.6666666666669H166.6666666666667M375 500.0000000000002V458.3333333333335H291.6666666666667V500.0000000000002H375M458.3333333333333 666.6666666666669H499.9999999999999V583.3333333333335H458.3333333333333V666.6666666666667M458.3333333333333 375H499.9999999999999V291.6666666666667H458.3333333333333V375M666.6666666666665 500V458.3333333333334H583.3333333333331V500.0000000000001H666.6666666666665z" />
    <glyph glyph-name="mdi-light:border-vertical"
      unicode="&#xE028;"
      horiz-adv-x="1000" d="M708.3333333333333 833.3333333333334V791.6666666666667H624.9999999999999V833.3333333333334H708.3333333333333M541.6666666666666 166.6666666666668V125.0000000000001H416.6666666666667V166.6666666666668H458.3333333333333V791.6666666666667H416.6666666666667V833.3333333333334H541.6666666666666V791.6666666666667H499.9999999999999V166.6666666666668H541.6666666666666M708.3333333333333 166.6666666666668V125.0000000000001H624.9999999999999V166.6666666666668H708.3333333333333M166.6666666666667 125H125V166.6666666666666H166.6666666666667V125M250 125V166.6666666666666H333.3333333333333V125H250M166.6666666666667 625H125V708.3333333333334H166.6666666666667V625M166.6666666666667 250H125V333.3333333333334H166.6666666666667V250M166.6666666666667 416.6666666666667H125V541.6666666666666H166.6666666666667V500H208.3333333333333V458.3333333333334H166.6666666666667V416.6666666666668M333.3333333333333 833.3333333333334V791.6666666666667H250V833.3333333333334H333.3333333333333M166.6666666666667 791.6666666666667H125V833.3333333333334H166.6666666666667V791.6666666666667M666.6666666666666 500.0000000000001V458.3333333333334H583.3333333333333V500.0000000000001H666.6666666666666M375 500.0000000000001V458.3333333333334H291.6666666666667V500.0000000000001H375M791.6666666666665 125V166.6666666666666H833.3333333333331V125H791.6666666666665M791.6666666666665 625V708.3333333333334H833.3333333333331V625H791.6666666666665M791.6666666666665 250V333.3333333333334H833.3333333333331V250H791.6666666666665M791.6666666666665 416.6666666666667V458.3333333333333H749.9999999999999V499.9999999999999H791.6666666666665V541.6666666666665H833.3333333333331V416.6666666666665H791.6666666666665M791.6666666666665 791.6666666666665V833.3333333333334H833.3333333333331V791.6666666666667H791.6666666666665z" />
    <glyph glyph-name="mdi-light:briefcase"
      unicode="&#xE029;"
      horiz-adv-x="1000" d="M208.3333333333333 708.3333333333334H333.3333333333333V791.6666666666667L416.6666666666667 875H541.6666666666666L625 791.6666666666667V708.3333333333334H750A125 125 0 0 0 875 583.3333333333334V250A125 125 0 0 0 750 125H208.3333333333333A125 125 0 0 0 83.3333333333333 250V583.3333333333333A125 125 0 0 0 208.3333333333333 708.3333333333333M433.75 833.3333333333333L375 774.5833333333334V708.3333333333334H583.3333333333333V774.5833333333334L524.5833333333333 833.3333333333334H433.75M208.3333333333333 666.6666666666667A83.3333333333333 83.3333333333333 0 0 1 125 583.3333333333334V250A83.3333333333333 83.3333333333333 0 0 1 208.3333333333333 166.6666666666666H750A83.3333333333333 83.3333333333333 0 0 1 833.3333333333334 250V583.3333333333333A83.3333333333333 83.3333333333333 0 0 1 750 666.6666666666666H208.3333333333333z" />
    <glyph glyph-name="mdi-light:bullhorn"
      unicode="&#xE02A;"
      horiz-adv-x="1000" d="M583.3333333333333 833.3333333333334L458.3333333333333 708.3333333333334H125A125 125 0 0 1 0 583.3333333333334V458.3333333333334A125 125 0 0 1 125 333.3333333333334V208.3333333333334A83.3333333333333 83.3333333333333 0 0 1 208.3333333333333 125H250A83.3333333333333 83.3333333333333 0 0 1 333.3333333333333 208.3333333333334V333.3333333333334H458.3333333333333L583.3333333333333 208.3333333333334H666.6666666666666V833.3333333333334H583.3333333333333M600.4166666666666 791.6666666666667H625V250H600.4166666666667L475.4166666666667 375H125A83.3333333333333 83.3333333333333 0 0 0 41.6666666666667 458.3333333333334V583.3333333333334A83.3333333333333 83.3333333333333 0 0 0 125 666.6666666666667H475.4166666666666L600.4166666666666 791.6666666666667M750 708.3333333333334V666.6666666666667C820.8333333333333 656.25 875 595.4166666666667 875 522.0833333333334C875 448.3333333333334 820.8333333333333 387.9166666666668 750 377.5V335.4166666666667A187.6666666666667 187.6666666666667 0 0 1 750 708.3333333333334M750 580.8333333333334V462.9166666666666C774.1666666666666 471.6666666666666 791.6666666666666 494.5833333333333 791.6666666666666 522.0833333333333C791.6666666666666 549.1666666666666 774.1666666666666 572.5 750 580.8333333333333M166.6666666666667 333.3333333333334H291.6666666666667V208.3333333333334A41.6666666666667 41.6666666666667 0 0 0 250 166.6666666666668H208.3333333333333A41.6666666666667 41.6666666666667 0 0 0 166.6666666666667 208.3333333333334V333.3333333333334z" />
    <glyph glyph-name="mdi-light:calendar"
      unicode="&#xE02B;"
      horiz-adv-x="1000" d="M291.6666666666667 916.6666666666666H333.3333333333333A41.6666666666667 41.6666666666667 0 0 0 375 875V833.3333333333334H583.3333333333333V875A41.6666666666667 41.6666666666667 0 0 0 624.9999999999999 916.6666666666666H666.6666666666665A41.6666666666667 41.6666666666667 0 0 0 708.3333333333331 875V833.3333333333334A125 125 0 0 0 833.3333333333331 708.3333333333334V250A125 125 0 0 0 708.3333333333331 125H250A125 125 0 0 0 125 250V708.3333333333334A125 125 0 0 0 250 833.3333333333334V875A41.6666666666667 41.6666666666667 0 0 0 291.6666666666667 916.6666666666666M625 833.3333333333333H666.6666666666666V875H625V833.3333333333334M333.3333333333333 833.3333333333334V875H291.6666666666667V833.3333333333334H333.3333333333333M250 791.6666666666667A83.3333333333333 83.3333333333333 0 0 1 166.6666666666667 708.3333333333334V666.6666666666667H791.6666666666667V708.3333333333334A83.3333333333333 83.3333333333333 0 0 1 708.3333333333334 791.6666666666667H250M166.6666666666667 250A83.3333333333333 83.3333333333333 0 0 1 250 166.6666666666666H708.3333333333333A83.3333333333333 83.3333333333333 0 0 1 791.6666666666666 250V625H166.6666666666667V250M500 458.3333333333333H708.3333333333333V250H499.9999999999999V458.3333333333333M541.6666666666666 416.6666666666667V291.6666666666667H666.6666666666666V416.6666666666667H541.6666666666666z" />
    <glyph glyph-name="mdi-light:camcorder"
      unicode="&#xE02C;"
      horiz-adv-x="1000" d="M208.3333333333333 708.3333333333334H583.3333333333333A83.3333333333333 83.3333333333333 0 0 0 666.6666666666666 625V520.8333333333334L833.3333333333333 687.5V270.8333333333334L666.6666666666666 437.5V333.3333333333334A83.3333333333333 83.3333333333333 0 0 0 583.3333333333333 250H208.3333333333333A83.3333333333333 83.3333333333333 0 0 0 125 333.3333333333334V625A83.3333333333333 83.3333333333333 0 0 0 208.3333333333333 708.3333333333333M208.3333333333333 666.6666666666666A41.6666666666667 41.6666666666667 0 0 1 166.6666666666667 625V333.3333333333333A41.6666666666667 41.6666666666667 0 0 1 208.3333333333333 291.6666666666667H583.3333333333333A41.6666666666667 41.6666666666667 0 0 1 624.9999999999999 333.3333333333333V625A41.6666666666667 41.6666666666667 0 0 1 583.3333333333333 666.6666666666667H208.3333333333333M791.6666666666665 587.0833333333334L683.7499999999999 479.1666666666667L791.6666666666666 371.2500000000001V587.0833333333334z" />
    <glyph glyph-name="mdi-light:camera"
      unicode="&#xE02D;"
      horiz-adv-x="1000" d="M479.1666666666666 666.6666666666667C583.3333333333333 666.6666666666667 666.6666666666666 583.3333333333334 666.6666666666666 479.1666666666667S583.3333333333333 291.6666666666668 479.1666666666666 291.6666666666668S291.6666666666667 375 291.6666666666667 479.1666666666667S375 666.6666666666667 479.1666666666666 666.6666666666667M479.1666666666666 625A145.8333333333334 145.8333333333334 0 0 1 333.3333333333333 479.1666666666667A145.8333333333334 145.8333333333334 0 0 1 479.1666666666666 333.3333333333335A145.8333333333334 145.8333333333334 0 0 1 625 479.1666666666667A145.8333333333334 145.8333333333334 0 0 1 479.1666666666666 625M208.3333333333333 791.6666666666667H291.6666666666667L375 875H583.3333333333333L666.6666666666666 791.6666666666667H750A125 125 0 0 0 875 666.6666666666667V291.6666666666668A125 125 0 0 0 750 166.6666666666668H208.3333333333333A125 125 0 0 0 83.3333333333333 291.6666666666668V666.6666666666667A125 125 0 0 0 208.3333333333333 791.6666666666667M392.0833333333333 833.3333333333334L308.75 750H208.3333333333333A83.3333333333333 83.3333333333333 0 0 1 125 666.6666666666667V291.6666666666668A83.3333333333333 83.3333333333333 0 0 1 208.3333333333333 208.3333333333334H750A83.3333333333333 83.3333333333333 0 0 1 833.3333333333334 291.6666666666668V666.6666666666667A83.3333333333333 83.3333333333333 0 0 1 750 750H649.5833333333333L566.2499999999999 833.3333333333333H392.0833333333333z" />
    <glyph glyph-name="mdi-light:cancel"
      unicode="&#xE02E;"
      horiz-adv-x="1000" d="M479.1666666666666 83.3333333333334C260.8333333333333 83.3333333333334 83.3333333333333 260.4166666666668 83.3333333333333 479.1666666666667A395.8333333333333 395.8333333333333 0 0 0 479.1666666666666 875A395.8333333333333 395.8333333333333 0 0 0 875 479.1666666666667A395.8333333333333 395.8333333333333 0 0 0 479.1666666666667 83.3333333333335M479.1666666666667 125.0000000000001A354.1666666666667 354.1666666666667 0 0 1 833.3333333333333 479.1666666666667C833.3333333333333 569.5833333333334 799.5833333333333 652.0833333333335 744.1666666666666 714.5833333333335L243.7500000000001 214.5833333333334A352.8333333333335 352.8333333333335 0 0 1 479.1666666666666 125M479.1666666666666 833.3333333333333A354.1666666666667 354.1666666666667 0 0 1 125 479.1666666666667C125 388.75 158.75 306.6666666666668 214.5833333333333 244.1666666666668L714.5833333333334 744.1666666666667A353.7500000000001 353.7500000000001 0 0 1 479.1666666666666 833.3333333333334z" />
    <glyph glyph-name="mdi-light:cart"
      unicode="&#xE02F;"
      horiz-adv-x="1000" d="M666.6666666666666 250A83.3333333333333 83.3333333333333 0 0 0 750 166.6666666666666A83.3333333333333 83.3333333333333 0 0 0 666.6666666666666 83.3333333333333A83.3333333333333 83.3333333333333 0 0 0 583.3333333333333 166.6666666666666A83.3333333333333 83.3333333333333 0 0 0 666.6666666666666 250M666.6666666666666 208.3333333333334A41.6666666666667 41.6666666666667 0 0 1 625 166.6666666666668A41.6666666666667 41.6666666666667 0 0 1 666.6666666666666 125.0000000000001A41.6666666666667 41.6666666666667 0 0 1 708.3333333333333 166.6666666666668A41.6666666666667 41.6666666666667 0 0 1 666.6666666666666 208.3333333333334M291.6666666666667 250A83.3333333333333 83.3333333333333 0 0 0 375 166.6666666666666A83.3333333333333 83.3333333333333 0 0 0 291.6666666666667 83.3333333333333A83.3333333333333 83.3333333333333 0 0 0 208.3333333333333 166.6666666666666A83.3333333333333 83.3333333333333 0 0 0 291.6666666666667 250M291.6666666666667 208.3333333333334A41.6666666666667 41.6666666666667 0 0 1 250 166.6666666666668A41.6666666666667 41.6666666666667 0 0 1 291.6666666666667 125.0000000000001A41.6666666666667 41.6666666666667 0 0 1 333.3333333333333 166.6666666666668A41.6666666666667 41.6666666666667 0 0 1 291.6666666666667 208.3333333333334M750 750H177.9166666666666L284.1666666666667 500H625C638.75 500 650.8333333333334 506.6666666666666 658.3333333333334 516.6666666666667L783.3333333333334 683.3333333333334C788.75 690.4166666666667 791.6666666666666 699.1666666666667 791.6666666666666 708.3333333333334A41.6666666666667 41.6666666666667 0 0 1 750 750M625 458.3333333333334H286.25L254.1666666666667 393.3333333333333L250 375A41.6666666666667 41.6666666666667 0 0 1 291.6666666666667 333.3333333333334H750V291.6666666666668H291.6666666666667A83.3333333333333 83.3333333333333 0 0 0 208.3333333333333 375.0000000000001A83.3333333333333 83.3333333333333 0 0 0 218.75 415.4166666666668L248.75 476.6666666666667L97.5 833.3333333333334H41.6666666666667V875H125L160.4166666666667 791.6666666666667H750A83.3333333333333 83.3333333333333 0 0 0 833.3333333333334 708.3333333333334C833.3333333333334 687.5 826.25 670 814.5833333333334 655.8333333333334L693.3333333333334 493.75C678.3333333333334 472.5 653.3333333333334 458.3333333333334 625 458.3333333333334z" />
    <glyph glyph-name="mdi-light:chart-areaspline"
      unicode="&#xE030;"
      horiz-adv-x="1000" d="M125 833.3333333333334H166.6666666666667V250.0000000000001L398.75 652.9166666666667L649.1666666666666 508.3333333333334L800 769.1666666666667L835.8333333333335 748.3333333333334L664.5833333333334 451.2500000000001L414.1666666666667 595.8333333333334L166.6666666666667 166.6666666666668H262.5L423.75 446.25L444.5833333333333 482.0833333333334L480.4166666666666 461.25L695 337.5L833.3333333333333 577.5V125H125V833.3333333333334M710 280.8333333333334L459.5833333333334 425.4166666666668L310.4166666666667 166.6666666666668H791.6666666666666V421.6666666666668L710 280.8333333333335z" />
    <glyph glyph-name="mdi-light:chart-bar"
      unicode="&#xE031;"
      horiz-adv-x="1000" d="M83.3333333333333 833.3333333333334H125V166.6666666666668H208.3333333333333V583.3333333333334H375V166.6666666666668H458.3333333333333V750H625V166.6666666666668H708.3333333333334V416.6666666666668H875V125.0000000000001H83.3333333333333V833.3333333333334M750 375V166.6666666666668H833.3333333333334V375H750M500 708.3333333333333V166.6666666666668H583.3333333333334V708.3333333333334H500M250 541.6666666666667V166.6666666666668H333.3333333333333V541.6666666666667H250z" />
    <glyph glyph-name="mdi-light:chart-histogram"
      unicode="&#xE032;"
      horiz-adv-x="1000" d="M125 833.3333333333334H166.6666666666667V458.3333333333334H291.6666666666667V708.3333333333334H499.9999999999999V541.6666666666667H666.6666666666666V375.0000000000001H833.3333333333333V125.0000000000001H125V833.3333333333334M666.6666666666666 333.3333333333334V166.6666666666668H791.6666666666666V333.3333333333334H666.6666666666666M500 500V166.6666666666668H625V500.0000000000001H500M333.3333333333333 666.6666666666667V166.6666666666668H458.3333333333333V666.6666666666667H333.3333333333333M166.6666666666667 416.6666666666668V166.6666666666668H291.6666666666667V416.6666666666668H166.6666666666667z" />
    <glyph glyph-name="mdi-light:chart-line"
      unicode="&#xE033;"
      horiz-adv-x="1000" d="M125 833.3333333333334H166.6666666666667V250.0000000000001L399.1666666666667 652.9166666666667L649.5833333333333 508.3333333333334L800.4166666666665 769.1666666666667L836.2499999999999 748.3333333333334L664.9999999999999 451.2500000000001L414.5833333333333 595.8333333333334L166.6666666666667 166.6666666666668H833.3333333333333V125.0000000000001H125V833.3333333333334z" />
    <glyph glyph-name="mdi-light:chart-pie"
      unicode="&#xE034;"
      horiz-adv-x="1000" d="M500 875H541.6666666666666A333.3333333333333 333.3333333333333 0 0 0 875 541.6666666666667V500H500V875M541.6666666666666 541.6666666666667H833.3333333333333A291.6666666666668 291.6666666666668 0 0 1 541.6666666666666 833.3333333333333V541.6666666666667M416.6666666666667 416.6666666666668H750A333.3333333333333 333.3333333333333 0 0 0 416.6666666666667 83.3333333333335A333.3333333333333 333.3333333333333 0 0 0 83.3333333333334 416.6666666666668A333.3333333333333 333.3333333333333 0 0 0 416.6666666666667 750V416.6666666666668M375 375.0000000000001V705.4166666666667C233.75 685 125 563.75 125 416.6666666666668A291.6666666666668 291.6666666666668 0 0 1 416.6666666666667 125.0000000000001C563.75 125.0000000000001 684.9999999999999 233.7500000000001 705.4166666666666 375.0000000000001H375z" />
    <glyph glyph-name="mdi-light:check"
      unicode="&#xE035;"
      horiz-adv-x="1000" d="M787.4999999999999 662.5L375 250L168.75 456.25L198.3333333333334 485.8333333333334L375 308.7500000000001L757.9166666666665 692.0833333333334L787.4999999999999 662.5z" />
    <glyph glyph-name="mdi-light:check-bold"
      unicode="&#xE036;"
      horiz-adv-x="1000" d="M375 208.3333333333334L139.2916666666667 444.0416666666667L227.6666666666667 532.4166666666666L375 385.125L728.5416666666666 738.6666666666667L816.9583333333334 650.2916666666667L375 208.3333333333334zM227.6666666666667 473.5L198.2083333333334 444.0416666666667L375 267.2500000000001L758 650.2916666666667L728.5416666666666 679.75L375 326.1666666666668L227.6666666666667 473.5z" />
    <glyph glyph-name="mdi-light:check-circle"
      unicode="&#xE037;"
      horiz-adv-x="1000" d="M714.5833333333333 600L416.6666666666667 302.0833333333334L283.3333333333333 435.4166666666667L312.5 465L416.6666666666667 360.8333333333334L684.9999999999999 629.5833333333333L714.5833333333333 600M479.1666666666666 875C697.9166666666666 875 875 697.9166666666667 875 479.1666666666667S697.9166666666666 83.3333333333334 479.1666666666666 83.3333333333334S83.3333333333333 260.4166666666668 83.3333333333333 479.1666666666667S260.4166666666667 875 479.1666666666666 875M479.1666666666666 833.3333333333334C283.75 833.3333333333334 125 674.5833333333334 125 479.1666666666667S283.75 125 479.1666666666666 125S833.3333333333333 283.75 833.3333333333333 479.1666666666666S674.5833333333333 833.3333333333334 479.1666666666666 833.3333333333334z" />
    <glyph glyph-name="mdi-light:chevron-double-down"
      unicode="&#xE038;"
      horiz-adv-x="1000" d="M715 683.75L479.1666666666666 447.9166666666668L243.3333333333333 683.75L272.9166666666667 712.9166666666667L479.1666666666666 506.6666666666667L685.4166666666665 712.9166666666667L714.9999999999999 683.75M714.9999999999999 517.0833333333335L479.1666666666665 281.2500000000001L243.3333333333332 517.0833333333335L272.9166666666665 546.2500000000001L479.1666666666665 340.0000000000001L685.4166666666665 546.25L714.9999999999999 517.0833333333334z" />
    <glyph glyph-name="mdi-light:chevron-double-left"
      unicode="&#xE039;"
      horiz-adv-x="1000" d="M683.75 243.3333333333334L447.9166666666667 479.1666666666667L683.75 715L712.9166666666666 685.4166666666667L506.6666666666666 479.1666666666667L712.9166666666666 272.9166666666668L683.75 243.3333333333334M517.0833333333334 243.3333333333334L281.25 479.1666666666667L517.0833333333334 715L546.25 685.4166666666667L340 479.1666666666667L546.25 272.9166666666668L517.0833333333334 243.3333333333334z" />
    <glyph glyph-name="mdi-light:chevron-double-right"
      unicode="&#xE03A;"
      horiz-adv-x="1000" d="M274.5833333333333 715L510.4166666666666 479.1666666666667L274.5833333333333 243.3333333333334L245.4166666666667 272.9166666666668L451.6666666666666 479.1666666666667L245.4166666666667 685.4166666666667L274.5833333333333 715M441.25 715L677.0833333333333 479.1666666666667L441.25 243.3333333333334L412.0833333333333 272.9166666666668L618.3333333333331 479.1666666666667L412.0833333333332 685.4166666666667L441.2499999999999 715z" />
    <glyph glyph-name="mdi-light:chevron-double-up"
      unicode="&#xE03B;"
      horiz-adv-x="1000" d="M243.3333333333333 274.5833333333334L479.1666666666666 510.4166666666667L715 274.5833333333334L685.4166666666666 245.4166666666668L479.1666666666667 451.6666666666666L272.9166666666667 245.4166666666667L243.3333333333334 274.5833333333333M243.3333333333334 441.2499999999999L479.1666666666667 677.0833333333333L715.0000000000001 441.2499999999999L685.4166666666667 412.0833333333333L479.1666666666668 618.3333333333333L272.9166666666668 412.0833333333333L243.3333333333335 441.2499999999999z" />
    <glyph glyph-name="mdi-light:chevron-down"
      unicode="&#xE03C;"
      horiz-adv-x="1000" d="M243.3333333333333 600.4166666666667L479.1666666666666 364.5833333333334L715 600.4166666666667L685.4166666666666 629.5833333333334L479.1666666666667 423.3333333333334L272.9166666666667 629.5833333333333L243.3333333333334 600.4166666666666z" />
    <glyph glyph-name="mdi-light:chevron-left"
      unicode="&#xE03D;"
      horiz-adv-x="1000" d="M600.4166666666666 243.3333333333334L364.5833333333333 479.1666666666667L600.4166666666666 715L629.5833333333333 685.4166666666667L423.3333333333333 479.1666666666667L629.5833333333333 272.9166666666668L600.4166666666666 243.3333333333334z" />
    <glyph glyph-name="mdi-light:chevron-right"
      unicode="&#xE03E;"
      horiz-adv-x="1000" d="M357.9166666666667 243.3333333333334L593.75 479.1666666666667L357.9166666666667 715L328.75 685.4166666666667L534.9999999999999 479.1666666666667L328.75 272.9166666666668L357.9166666666667 243.3333333333334z" />
    <glyph glyph-name="mdi-light:chevron-up"
      unicode="&#xE03F;"
      horiz-adv-x="1000" d="M243.3333333333333 357.9166666666667L479.1666666666666 593.75L715 357.9166666666667L685.4166666666666 328.75L479.1666666666667 535L272.9166666666667 328.75L243.3333333333334 357.9166666666667z" />
    <glyph glyph-name="mdi-light:circle"
      unicode="&#xE040;"
      horiz-adv-x="1000" d="M479.1666666666666 875A395.8333333333333 395.8333333333333 0 0 0 875 479.1666666666667A395.8333333333333 395.8333333333333 0 0 0 479.1666666666667 83.3333333333335A395.8333333333333 395.8333333333333 0 0 0 83.3333333333333 479.1666666666667A395.8333333333333 395.8333333333333 0 0 0 479.1666666666666 875M479.1666666666666 833.3333333333334A354.1666666666667 354.1666666666667 0 0 1 125 479.1666666666667A354.1666666666667 354.1666666666667 0 0 1 479.1666666666666 125.0000000000001A354.1666666666667 354.1666666666667 0 0 1 833.3333333333333 479.1666666666667A354.1666666666667 354.1666666666667 0 0 1 479.1666666666666 833.3333333333334z" />
    <glyph glyph-name="mdi-light:clipboard"
      unicode="&#xE041;"
      horiz-adv-x="1000" d="M250 791.6666666666667H354.1666666666667A125 125 0 0 0 479.1666666666666 916.6666666666669A125 125 0 0 0 604.1666666666666 791.6666666666667H708.3333333333333A125 125 0 0 0 833.3333333333333 666.6666666666667V208.3333333333334A125 125 0 0 0 708.3333333333333 83.3333333333334H250A125 125 0 0 0 125 208.3333333333334V666.6666666666667A125 125 0 0 0 250 791.6666666666667M250 750A83.3333333333333 83.3333333333333 0 0 1 166.6666666666667 666.6666666666667V208.3333333333334A83.3333333333333 83.3333333333333 0 0 1 250 125H708.3333333333333A83.3333333333333 83.3333333333333 0 0 1 791.6666666666666 208.3333333333334V666.6666666666667A83.3333333333333 83.3333333333333 0 0 1 708.3333333333333 750H666.6666666666666V625H291.6666666666667V750H250M333.3333333333333 666.6666666666667H625V750H333.3333333333333V666.6666666666667M479.1666666666666 875A83.3333333333333 83.3333333333333 0 0 1 395.8333333333333 791.6666666666667H562.5A83.3333333333333 83.3333333333333 0 0 1 479.1666666666667 875z" />
    <glyph glyph-name="mdi-light:clipboard-check"
      unicode="&#xE042;"
      horiz-adv-x="1000" d="M250 791.6666666666667H354.1666666666667A125 125 0 0 0 479.1666666666666 916.6666666666669A125 125 0 0 0 604.1666666666666 791.6666666666667H708.3333333333333A125 125 0 0 0 833.3333333333333 666.6666666666667V208.3333333333334A125 125 0 0 0 708.3333333333333 83.3333333333334H250A125 125 0 0 0 125 208.3333333333334V666.6666666666667A125 125 0 0 0 250 791.6666666666667M250 750A83.3333333333333 83.3333333333333 0 0 1 166.6666666666667 666.6666666666667V208.3333333333334A83.3333333333333 83.3333333333333 0 0 1 250 125H708.3333333333333A83.3333333333333 83.3333333333333 0 0 1 791.6666666666666 208.3333333333334V666.6666666666667A83.3333333333333 83.3333333333333 0 0 1 708.3333333333333 750H666.6666666666666V625H291.6666666666667V750H250M333.3333333333333 666.6666666666667H625V750H333.3333333333333V666.6666666666667M479.1666666666666 875A83.3333333333333 83.3333333333333 0 0 1 395.8333333333333 791.6666666666667H562.5A83.3333333333333 83.3333333333333 0 0 1 479.1666666666667 875M714.5833333333334 516.6666666666667L416.6666666666667 218.75L283.3333333333333 352.0833333333333L312.5 381.6666666666667L416.6666666666667 277.5L684.9999999999999 546.25L714.5833333333333 516.6666666666666z" />
    <glyph glyph-name="mdi-light:clipboard-plus"
      unicode="&#xE043;"
      horiz-adv-x="1000" d="M250 791.6666666666667H354.1666666666667A125 125 0 0 0 479.1666666666666 916.6666666666669A125 125 0 0 0 604.1666666666666 791.6666666666667H708.3333333333333A125 125 0 0 0 833.3333333333333 666.6666666666667V208.3333333333334A125 125 0 0 0 708.3333333333333 83.3333333333334H250A125 125 0 0 0 125 208.3333333333334V666.6666666666667A125 125 0 0 0 250 791.6666666666667M250 750A83.3333333333333 83.3333333333333 0 0 1 166.6666666666667 666.6666666666667V208.3333333333334A83.3333333333333 83.3333333333333 0 0 1 250 125H708.3333333333333A83.3333333333333 83.3333333333333 0 0 1 791.6666666666666 208.3333333333334V666.6666666666667A83.3333333333333 83.3333333333333 0 0 1 708.3333333333333 750H666.6666666666666V625H291.6666666666667V750H250M333.3333333333333 666.6666666666667H625V750H333.3333333333333V666.6666666666667M479.1666666666666 875A83.3333333333333 83.3333333333333 0 0 1 395.8333333333333 791.6666666666667H562.5A83.3333333333333 83.3333333333333 0 0 1 479.1666666666667 875M333.3333333333333 208.3333333333334V291.6666666666668H250V333.3333333333334H333.3333333333333V416.6666666666668H375V333.3333333333334H458.3333333333333V291.6666666666668H375V208.3333333333334H333.3333333333333z" />
    <glyph glyph-name="mdi-light:clipboard-text"
      unicode="&#xE044;"
      horiz-adv-x="1000" d="M250 791.6666666666667H354.1666666666667A125 125 0 0 0 479.1666666666666 916.6666666666669A125 125 0 0 0 604.1666666666666 791.6666666666667H708.3333333333333A125 125 0 0 0 833.3333333333333 666.6666666666667V208.3333333333334A125 125 0 0 0 708.3333333333333 83.3333333333334H250A125 125 0 0 0 125 208.3333333333334V666.6666666666667A125 125 0 0 0 250 791.6666666666667M250 750A83.3333333333333 83.3333333333333 0 0 1 166.6666666666667 666.6666666666667V208.3333333333334A83.3333333333333 83.3333333333333 0 0 1 250 125H708.3333333333333A83.3333333333333 83.3333333333333 0 0 1 791.6666666666666 208.3333333333334V666.6666666666667A83.3333333333333 83.3333333333333 0 0 1 708.3333333333333 750H666.6666666666666V625H291.6666666666667V750H250M333.3333333333333 666.6666666666667H625V750H333.3333333333333V666.6666666666667M479.1666666666666 875A83.3333333333333 83.3333333333333 0 0 1 395.8333333333333 791.6666666666667H562.5A83.3333333333333 83.3333333333333 0 0 1 479.1666666666667 875M250 541.6666666666667H708.3333333333333V500H250V541.6666666666667M250 416.6666666666668H708.3333333333333V375.0000000000001H250V416.6666666666668M250 291.6666666666668H625V250.0000000000001H250V291.6666666666668z" />
    <glyph glyph-name="mdi-light:clock"
      unicode="&#xE045;"
      horiz-adv-x="1000" d="M479.1666666666666 875A395.8333333333333 395.8333333333333 0 0 0 875 479.1666666666667A395.8333333333333 395.8333333333333 0 0 0 479.1666666666667 83.3333333333335A395.8333333333333 395.8333333333333 0 0 0 83.3333333333333 479.1666666666667A395.8333333333333 395.8333333333333 0 0 0 479.1666666666666 875M479.1666666666666 833.3333333333334A354.1666666666667 354.1666666666667 0 0 1 125 479.1666666666667A354.1666666666667 354.1666666666667 0 0 1 479.1666666666666 125.0000000000001A354.1666666666667 354.1666666666667 0 0 1 833.3333333333333 479.1666666666667A354.1666666666667 354.1666666666667 0 0 1 479.1666666666666 833.3333333333334M458.3333333333333 708.3333333333334H500V482.5L695.8333333333333 369.5833333333334L674.9999999999999 333.3333333333334L458.3333333333333 458.3333333333334V708.3333333333334z" />
    <glyph glyph-name="mdi-light:closed-caption"
      unicode="&#xE046;"
      horiz-adv-x="1000" d="M166.6666666666667 791.6666666666667H791.6666666666666A125 125 0 0 0 916.6666666666666 666.6666666666667V291.6666666666668A125 125 0 0 0 791.6666666666666 166.6666666666668H166.6666666666667A125 125 0 0 0 41.6666666666667 291.6666666666668V666.6666666666667A125 125 0 0 0 166.6666666666667 791.6666666666667M166.6666666666667 750A83.3333333333333 83.3333333333333 0 0 1 83.3333333333333 666.6666666666667V291.6666666666668A83.3333333333333 83.3333333333333 0 0 1 166.6666666666667 208.3333333333334H791.6666666666666A83.3333333333333 83.3333333333333 0 0 1 875 291.6666666666668V666.6666666666667A83.3333333333333 83.3333333333333 0 0 1 791.6666666666666 750H166.6666666666667M354.1666666666667 666.6666666666667C395.8333333333333 666.6666666666667 433.3333333333333 653.3333333333334 464.5833333333333 630.8333333333334L440 597.0833333333334C416.6666666666667 614.5833333333334 386.25 625 354.1666666666667 625A145.8333333333334 145.8333333333334 0 0 1 208.3333333333333 479.1666666666667A145.8333333333334 145.8333333333334 0 0 1 354.1666666666667 333.3333333333334C386.25 333.3333333333334 416.6666666666667 343.75 440 361.2500000000001L464.5833333333333 327.5000000000001C433.3333333333333 305.0000000000001 395.8333333333333 291.6666666666668 354.1666666666667 291.6666666666668C250 291.6666666666668 166.6666666666667 375 166.6666666666667 479.1666666666667S250 666.6666666666667 354.1666666666667 666.6666666666667M681.2499999999999 666.6666666666667C722.4999999999999 666.6666666666667 760.8333333333333 653.3333333333334 791.6666666666665 630.8333333333334L767.0833333333333 597.0833333333334A145.7916666666667 145.7916666666667 0 0 1 535.4166666666666 479.1666666666667A145.7916666666667 145.7916666666667 0 0 1 767.0833333333334 361.2500000000001L791.6666666666666 327.5000000000001C760.8333333333333 305.0000000000001 722.4999999999999 291.6666666666668 681.2499999999999 291.6666666666668C577.9166666666666 291.6666666666668 493.7499999999999 375.0000000000001 493.7499999999999 479.1666666666667S577.9166666666666 666.6666666666667 681.25 666.6666666666667z" />
    <glyph glyph-name="mdi-light:cloud"
      unicode="&#xE047;"
      horiz-adv-x="1000" d="M229.1666666666667 166.6666666666668A229.1666666666667 229.1666666666667 0 0 0 0 395.8333333333334A229.1666666666667 229.1666666666667 0 0 0 229.1666666666667 625C270.8333333333333 722.9166666666666 366.6666666666667 791.6666666666666 479.1666666666666 791.6666666666666C622.0833333333334 791.6666666666666 739.1666666666666 680.8333333333333 750 540.4166666666666L770.8333333333334 541.6666666666666C875 541.6666666666666 958.3333333333334 458.3333333333333 958.3333333333334 354.1666666666667S875 166.6666666666668 770.8333333333333 166.6666666666668H229.1666666666667M229.1666666666667 583.3333333333334C125 583.3333333333334 41.6666666666667 500 41.6666666666667 395.8333333333334S125 208.3333333333334 229.1666666666667 208.3333333333334H770.8333333333333A145.8333333333334 145.8333333333334 0 0 1 916.6666666666666 354.1666666666668A145.8333333333334 145.8333333333334 0 0 1 770.8333333333333 500.0000000000001C747.4999999999999 500.0000000000001 724.9999999999999 494.5833333333334 705.4166666666666 484.5833333333334C708.3333333333333 496.2500000000001 708.3333333333333 508.3333333333334 708.3333333333333 520.8333333333334A229.1666666666667 229.1666666666667 0 0 1 479.1666666666666 750A229.5833333333334 229.5833333333334 0 0 1 257.9166666666667 581.25L229.1666666666667 583.3333333333334z" />
    <glyph glyph-name="mdi-light:cloud-download"
      unicode="&#xE048;"
      horiz-adv-x="1000" d="M229.1666666666667 166.6666666666668A229.1666666666667 229.1666666666667 0 0 0 0 395.8333333333334A229.1666666666667 229.1666666666667 0 0 0 229.1666666666667 625C270.8333333333333 722.9166666666666 366.6666666666667 791.6666666666666 479.1666666666666 791.6666666666666C622.0833333333334 791.6666666666666 739.1666666666666 680.8333333333333 750 540.4166666666666L770.8333333333334 541.6666666666666C875 541.6666666666666 958.3333333333334 458.3333333333333 958.3333333333334 354.1666666666667S875 166.6666666666668 770.8333333333333 166.6666666666668H229.1666666666667M229.1666666666667 583.3333333333334C125 583.3333333333334 41.6666666666667 500 41.6666666666667 395.8333333333334S125 208.3333333333334 229.1666666666667 208.3333333333334H770.8333333333333A145.8333333333334 145.8333333333334 0 0 1 916.6666666666666 354.1666666666668A145.8333333333334 145.8333333333334 0 0 1 770.8333333333333 500.0000000000001C747.4999999999999 500.0000000000001 724.9999999999999 494.5833333333334 705.4166666666666 484.5833333333334L708.3333333333333 520.8333333333334A229.1666666666667 229.1666666666667 0 0 1 479.1666666666666 750A229.5833333333334 229.5833333333334 0 0 1 257.9166666666667 581.25L229.1666666666667 583.3333333333334M500 583.3333333333334V364.5833333333334L593.75 458.3333333333334L625 430.8333333333334L479.1666666666667 285.0000000000001L333.3333333333334 430.8333333333334L364.5833333333334 458.3333333333334L458.3333333333333 364.5833333333334V583.3333333333334H500z" />
    <glyph glyph-name="mdi-light:cloud-upload"
      unicode="&#xE049;"
      horiz-adv-x="1000" d="M229.1666666666667 166.6666666666668A229.1666666666667 229.1666666666667 0 0 0 0 395.8333333333334A229.1666666666667 229.1666666666667 0 0 0 229.1666666666667 625C270.8333333333333 722.9166666666666 366.6666666666667 791.6666666666666 479.1666666666666 791.6666666666666C622.0833333333334 791.6666666666666 739.1666666666666 680.8333333333333 750 540.4166666666666L770.8333333333334 541.6666666666666C875 541.6666666666666 958.3333333333334 458.3333333333333 958.3333333333334 354.1666666666667S875 166.6666666666668 770.8333333333333 166.6666666666668H229.1666666666667M229.1666666666667 583.3333333333334C125 583.3333333333334 41.6666666666667 500 41.6666666666667 395.8333333333334S125 208.3333333333334 229.1666666666667 208.3333333333334H770.8333333333333A145.8333333333334 145.8333333333334 0 0 1 916.6666666666666 354.1666666666668A145.8333333333334 145.8333333333334 0 0 1 770.8333333333333 500.0000000000001C747.4999999999999 500.0000000000001 724.9999999999999 494.5833333333334 705.4166666666666 484.5833333333334L708.3333333333333 520.8333333333334A229.1666666666667 229.1666666666667 0 0 1 479.1666666666666 750A229.5833333333334 229.5833333333334 0 0 1 257.9166666666667 581.25L229.1666666666667 583.3333333333334M500 291.6666666666668V510.4166666666667L593.75 416.6666666666668L625 444.1666666666668L479.1666666666667 590L333.3333333333334 444.1666666666668L364.5833333333334 416.6666666666668L458.3333333333333 510.4166666666667V291.6666666666668H500z" />
    <glyph glyph-name="mdi-light:cog"
      unicode="&#xE04A;"
      horiz-adv-x="1000" d="M816.1666666666667 354.5L740.5833333333334 408.25A270.125 270.125 0 0 1 740.375 550.7916666666667L816.2083333333333 603.875L755.6666666666666 708.625L671.3333333333333 670.0416666666666A270.1666666666667 270.1666666666667 0 0 1 547.7499999999999 741.125L539.7083333333333 833.3333333333334H418.6249999999999L410.5833333333333 741.125A270.125 270.125 0 0 1 287.0416666666667 670L202.6666666666667 708.5833333333334L142.1666666666667 603.8333333333333L218 550.75A270.125 270.125 0 0 1 217.75 408.25L142.1666666666667 354.5L202.6666666666667 250.2500000000001L287.0416666666667 288.8750000000001A270.125 270.125 0 0 1 410.5833333333333 217.7916666666669L418.625 125.5833333333335H539.7083333333334L547.75 217.7916666666669A270.1666666666667 270.1666666666667 0 0 1 671.2916666666666 288.8750000000003L755.6666666666666 250.2500000000003L816.2083333333333 354.4583333333335zM562.7083333333334 875.625A20.8333333333333 20.8333333333333 0 0 0 583.5416666666667 855.75L590.9583333333334 770.9583333333334A310.4166666666667 310.4166666666667 0 0 0 676.0833333333334 721.875L753.1666666666667 757.8333333333334A20.8333333333333 20.8333333333333 0 0 0 780.75 749.7083333333334L864.2916666666666 605.125A20.8333333333333 20.8333333333333 0 0 0 857.5416666666666 577.1666666666667L787.7916666666666 528.3333333333334C793.125 495.0833333333333 792.9583333333334 461.9583333333334 787.8333333333334 430.0416666666667L857.5416666666667 381.2916666666668A20.8333333333333 20.8333333333333 0 0 0 864.2916666666667 353.2916666666667L780.7500000000001 209.25A20.8333333333333 20.8333333333333 0 0 0 753.1666666666669 201.125L676.0833333333336 237.0833333333333C651.0000000000002 216.6666666666666 622.416666666667 200 590.9583333333336 187.9583333333334L583.541666666667 103.1666666666666A20.8333333333333 20.8333333333333 0 0 0 562.7083333333336 83.3333333333333H395.6250000000003A20.8333333333333 20.8333333333333 0 0 0 374.791666666667 103.1666666666666L367.3750000000003 187.9583333333334A310.5416666666667 310.5416666666667 0 0 0 282.2500000000003 237.0833333333333L205.166666666667 201.125A20.8333333333333 20.8333333333333 0 0 0 177.541666666667 209.2083333333334L94.0416666666667 353.3333333333334A20.8333333333333 20.8333333333333 0 0 0 100.7916666666667 381.2916666666668L170.5 430.0833333333334A310.4166666666667 310.4166666666667 0 0 0 170.5 528.375L100.8333333333333 577.1666666666667A20.8333333333333 20.8333333333333 0 0 0 94.0833333333333 605.0833333333334L177.5 749.7083333333334A20.8333333333333 20.8333333333333 0 0 0 205.125 757.8333333333334L282.2083333333333 721.875A310.4166666666667 310.4166666666667 0 0 0 367.3333333333334 770.9583333333334L374.75 855.75A20.8333333333333 20.8333333333333 0 0 0 395.5833333333333 875.625H562.6666666666666zM479.1666666666666 625A145.8333333333334 145.8333333333334 0 1 0 479.1666666666666 333.3333333333334A145.8333333333334 145.8333333333334 0 0 0 479.1666666666666 625zM479.1666666666666 583.3333333333333A104.1666666666666 104.1666666666666 0 1 1 479.1666666666666 375A104.1666666666666 104.1666666666666 0 0 1 479.1666666666666 583.3333333333333z" />
    <glyph glyph-name="mdi-light:comment"
      unicode="&#xE04B;"
      horiz-adv-x="1000" d="M208.3333333333333 875H750A125 125 0 0 0 875 750V375A125 125 0 0 0 750 250H558.7500000000001L404.5833333333335 95.4166666666667C397.0833333333334 87.9166666666667 386.6666666666668 83.3333333333334 375.0000000000001 83.3333333333334A41.6666666666667 41.6666666666667 0 0 0 333.3333333333334 125V250H208.3333333333333A125 125 0 0 0 83.3333333333333 375V750A125 125 0 0 0 208.3333333333333 875M750 833.3333333333334H208.3333333333333A83.3333333333333 83.3333333333333 0 0 1 125 750V375A83.3333333333333 83.3333333333333 0 0 1 208.3333333333333 291.6666666666667H375V125L541.6666666666666 291.6666666666667H750A83.3333333333333 83.3333333333333 0 0 1 833.3333333333334 375V750A83.3333333333333 83.3333333333333 0 0 1 750 833.3333333333333z" />
    <glyph glyph-name="mdi-light:comment-alert"
      unicode="&#xE04C;"
      horiz-adv-x="1000" d="M208.3333333333333 875H750A125 125 0 0 0 875 750V375A125 125 0 0 0 750 250H558.7500000000001L404.5833333333335 95.4166666666667C397.0833333333334 87.9166666666667 386.6666666666668 83.3333333333334 375.0000000000001 83.3333333333334A41.6666666666667 41.6666666666667 0 0 0 333.3333333333334 125V250H208.3333333333333A125 125 0 0 0 83.3333333333333 375V750A125 125 0 0 0 208.3333333333333 875M750 833.3333333333334H208.3333333333333A83.3333333333333 83.3333333333333 0 0 1 125 750V375A83.3333333333333 83.3333333333333 0 0 1 208.3333333333333 291.6666666666667H375V125L541.6666666666666 291.6666666666667H750A83.3333333333333 83.3333333333333 0 0 1 833.3333333333334 375V750A83.3333333333333 83.3333333333333 0 0 1 750 833.3333333333333M458.3333333333334 750H500V541.6666666666667H458.3333333333333V750M458.3333333333333 458.3333333333334H500V375H458.3333333333333V458.3333333333334z" />
    <glyph glyph-name="mdi-light:comment-text"
      unicode="&#xE04D;"
      horiz-adv-x="1000" d="M208.3333333333333 875H750A125 125 0 0 0 875 750V375A125 125 0 0 0 750 250H558.7500000000001L404.5833333333335 95.4166666666667C397.0833333333334 87.9166666666667 386.6666666666668 83.3333333333334 375.0000000000001 83.3333333333334A41.6666666666667 41.6666666666667 0 0 0 333.3333333333334 125V250H208.3333333333333A125 125 0 0 0 83.3333333333333 375V750A125 125 0 0 0 208.3333333333333 875M750 833.3333333333334H208.3333333333333A83.3333333333333 83.3333333333333 0 0 1 125 750V375A83.3333333333333 83.3333333333333 0 0 1 208.3333333333333 291.6666666666667H375V125L541.6666666666666 291.6666666666667H750A83.3333333333333 83.3333333333333 0 0 1 833.3333333333334 375V750A83.3333333333333 83.3333333333333 0 0 1 750 833.3333333333333M208.3333333333333 708.3333333333334H750V666.6666666666667H208.3333333333333V708.3333333333334M208.3333333333333 583.3333333333334H708.3333333333333V541.6666666666667H208.3333333333333V583.3333333333334M208.3333333333333 458.3333333333334H541.6666666666666V416.6666666666668H208.3333333333333V458.3333333333334z" />
    <glyph glyph-name="mdi-light:console"
      unicode="&#xE04E;"
      horiz-adv-x="1000" d="M208.3333333333333 833.3333333333334H750A125 125 0 0 0 875 708.3333333333334V250A125 125 0 0 0 750 125H208.3333333333333A125 125 0 0 0 83.3333333333333 250V708.3333333333334A125 125 0 0 0 208.3333333333333 833.3333333333334M208.3333333333333 791.6666666666667A83.3333333333333 83.3333333333333 0 0 1 125 708.3333333333334H833.3333333333333A83.3333333333333 83.3333333333333 0 0 1 749.9999999999999 791.6666666666667H208.3333333333333M125 250A83.3333333333333 83.3333333333333 0 0 1 208.3333333333333 166.6666666666666H750A83.3333333333333 83.3333333333333 0 0 1 833.3333333333334 250V666.6666666666667H125V250M708.3333333333333 250H499.9999999999999V291.6666666666667H708.3333333333333V250M250 562.5L279.5833333333334 592.0833333333334L454.5833333333333 416.6666666666668L279.5833333333334 241.2500000000001L250 270.8333333333334L395.8333333333333 416.6666666666668L250 562.5z" />
    <glyph glyph-name="mdi-light:content-cut"
      unicode="&#xE04F;"
      horiz-adv-x="1000" d="M375 729.1666666666667C375 696.25 364.1666666666667 666.6666666666667 345.8333333333333 641.6666666666667L833.3333333333333 154.5833333333334V125H803.75L479.1666666666666 449.5833333333334L345.8333333333333 316.6666666666667C364.1666666666667 291.6666666666667 375 262.0833333333334 375 229.1666666666667A145.8333333333334 145.8333333333334 0 0 0 229.1666666666667 83.3333333333334A145.8333333333334 145.8333333333334 0 0 0 83.3333333333333 229.1666666666668A145.8333333333334 145.8333333333334 0 0 0 229.1666666666667 375C262.0833333333333 375 291.6666666666667 364.1666666666667 316.6666666666667 345.8333333333334L449.5833333333333 479.1666666666666L316.6666666666667 612.5C291.6666666666667 594.1666666666667 262.0833333333333 583.3333333333333 229.1666666666667 583.3333333333333A145.8333333333334 145.8333333333334 0 0 0 83.3333333333333 729.1666666666667A145.8333333333334 145.8333333333334 0 0 0 229.1666666666667 875A145.8333333333334 145.8333333333334 0 0 0 375 729.1666666666667M333.3333333333333 729.1666666666667A104.1666666666666 104.1666666666666 0 0 1 229.1666666666667 833.3333333333334A104.1666666666666 104.1666666666666 0 0 1 125 729.1666666666667A104.1666666666666 104.1666666666666 0 0 1 229.1666666666667 625A104.1666666666666 104.1666666666666 0 0 1 333.3333333333333 729.1666666666667M803.75 833.3333333333334H833.3333333333333V803.75L535.4166666666666 506.2500000000001L506.25 535.4166666666667L803.75 833.3333333333334M229.1666666666667 333.3333333333334A104.1666666666666 104.1666666666666 0 0 1 125 229.1666666666668A104.1666666666666 104.1666666666666 0 0 1 229.1666666666667 125A104.1666666666666 104.1666666666666 0 0 1 333.3333333333333 229.1666666666668A104.1666666666666 104.1666666666666 0 0 1 229.1666666666667 333.3333333333334z" />
    <glyph glyph-name="mdi-light:content-duplicate"
      unicode="&#xE050;"
      horiz-adv-x="1000" d="M375 750H708.3333333333333A125 125 0 0 0 833.3333333333333 625V166.6666666666668A125 125 0 0 0 708.3333333333333 41.6666666666667H375A125 125 0 0 0 250 166.6666666666668V208.3333333333334H291.6666666666667V166.6666666666668A83.3333333333333 83.3333333333333 0 0 1 375 83.3333333333334H708.3333333333333A83.3333333333333 83.3333333333333 0 0 1 791.6666666666666 166.6666666666668V625A83.3333333333333 83.3333333333333 0 0 1 708.3333333333333 708.3333333333333H375A83.3333333333333 83.3333333333333 0 0 1 291.6666666666667 625V416.6666666666668H250V625A125 125 0 0 0 375 750M208.3333333333333 916.6666666666666H625V875H208.3333333333333A83.3333333333333 83.3333333333333 0 0 1 125 791.6666666666667V416.6666666666668A83.3333333333333 83.3333333333333 0 0 1 208.3333333333333 333.3333333333334H510.4166666666666L416.6666666666667 427.0833333333334L444.1666666666667 458.3333333333334L590 312.5L444.1666666666667 166.6666666666668L416.6666666666667 197.9166666666668L510.4166666666666 291.6666666666668H208.3333333333333A125 125 0 0 0 83.3333333333333 416.6666666666668V791.6666666666667A125 125 0 0 0 208.3333333333333 916.6666666666669z" />
    <glyph glyph-name="mdi-light:content-paste"
      unicode="&#xE051;"
      horiz-adv-x="1000" d="M479.1666666666666 958.3333333333334A104.1666666666666 104.1666666666666 0 0 0 581.2499999999999 875H708.3333333333333A125 125 0 0 0 833.3333333333333 750V208.3333333333334A125 125 0 0 0 708.3333333333333 83.3333333333334H250A125 125 0 0 0 125 208.3333333333334V750A125 125 0 0 0 250 875H377.0833333333333A104.1666666666666 104.1666666666666 0 0 0 479.1666666666666 958.3333333333334M537.9166666666666 875A62.2916666666667 62.2916666666667 0 0 1 420.4166666666667 875H537.9166666666666M250 833.3333333333334A83.3333333333333 83.3333333333333 0 0 1 166.6666666666667 750V208.3333333333334A83.3333333333333 83.3333333333333 0 0 1 250 125H708.3333333333333A83.3333333333333 83.3333333333333 0 0 1 791.6666666666666 208.3333333333334V750A83.3333333333333 83.3333333333333 0 0 1 708.3333333333333 833.3333333333333H666.6666666666666V708.3333333333333H291.6666666666667V833.3333333333334H250M333.3333333333333 833.3333333333334V750H625V833.3333333333334H333.3333333333333z" />
    <glyph glyph-name="mdi-light:content-save"
      unicode="&#xE052;"
      horiz-adv-x="1000" d="M250 833.3333333333334H691.2499999999999L833.3333333333333 691.25V250A125 125 0 0 0 708.3333333333333 125H250A125 125 0 0 0 125 250V708.3333333333334A125 125 0 0 0 250 833.3333333333334M250 791.6666666666667A83.3333333333333 83.3333333333333 0 0 1 166.6666666666667 708.3333333333334V250A83.3333333333333 83.3333333333333 0 0 1 250 166.6666666666666H708.3333333333333A83.3333333333333 83.3333333333333 0 0 1 791.6666666666666 250V670.4166666666667L670.4166666666666 791.6666666666667H625V583.3333333333334H250V791.6666666666667M291.6666666666667 791.6666666666667V625H583.3333333333333V791.6666666666667H291.6666666666667M499.9999999999999 500.0000000000001A125 125 0 0 0 625 375A125 125 0 0 0 500 250A125 125 0 0 0 375 375A125 125 0 0 0 500 500M500 458.3333333333334A83.3333333333333 83.3333333333333 0 0 1 416.6666666666667 375A83.3333333333333 83.3333333333333 0 0 1 500 291.6666666666667A83.3333333333333 83.3333333333333 0 0 1 583.3333333333334 375A83.3333333333333 83.3333333333333 0 0 1 500 458.3333333333334z" />
    <glyph glyph-name="mdi-light:content-save-all"
      unicode="&#xE053;"
      horiz-adv-x="1000" d="M250 875H691.2499999999999L833.3333333333333 732.9166666666667V291.6666666666668A125 125 0 0 0 708.3333333333333 166.6666666666668H250A125 125 0 0 0 125 291.6666666666668V750A125 125 0 0 0 250 875M250 833.3333333333334A83.3333333333333 83.3333333333333 0 0 1 166.6666666666667 750V291.6666666666668A83.3333333333333 83.3333333333333 0 0 1 250 208.3333333333334H708.3333333333333A83.3333333333333 83.3333333333333 0 0 1 791.6666666666666 291.6666666666668V712.0833333333334L670.4166666666666 833.3333333333334H625V625H250V833.3333333333334M291.6666666666667 833.3333333333334V666.6666666666667H583.3333333333333V833.3333333333334H291.6666666666667M499.9999999999999 541.6666666666667A125 125 0 0 0 625 416.6666666666668A125 125 0 0 0 500 291.6666666666668A125 125 0 0 0 375 416.6666666666668A125 125 0 0 0 500 541.6666666666667M500 500.0000000000001A83.3333333333333 83.3333333333333 0 0 1 416.6666666666667 416.6666666666668A83.3333333333333 83.3333333333333 0 0 1 500 333.3333333333334A83.3333333333333 83.3333333333333 0 0 1 583.3333333333334 416.6666666666668A83.3333333333333 83.3333333333333 0 0 1 500 500.0000000000001M250 83.3333333333334A208.3333333333333 208.3333333333333 0 0 0 41.6666666666667 291.6666666666668V708.3333333333334H83.3333333333333V291.6666666666668A166.6666666666667 166.6666666666667 0 0 1 250 125.0000000000001H666.6666666666666V83.3333333333335H250z" />
    <glyph glyph-name="mdi-light:credit-card"
      unicode="&#xE054;"
      horiz-adv-x="1000" d="M208.3333333333333 791.6666666666667H750A125 125 0 0 0 875 666.6666666666667V291.6666666666668A125 125 0 0 0 750 166.6666666666668H208.3333333333333A125 125 0 0 0 83.3333333333333 291.6666666666668V666.6666666666667A125 125 0 0 0 208.3333333333333 791.6666666666667M208.3333333333333 750A83.3333333333333 83.3333333333333 0 0 1 125 666.6666666666667V625H833.3333333333333V666.6666666666667A83.3333333333333 83.3333333333333 0 0 1 749.9999999999999 750H208.3333333333333M125 291.6666666666668A83.3333333333333 83.3333333333333 0 0 1 208.3333333333333 208.3333333333334H750A83.3333333333333 83.3333333333333 0 0 1 833.3333333333334 291.6666666666668V500.0000000000001H125V291.6666666666668M208.3333333333333 333.3333333333334H375V291.6666666666668H208.3333333333333V333.3333333333334M458.3333333333333 333.3333333333334H583.3333333333333V291.6666666666668H458.3333333333333V333.3333333333334M125 583.3333333333334V541.6666666666667H833.3333333333333V583.3333333333334H125z" />
    <glyph glyph-name="mdi-light:credit-card-scan"
      unicode="&#xE055;"
      horiz-adv-x="1000" d="M250 750H708.3333333333333A125 125 0 0 0 833.3333333333333 625V333.3333333333334A125 125 0 0 0 708.3333333333333 208.3333333333334H250A125 125 0 0 0 125 333.3333333333334V625A125 125 0 0 0 250 750M250 708.3333333333333A83.3333333333333 83.3333333333333 0 0 1 166.6666666666667 625H791.6666666666667A83.3333333333333 83.3333333333333 0 0 1 708.3333333333334 708.3333333333333H250M166.6666666666667 333.3333333333333A83.3333333333333 83.3333333333333 0 0 1 250 249.9999999999999H708.3333333333333A83.3333333333333 83.3333333333333 0 0 1 791.6666666666666 333.3333333333333V499.9999999999999H166.6666666666667V333.3333333333333M250 374.9999999999999H375V333.3333333333333H250V374.9999999999999M458.3333333333333 374.9999999999999H541.6666666666666V333.3333333333333H458.3333333333333V374.9999999999999M166.6666666666667 583.3333333333333V541.6666666666665H791.6666666666667V583.3333333333333H166.6666666666667M125 875H208.3333333333333V833.3333333333334H125A83.3333333333333 83.3333333333333 0 0 1 41.6666666666667 750V666.6666666666667H0V750A125 125 0 0 0 125 875M41.6666666666667 208.3333333333334A83.3333333333333 83.3333333333333 0 0 1 125 125H208.3333333333333V83.3333333333334H125A125 125 0 0 0 0 208.3333333333334V291.6666666666668H41.6666666666667V208.3333333333334M833.3333333333333 875A125 125 0 0 0 958.3333333333331 750V666.6666666666667H916.6666666666666V750A83.3333333333333 83.3333333333333 0 0 1 833.3333333333333 833.3333333333333H749.9999999999999V875H833.3333333333333M958.3333333333331 208.3333333333334A125 125 0 0 0 833.3333333333333 83.3333333333334H749.9999999999999V125H833.3333333333333A83.3333333333333 83.3333333333333 0 0 1 916.6666666666666 208.3333333333334V291.6666666666668H958.3333333333331V208.3333333333334z" />
    <glyph glyph-name="mdi-light:crop"
      unicode="&#xE056;"
      horiz-adv-x="1000" d="M333.3333333333333 750H625A125 125 0 0 0 750 625V333.3333333333334H708.3333333333334V625A83.3333333333333 83.3333333333333 0 0 1 625 708.3333333333333H333.3333333333333V750M333.3333333333333 208.3333333333334A125 125 0 0 0 208.3333333333333 333.3333333333334V708.3333333333334H41.6666666666667V750H208.3333333333333V916.6666666666666H250V333.3333333333334A83.3333333333333 83.3333333333333 0 0 1 333.3333333333333 250H875V208.3333333333334H750V41.6666666666667H708.3333333333334V208.3333333333334H333.3333333333333z" />
    <glyph glyph-name="mdi-light:crop-free"
      unicode="&#xE057;"
      horiz-adv-x="1000" d="M250 833.3333333333334H333.3333333333333V791.6666666666667H250A83.3333333333333 83.3333333333333 0 0 1 166.6666666666667 708.3333333333334V625H125V708.3333333333334A125 125 0 0 0 250 833.3333333333334M166.6666666666667 250A83.3333333333333 83.3333333333333 0 0 1 250 166.6666666666666H333.3333333333333V125H250A125 125 0 0 0 125 250V333.3333333333334H166.6666666666667V250M708.3333333333333 833.3333333333334A125 125 0 0 0 833.3333333333333 708.3333333333334V625H791.6666666666666V708.3333333333334A83.3333333333333 83.3333333333333 0 0 1 708.3333333333333 791.6666666666667H624.9999999999999V833.3333333333334H708.3333333333333M833.3333333333333 250.0000000000001A125 125 0 0 0 708.3333333333333 125.0000000000001H624.9999999999999V166.6666666666668H708.3333333333333A83.3333333333333 83.3333333333333 0 0 1 791.6666666666666 250.0000000000001V333.3333333333335H833.3333333333333V250.0000000000001z" />
    <glyph glyph-name="mdi-light:currency-eur"
      unicode="&#xE058;"
      horiz-adv-x="1000" d="M83.3333333333333 541.6666666666667L104.1666666666667 583.3333333333334H223.75C268.3333333333333 727.9166666666667 403.3333333333333 833.3333333333334 562.5 833.3333333333334C651.25 833.3333333333334 732.4999999999999 800.8333333333334 794.5833333333333 746.6666666666667L777.9166666666666 705.4166666666667A312.4583333333333 312.4583333333333 0 0 1 267.9166666666667 583.3333333333334H729.1666666666666L712.4999999999999 541.6666666666667H256.25A317.9583333333333 317.9583333333333 0 0 1 256.25 416.6666666666668H662.5L645.8333333333333 375.0000000000001H267.9166666666667C310.8333333333333 253.7500000000001 426.25 166.6666666666668 562.5 166.6666666666668C652.9166666666667 166.6666666666668 734.5833333333334 205.0000000000001 791.6666666666666 266.6666666666668V208.3333333333334C729.1666666666666 156.6666666666668 649.9999999999999 125 562.5 125C403.3333333333333 125 268.3333333333334 230.4166666666668 223.75 375H83.3333333333333L104.1666666666667 416.6666666666667H213.75C210.4166666666667 437.5 208.3333333333333 458.3333333333333 208.3333333333333 479.1666666666666S210.4166666666666 520.8333333333333 213.75 541.6666666666666H83.3333333333333z" />
    <glyph glyph-name="mdi-light:currency-gbp"
      unicode="&#xE059;"
      horiz-adv-x="1000" d="M291.6666666666667 458.3333333333334V500.0000000000001H409.1666666666667C406.25 519.5833333333334 402.5 537.5 398.75 554.1666666666667C390.8333333333333 590.8333333333334 383.75 625 385.4166666666667 666.6666666666667C388.75 742.5 413.3333333333333 794.5833333333334 459.5833333333333 822.0833333333334C529.5833333333333 864.5833333333333 627.0833333333333 833.3333333333334 666.6666666666666 818.3333333333334L660.4166666666666 776.25C633.75 787.5 540 822.0833333333334 480.8333333333333 786.25C447.5 766.6666666666666 429.5833333333333 725.8333333333333 427.0833333333333 666.6666666666667C425.4166666666667 629.1666666666667 432.0833333333333 598.3333333333334 439.5833333333333 562.5C443.75 543.75 447.9166666666667 523.3333333333333 451.6666666666667 500H625V458.3333333333334H456.2500000000001C458.3333333333334 442.5 458.3333333333334 425 458.3333333333334 406.25C458.3333333333333 273.75 397.0833333333333 208.3333333333334 347.9166666666667 166.6666666666668H708.3333333333333V125.0000000000001H270.8333333333333V166.6666666666668L304.5833333333333 184.5833333333335C351.6666666666667 224.1666666666668 416.6666666666667 277.9166666666669 416.6666666666667 406.2500000000001C416.6666666666667 425.0000000000001 416.6666666666667 442.5000000000001 414.5833333333333 458.3333333333335H291.6666666666667z" />
    <glyph glyph-name="mdi-light:currency-rub"
      unicode="&#xE05A;"
      horiz-adv-x="1000" d="M291.6666666666667 125V333.3333333333333H250V374.9999999999999H291.6666666666667V499.9999999999999H250V541.6666666666665H291.6666666666667V833.3333333333334H583.3333333333333A166.6666666666667 166.6666666666667 0 0 0 749.9999999999999 666.6666666666667A166.6666666666667 166.6666666666667 0 0 0 583.3333333333333 500H333.3333333333333V375H583.3333333333333V333.3333333333334H333.3333333333333V125H291.6666666666667M333.3333333333333 541.6666666666666H583.3333333333333A125 125 0 0 1 708.3333333333333 666.6666666666666A125 125 0 0 1 583.3333333333333 791.6666666666666H333.3333333333333V541.6666666666666z" />
    </font>
</defs>
</svg>
